<?xml version="1.0" standalone="no"?>
<!DOCTYPE svg PUBLIC "-//W3C//DTD SVG 1.1//EN" "http://www.w3.org/Graphics/SVG/1.1/DTD/svg11.dtd" >
<svg xmlns="http://www.w3.org/2000/svg" xmlns:xlink="http://www.w3.org/1999/xlink" version="1.1">
<metadata>
Created by FontForge 20170731 at Thu Feb  2 15:03:00 2023
 By Aleksey,,,
Copyright 2021 The Wix Madefor Project Authors (https://github.com/wix/wixmadefor/)
</metadata>
<defs>
<font id="WixMadeforText-BoldItalic" horiz-adv-x="0" >
  <font-face 
    font-family="Wix Madefor Text"
    font-weight="700"
    font-style="italic"
    font-stretch="normal"
    units-per-em="1000"
    panose-1="2 11 7 3 2 2 3 9 2 3"
    ascent="800"
    descent="-200"
    x-height="503"
    cap-height="715"
    bbox="-254 -292 1183 989"
    underline-thickness="64"
    underline-position="-193"
    slope="-12"
    unicode-range="U+000D-FEFF"
  />
<missing-glyph horiz-adv-x="500" 
d="M50 0v750h400v-750h-400zM100 50h300v650h-300v-650z" />
    <glyph glyph-name=".notdef" horiz-adv-x="500" 
d="M50 0v750h400v-750h-400zM100 50h300v650h-300v-650z" />
    <glyph glyph-name="uni0000" 
 />
    <glyph glyph-name="uni0000" 
 />
    <glyph glyph-name="uni000D" unicode="&#xd;" horiz-adv-x="225" 
 />
    <glyph glyph-name="space" unicode=" " horiz-adv-x="225" 
 />
    <glyph glyph-name="exclam" unicode="!" horiz-adv-x="262" 
d="M162 225h-70q1 13 5 48.5t10 83.5t12 98t11 92.5t8 67.5q4 39 10.5 59.5t19.5 33.5q23 23 61 23q31 0 48.5 -16t17.5 -46q0 -10 -4 -26.5t-18 -58.5q-15 -46 -32 -101t-33 -107.5t-28.5 -93t-17.5 -57.5zM11 56q0 42 28 70t71 28q29 0 49.5 -20t20.5 -51q0 -42 -27.5 -69
t-70.5 -27q-30 0 -50.5 19.5t-20.5 49.5z" />
    <glyph glyph-name="quotedbl" unicode="&#x22;" horiz-adv-x="434" 
d="M198 450h-47q0 45 1 91.5t3.5 84.5t6.5 55q7 31 26 48.5t47 17.5q22 0 37 -13.5t15 -36.5q0 -15 -8.5 -44.5t-22.5 -65.5t-29 -72t-29 -65zM367 450h-47q0 45 1 91.5t3.5 84.5t6.5 55q7 31 26 48.5t47 17.5q22 0 37 -13.5t15 -36.5q0 -15 -8.5 -44.5t-22.5 -65.5t-29 -72
t-29 -65z" />
    <glyph glyph-name="numbersign" unicode="#" horiz-adv-x="627" 
d="M14 0l67 166h-78l43 103h76l71 177h-75l43 103h73l67 166h116l-67 -166h125l67 166h117l-67 -166h77l-44 -103h-75l-71 -177h75l-43 -103h-74l-67 -166h-116l67 166h-124l-67 -166h-116zM238 269h124l72 177h-125z" />
    <glyph glyph-name="dollar" unicode="$" horiz-adv-x="656" 
d="M22 129l88 80q25 -38 63.5 -64t87.5 -36l43 203q-96 26 -142 69.5t-46 111.5q0 69 37.5 120.5t99.5 79.5t135 28h8l23 110h66l-25 -116q67 -13 118 -46.5t80 -80.5l-87 -76q-26 35 -58 60t-76 35l-40 -187q99 -27 145.5 -74.5t46.5 -116.5q0 -73 -38 -125.5t-101 -81
t-140 -28.5h-7l-23 -110h-66l25 116q-70 13 -128 46.5t-89 82.5zM247 515q0 -29 19.5 -46.5t68.5 -31.5l37 176q-51 -2 -88 -26t-37 -72zM457 207q0 32 -19.5 52t-70.5 36l-41 -192q57 2 94 27.5t37 76.5z" />
    <glyph glyph-name="percent" unicode="%" horiz-adv-x="792" 
d="M47 0l601 715h134l-600 -715h-135zM74 533q0 49 24 92.5t66 71.5t95 28q40 0 73 -18t53 -50.5t20 -76.5q0 -48 -24 -91.5t-66 -71.5t-95 -28q-39 0 -72.5 18t-53.5 50.5t-20 75.5zM173 546q0 -26 15 -44t42 -18q33 0 54.5 26t21.5 57q0 27 -15.5 45t-41.5 18
q-33 0 -54.5 -26t-21.5 -58zM424 133q0 49 24 92.5t66 71.5t95 28q40 0 73 -18t53 -50.5t20 -76.5q0 -48 -24 -91.5t-66 -71.5t-95 -28q-39 0 -72.5 18t-53.5 50.5t-20 75.5zM523 146q0 -26 15 -44t42 -18q33 0 54.5 26t21.5 57q0 27 -15.5 45t-41.5 18q-33 0 -54.5 -26
t-21.5 -58z" />
    <glyph glyph-name="ampersand" unicode="&#x26;" horiz-adv-x="672" 
d="M542 -16l-77 95q-53 -48 -105.5 -71.5t-113.5 -23.5q-64 0 -114 23.5t-79 65t-29 95.5q0 73 50 128.5t142 94.5q-27 35 -40 67.5t-13 69.5q0 56 28 102t76.5 73.5t110.5 27.5q51 0 93.5 -19.5t68 -55t25.5 -84.5q0 -68 -52 -121t-134 -85l101 -121l96 112l81 -68
l-110 -125l85 -102zM286 531q0 -23 8.5 -46.5t31.5 -53.5q49 17 85.5 49.5t36.5 77.5q0 32 -20 53t-52 21q-37 0 -63.5 -29t-26.5 -72zM162 187q0 -43 27.5 -70t73.5 -27q40 0 73 17t66 50l-134 166q-47 -21 -76.5 -56t-29.5 -80z" />
    <glyph glyph-name="quotesingle" unicode="'" horiz-adv-x="265" 
d="M198 450h-47q0 45 1 91.5t3.5 84.5t6.5 55q7 31 26 48.5t47 17.5q22 0 37 -13.5t15 -36.5q0 -15 -8.5 -44.5t-22.5 -65.5t-29 -72t-29 -65z" />
    <glyph glyph-name="parenleft" unicode="(" horiz-adv-x="355" 
d="M241 -129h-132q-31 69 -45 140t-14 144q0 108 29 211t83 196t128 169h135q-74 -78 -128.5 -171.5t-84 -196.5t-29.5 -211q0 -144 58 -281z" />
    <glyph glyph-name="parenright" unicode=")" horiz-adv-x="354" 
d="M87 -129h-134q73 78 126.5 170.5t83.5 196t30 213.5q0 65 -14 139t-43 141h131q30 -64 44.5 -139.5t14.5 -140.5q0 -168 -64.5 -317.5t-174.5 -262.5z" />
    <glyph glyph-name="asterisk" unicode="*" horiz-adv-x="422" 
d="M229 507q-40 2 -70 5t-44 8q-28 9 -28 35q0 23 17.5 43t41.5 20q11 0 19 -3t17 -8q14 -9 32 -23.5t38 -33.5q-3 41 -3 78q0 17 1.5 30.5t2.5 20.5q5 24 21.5 38.5t38.5 14.5q39 0 39 -38q0 -16 -14.5 -53.5t-40.5 -90.5q32 21 55.5 36t39.5 22q14 6 23.5 8t16.5 2
q17 0 27 -10.5t10 -27.5q0 -21 -14 -37.5t-35 -22.5q-15 -5 -47.5 -8.5t-71.5 -5.5q20 -20 39 -42t28 -36q11 -18 11 -33q0 -22 -18.5 -40.5t-41.5 -18.5t-34 23q-7 14 -14 48.5t-12 70.5q-19 -36 -39.5 -70t-32.5 -49q-20 -23 -48 -23q-18 0 -29.5 11.5t-11.5 27.5
q0 28 21 47q14 14 44 37.5t66 47.5z" />
    <glyph glyph-name="plus" unicode="+" horiz-adv-x="632" 
d="M237 146l33 158h-152l22 107h153l32 158h106l-33 -158h152l-22 -107h-153l-32 -158h-106z" />
    <glyph glyph-name="comma" unicode="," horiz-adv-x="264" 
d="M35 -151h-80q36 36 62.5 71.5t42.5 70.5q-23 7 -36.5 25.5t-13.5 43.5q0 40 27.5 67t66.5 27q33 0 54 -20.5t21 -54.5q0 -33 -18.5 -73.5t-50.5 -81t-75 -75.5z" />
    <glyph glyph-name="hyphen" unicode="-" horiz-adv-x="322" 
d="M23 221l24 113h264l-24 -113h-264z" />
    <glyph glyph-name="period" unicode="." horiz-adv-x="264" 
d="M10 59q0 40 27.5 67.5t67.5 27.5q32 0 53 -20.5t21 -53.5q0 -40 -27 -66.5t-67 -26.5q-33 0 -54 20t-21 52z" />
    <glyph glyph-name="slash" unicode="/" horiz-adv-x="503" 
d="M-1 0l426 732h129l-426 -732h-129z" />
    <glyph glyph-name="zero" unicode="0" horiz-adv-x="621" 
d="M273 -16q-104 0 -161.5 65.5t-57.5 183.5q0 104 26 194.5t72.5 158.5t108 106.5t133.5 38.5q104 0 161.5 -65t57.5 -184q0 -104 -26 -194.5t-72.5 -158.5t-108 -106.5t-133.5 -38.5zM283 94q38 0 72.5 32t62 87t43 125.5t15.5 147.5q0 135 -92 135q-38 0 -73 -32t-62 -87
t-43 -125.5t-16 -147.5q0 -66 24 -100.5t69 -34.5z" />
    <glyph glyph-name="one" unicode="1" horiz-adv-x="505" 
d="M195 0l119 564l-190 -119l30 142l214 128h114l-152 -715h-135z" />
    <glyph glyph-name="two" unicode="2" horiz-adv-x="548" 
d="M-6 0l22 109l291 232q51 42 80.5 74.5t42 60.5t12.5 58q0 38 -26.5 60.5t-71.5 22.5q-90 0 -168 -103l-75 86q111 131 259 131q63 0 110.5 -23t74.5 -64.5t27 -95.5q0 -53 -20 -99.5t-69 -98t-136 -121.5l-148 -120h289l-23 -109h-471z" />
    <glyph glyph-name="three" unicode="3" horiz-adv-x="583" 
d="M-3 121l101 81q26 -51 68 -79t94 -28q58 0 96 35t38 87q0 45 -31 71t-84 26h-58l24 111h55q57 0 95 30.5t38 76.5q0 38 -26.5 62t-68.5 24q-81 0 -156 -85l-67 95q48 50 110 76.5t131 26.5q64 0 112.5 -23t76.5 -63t28 -92q0 -63 -37.5 -110t-103.5 -68q49 -22 75 -62
t26 -92q0 -67 -37 -120.5t-101 -85t-144 -31.5q-82 0 -149 36.5t-105 100.5z" />
    <glyph glyph-name="four" unicode="4" horiz-adv-x="652" 
d="M20 144l23 107l442 464h132l-98 -464h89l-23 -107h-89l-30 -144h-133l31 144h-344zM172 251h214l61 289z" />
    <glyph glyph-name="five" unicode="5" horiz-adv-x="575" 
d="M3 121l101 81q22 -49 62.5 -78t86.5 -29t82 22t57 60t21 85q0 53 -29.5 84t-80.5 31q-72 0 -125 -72h-114l134 410h399l-23 -109h-296l-56 -166q52 46 128 46q57 0 101 -27.5t69.5 -75.5t25.5 -110q0 -82 -39 -147.5t-106 -103.5t-153 -38q-79 0 -144 36.5t-101 100.5z
" />
    <glyph glyph-name="six" unicode="6" horiz-adv-x="627" 
d="M380 479q57 0 102 -26t70.5 -70.5t25.5 -102.5q0 -62 -23 -116t-64 -94.5t-96 -63t-118 -22.5q-67 0 -119.5 28.5t-82 79t-29.5 115.5q0 131 88.5 255.5t273.5 252.5h196q-119 -80 -196.5 -143t-126.5 -121q42 28 99 28zM331 373q-43 0 -78 -22t-55.5 -59t-20.5 -83
q0 -51 31.5 -83t81.5 -32q43 0 77.5 22t55.5 59.5t21 83.5q0 51 -31.5 82.5t-81.5 31.5z" />
    <glyph glyph-name="seven" unicode="7" horiz-adv-x="595" 
d="M27 0l444 606h-339l23 109h486l-23 -108l-436 -607h-155z" />
    <glyph glyph-name="eight" unicode="8" horiz-adv-x="609" 
d="M386 731q63 0 111.5 -21.5t75.5 -59.5t27 -88q0 -62 -40 -112t-103 -73q48 -24 75 -64.5t27 -92.5q0 -66 -38.5 -119.5t-104.5 -85t-148 -31.5q-72 0 -125 24t-82.5 68t-29.5 103q0 68 47 123t124 82q-37 22 -58 56t-21 76q0 60 35.5 108.5t95 77.5t132.5 29zM377 623
q-52 0 -87 -33t-35 -81q0 -39 25 -62t68 -23q51 0 86 33.5t35 81.5q0 38 -25 61t-67 23zM310 316q-40 0 -72.5 -16.5t-51.5 -45t-19 -64.5q0 -44 30.5 -70t82.5 -26q41 0 73 16.5t51 45.5t19 64q0 44 -30 70t-83 26z" />
    <glyph glyph-name="nine" unicode="9" horiz-adv-x="621" 
d="M397 731q64 0 116 -27t83.5 -77t31.5 -119q0 -82 -31.5 -154.5t-84 -136t-117 -117.5t-130.5 -100h-195q123 83 199.5 145.5t123.5 118.5q-42 -28 -99 -28q-54 0 -99 25t-72 69.5t-27 104.5q0 61 22.5 114.5t63 94.5t95.5 64t120 23zM384 621q-43 0 -78 -22.5
t-55.5 -59.5t-20.5 -83t29 -80t84 -34q43 0 78 22t55.5 59.5t20.5 82.5q0 47 -29 81t-84 34z" />
    <glyph glyph-name="colon" unicode=":" horiz-adv-x="264" 
d="M10 59q0 40 27.5 67.5t67.5 27.5q32 0 53 -20.5t21 -53.5q0 -40 -27 -66.5t-67 -26.5q-33 0 -54 20t-21 52zM78 408q0 40 27.5 67.5t67.5 27.5q32 0 53 -20.5t21 -53.5q0 -40 -27 -66.5t-67 -26.5q-33 0 -54 20t-21 52z" />
    <glyph glyph-name="semicolon" unicode=";" horiz-adv-x="264" 
d="M35 -151h-80q36 36 62.5 71.5t42.5 70.5q-23 7 -36.5 25.5t-13.5 43.5q0 40 27.5 67t66.5 27q33 0 54 -20.5t21 -54.5q0 -33 -18.5 -73.5t-50.5 -81t-75 -75.5zM78 408q0 40 27.5 67.5t67.5 27.5q32 0 53 -20.5t21 -53.5q0 -40 -27 -66.5t-67 -26.5q-33 0 -54 20t-21 52z
" />
    <glyph glyph-name="less" unicode="&#x3c;" horiz-adv-x="632" 
d="M119 288l30 142l437 174l-25 -125l-329 -124l277 -124l-26 -117z" />
    <glyph glyph-name="equal" unicode="=" horiz-adv-x="632" 
d="M150 413l23 108h399l-23 -108h-399zM103 193l23 108h399l-23 -108h-399z" />
    <glyph glyph-name="greater" unicode="&#x3e;" horiz-adv-x="632" 
d="M552 430l-30 -142l-437 -174l25 125l329 124l-277 124l26 117z" />
    <glyph glyph-name="question" unicode="?" horiz-adv-x="579" 
d="M315 224h-96q5 53 19.5 89t44 64t80.5 55q39 20 62 47t23 62q0 30 -21.5 53t-67.5 23q-41 0 -85 -25t-86 -78l-75 86q57 67 123 99t140 32q65 0 110.5 -24.5t69.5 -63.5t24 -83q0 -68 -40.5 -119.5t-124.5 -95.5q-50 -26 -71 -52t-29 -69zM157 56q0 43 28 70.5t71 27.5
q29 0 49 -20.5t20 -50.5q0 -42 -27 -69t-70 -27q-31 0 -51 19.5t-20 49.5z" />
    <glyph glyph-name="at" unicode="@" horiz-adv-x="999" 
d="M639 -15l55 -90q-52 -40 -126.5 -64.5t-160.5 -24.5q-100 0 -179 46.5t-124.5 130.5t-45.5 196q0 113 39 213t108.5 176t163.5 119.5t203 43.5q110 0 194 -45.5t131.5 -127.5t47.5 -192q0 -92 -30.5 -165t-83 -115t-119.5 -42q-53 0 -87 24t-45 64q-57 -88 -145 -88
q-73 0 -117 48t-44 130q0 70 30.5 128t81.5 93t111 35q44 0 75.5 -20t45.5 -55l13 62h101l-49 -231q-1 -8 -2.5 -18t-1.5 -21q0 -19 9.5 -34t34.5 -15q30 0 54 29.5t38 80t14 113.5q0 122 -69.5 189t-190.5 67q-84 0 -156.5 -34t-126.5 -94t-84 -138t-30 -166
q0 -86 31 -149.5t88 -98t134 -34.5q57 0 113 19t101 55zM385 230q0 -43 20.5 -68.5t58.5 -25.5q35 0 67.5 28.5t52.5 88.5q3 22 3 36q0 48 -21.5 73t-59.5 25q-33 0 -60.5 -20.5t-44 -55.5t-16.5 -81z" />
    <glyph glyph-name="A" unicode="A" horiz-adv-x="738" 
d="M-24 0l419 715h150l116 -715h-137l-23 157h-290l-89 -157h-146zM275 271h210l-42 296z" />
    <glyph glyph-name="B" unicode="B" horiz-adv-x="667" 
d="M35 0l152 715h256q89 0 141.5 -45t52.5 -122q0 -60 -33.5 -105.5t-91.5 -69.5q45 -22 70.5 -60t25.5 -87q0 -67 -37 -118t-102.5 -79.5t-152.5 -28.5h-281zM416 602h-118l-38 -180h119q54 0 88 28t34 74q0 36 -22.5 57t-62.5 21zM194 113h141q62 0 99.5 30.5t37.5 80.5
q0 87 -95 87h-141z" />
    <glyph glyph-name="C" unicode="C" horiz-adv-x="707" 
d="M591 214l76 -97q-55 -64 -127.5 -98.5t-152.5 -34.5q-97 0 -169 39t-111.5 110.5t-39.5 168.5q0 88 31.5 165.5t87 137t129 93t156.5 33.5q88 0 156.5 -34t111.5 -99l-100 -85q-31 51 -72 75t-99 24q-54 0 -101 -24t-82.5 -67t-55.5 -99t-20 -120q0 -63 24 -107.5t65 -68
t91 -23.5q56 0 108.5 28t93.5 83z" />
    <glyph glyph-name="D" unicode="D" horiz-adv-x="747" 
d="M35 0l152 715h233q92 0 160.5 -35t106 -100t37.5 -156q0 -96 -33 -174t-92.5 -134t-140 -86t-175.5 -30h-248zM194 115h103q83 0 147.5 38t101.5 105.5t37 154.5q0 83 -46 135t-135 52h-105z" />
    <glyph glyph-name="E" unicode="E" horiz-adv-x="600" 
d="M35 0l151 715h467l-25 -114h-331l-38 -182h313l-24 -114h-314l-40 -191h346l-24 -114h-481z" />
    <glyph glyph-name="F" unicode="F" horiz-adv-x="572" 
d="M35 0l151 715h452l-25 -114h-316l-39 -186h298l-24 -114h-298l-64 -301h-135z" />
    <glyph glyph-name="G" unicode="G" horiz-adv-x="759" 
d="M535 0l13 63q-77 -79 -189 -79q-86 0 -152 40t-103 111.5t-37 166.5q0 88 31.5 165.5t88 137t131 93t159.5 33.5q86 0 155 -35t112 -102l-98 -81q-31 50 -73.5 74.5t-98.5 24.5q-57 0 -105 -24t-84 -67t-56 -99t-20 -120q0 -60 22.5 -104.5t63 -69.5t93.5 -25
q55 0 103.5 23.5t83.5 65.5l19 90h-187l23 109h313l-83 -391h-125z" />
    <glyph glyph-name="H" unicode="H" horiz-adv-x="744" 
d="M35 0l151 715h135l-61 -290h298l61 290h135l-151 -715h-135l65 310h-298l-65 -310h-135z" />
    <glyph glyph-name="I" unicode="I" horiz-adv-x="311" 
d="M35 0l151 715h135l-151 -715h-135z" />
    <glyph glyph-name="J" unicode="J" horiz-adv-x="648" 
d="M34 246l132 15q-1 -8 -2 -18.5t-1 -19.5q0 -52 26.5 -85.5t87.5 -33.5q66 0 106.5 45.5t58.5 130.5l92 435h135l-95 -449q-18 -87 -57 -150.5t-102.5 -97.5t-157.5 -34q-59 0 -110.5 24t-83.5 71t-32 115q0 13 0.5 25t2.5 27z" />
    <glyph glyph-name="K" unicode="K" horiz-adv-x="719" 
d="M35 0l151 715h135l-68 -322l344 322h162l-373 -345l256 -370h-159l-238 353l-75 -353h-135z" />
    <glyph glyph-name="L" unicode="L" horiz-adv-x="570" 
d="M35 0l151 715h135l-125 -598h314l-24 -117h-451z" />
    <glyph glyph-name="M" unicode="M" horiz-adv-x="906" 
d="M35 0l151 715h155l103 -485l317 485h155l-151 -715h-132l104 493l-275 -416h-96l-93 427l-107 -504h-131z" />
    <glyph glyph-name="N" unicode="N" horiz-adv-x="756" 
d="M35 0l152 715h140l200 -510l107 510h132l-151 -715h-140l-200 509l-108 -509h-132z" />
    <glyph glyph-name="O" unicode="O" horiz-adv-x="814" 
d="M478 731q96 0 165.5 -38.5t107.5 -107.5t38 -161q0 -84 -30 -162.5t-85 -141t-130 -99.5t-166 -37q-96 0 -165.5 38.5t-107.5 107.5t-38 161q0 84 30 162.5t85 141t130.5 99.5t165.5 37zM470 611q-58 0 -106 -26.5t-83 -70.5t-54.5 -99.5t-19.5 -114.5q0 -88 48.5 -142
t130.5 -54q58 0 106 26.5t83 70.5t54.5 100t19.5 114q0 89 -48.5 142.5t-130.5 53.5z" />
    <glyph glyph-name="P" unicode="P" horiz-adv-x="636" 
d="M35 0l152 715h249q107 0 160 -53.5t53 -136.5q0 -68 -34.5 -124.5t-100 -89.5t-160.5 -33h-125l-59 -278h-135zM415 601h-117l-45 -209h118q68 0 105 34.5t37 90.5q0 36 -23.5 60t-74.5 24z" />
    <glyph glyph-name="Q" unicode="Q" horiz-adv-x="814" 
d="M478 731q96 0 165.5 -38.5t107.5 -107.5t38 -161q0 -91 -36 -177t-100 -149l65 -90l-89 -64l-64 88q-41 -23 -88 -35.5t-99 -12.5q-96 0 -165.5 38.5t-107.5 107.5t-38 161q0 84 30 162.5t85 141t130.5 99.5t165.5 37zM500 310l77 -107q34 44 53 99t19 113
q0 89 -48.5 142.5t-130.5 53.5q-58 0 -106 -26.5t-83 -70.5t-54.5 -99.5t-19.5 -114.5q0 -88 48.5 -142t130.5 -54q29 0 56 7t51 20l-83 115z" />
    <glyph glyph-name="R" unicode="R" horiz-adv-x="696" 
d="M35 0l152 715h246q104 0 160 -51t56 -141q0 -87 -53 -148.5t-141 -84.5l153 -290h-151l-139 278h-89l-59 -278h-135zM415 601h-117l-45 -209h119q65 0 102.5 34t37.5 89q0 40 -24.5 63t-72.5 23z" />
    <glyph glyph-name="S" unicode="S" horiz-adv-x="651" 
d="M10 122l95 82q37 -47 91.5 -75.5t121.5 -28.5q66 0 105 28.5t39 76.5q0 37 -29.5 59t-106.5 41q-112 28 -164.5 73t-52.5 120q0 68 37.5 120.5t101.5 82.5t142 30q97 0 171 -37.5t112 -98.5l-94 -81q-36 50 -84.5 75.5t-111.5 25.5q-58 0 -96 -27t-38 -68q0 -35 29 -55.5
t105 -39.5q114 -28 167 -76t53 -126q0 -72 -38.5 -125.5t-104.5 -83.5t-148 -30q-61 0 -120.5 17t-107 48t-74.5 73z" />
    <glyph glyph-name="T" unicode="T" horiz-adv-x="605" 
d="M183 0l126 599h-203l25 116h541l-25 -116h-203l-126 -599h-135z" />
    <glyph glyph-name="U" unicode="U" horiz-adv-x="723" 
d="M83 282l92 433h135l-92 -433q-3 -15 -5 -32t-2 -30q0 -55 31.5 -85.5t94.5 -30.5q73 0 118.5 47.5t63.5 130.5l91 433h134l-91 -432q-31 -145 -112 -222t-218 -77q-120 0 -184 56.5t-64 161.5q0 19 2 39t6 41z" />
    <glyph glyph-name="V" unicode="V" horiz-adv-x="726" 
d="M242 0l-107 715h142l65 -553l302 553h145l-412 -715h-135z" />
    <glyph glyph-name="W" unicode="W" horiz-adv-x="999" 
d="M172 0l-36 715h139l11 -533l254 533h120l24 -528l229 528h147l-336 -715h-143l-22 511l-244 -511h-143z" />
    <glyph glyph-name="X" unicode="X" horiz-adv-x="721" 
d="M-21 0l328 376l-152 339h150l100 -250l197 250h162l-297 -351l167 -364h-150l-115 271l-222 -271h-168z" />
    <glyph glyph-name="Y" unicode="Y" horiz-adv-x="703" 
d="M231 0l62 291l-163 424h145l108 -303l233 303h155l-344 -425l-61 -290h-135z" />
    <glyph glyph-name="Z" unicode="Z" horiz-adv-x="598" 
d="M-13 0l25 115l438 485h-332l25 115h498l-25 -115l-438 -485h348l-25 -115h-514z" />
    <glyph glyph-name="bracketleft" unicode="[" horiz-adv-x="324" 
d="M-9 -129l182 860h225l-23 -105h-96l-138 -650h97l-22 -105h-225z" />
    <glyph glyph-name="backslash" unicode="\" horiz-adv-x="502" 
d="M398 0h-128l-117 732h128z" />
    <glyph glyph-name="bracketright" unicode="]" horiz-adv-x="324" 
d="M-52 -129l22 105h96l138 650h-96l22 105h224l-182 -860h-224z" />
    <glyph glyph-name="asciicircum" unicode="^" horiz-adv-x="632" 
d="M97 354l241 361h141l89 -361h-123l-55 252l-163 -252h-130z" />
    <glyph glyph-name="underscore" unicode="_" horiz-adv-x="451" 
d="M-87 -150l22 106h455l-23 -106h-454z" />
    <glyph glyph-name="grave" unicode="`" horiz-adv-x="590" 
d="M391 587l-106 174h143l72 -174h-109z" />
    <glyph glyph-name="a" unicode="a" horiz-adv-x="555" 
d="M326 0l15 69q-64 -85 -164 -85q-46 0 -83.5 18.5t-59 53t-21.5 81.5q0 80 69.5 128t195.5 48h107q5 48 -16 76.5t-75 28.5q-38 0 -78 -16t-70 -49l-63 82q41 41 101.5 62.5t124.5 21.5q96 0 148 -46t52 -129q0 -31 -8 -65l-59 -279h-116zM221 81q41 0 77.5 28t61.5 80
l8 40h-94q-62 0 -96 -22t-34 -60q0 -29 20.5 -47.5t56.5 -18.5z" />
    <glyph glyph-name="b" unicode="b" horiz-adv-x="633" 
d="M18 0l151 720h132l-64 -304q31 49 76.5 76t98.5 27q84 0 133.5 -59.5t49.5 -157.5q0 -66 -21.5 -124t-58.5 -101.5t-86 -68t-105 -24.5q-54 0 -95.5 22.5t-63.5 62.5l-15 -69h-132zM190 188l-3 -16q12 -34 44.5 -56t71.5 -22q43 0 78 26t56 70t21 98q0 57 -27 89t-75 32
q-119 0 -166 -221z" />
    <glyph glyph-name="c" unicode="c" horiz-adv-x="535" 
d="M411 165l65 -90q-43 -43 -94.5 -67t-116.5 -24t-116.5 28.5t-81 78.5t-29.5 116q0 63 22 119.5t62 99.5t94 68t118 25t118 -28.5t87 -84.5l-97 -71q-16 32 -42 53t-69 21q-44 0 -79.5 -26.5t-56 -70t-20.5 -95.5q0 -49 27.5 -86t81.5 -37q74 0 127 71z" />
    <glyph glyph-name="d" unicode="d" horiz-adv-x="629" 
d="M380 0l16 80q-32 -47 -74.5 -71.5t-96.5 -24.5q-88 0 -137.5 58.5t-49.5 155.5q0 67 21.5 125t60 102t89 69t109.5 25q56 0 94.5 -24t55.5 -68l62 293h131l-153 -720h-128zM175 213q0 -57 27 -88t75 -31q46 0 85 37t63 101q5 31 5 54q0 59 -26 91t-71 32t-80.5 -27
t-56.5 -71.5t-21 -97.5z" />
    <glyph glyph-name="e" unicode="e" horiz-adv-x="569" 
d="M499 74q-85 -90 -217 -90q-73 0 -128 28.5t-85.5 80t-30.5 119.5q0 65 22.5 121t63 97.5t94.5 65t116 23.5q60 0 105.5 -20t71.5 -56t26 -83q0 -70 -54.5 -109t-152.5 -39h-156q0 -58 32.5 -91t89.5 -33q81 0 140 71zM334 416q-53 0 -91.5 -32.5t-56.5 -87.5h131
q42 0 66 16.5t24 44.5q0 26 -20.5 42.5t-52.5 16.5z" />
    <glyph glyph-name="f" unicode="f" horiz-adv-x="381" 
d="M55 0l84 397h-76l22 106h76l16 75q30 142 163 142h110l-22 -103h-65q-24 0 -37.5 -13t-19.5 -43l-12 -58h109l-23 -106h-109l-84 -397h-132z" />
    <glyph glyph-name="g" unicode="g" horiz-adv-x="621" 
d="M-9 -117l77 87q62 -71 149 -71q132 0 164 147l11 51q-68 -99 -173 -99q-84 0 -136 56t-52 151q0 66 21.5 123t60 100t89.5 67t110 24q57 0 95.5 -25t54.5 -71l17 80h130l-96 -459q-28 -127 -101 -190.5t-195 -63.5q-140 0 -226 93zM170 220q0 -54 26 -83.5t74 -29.5
t89 38t63 109q2 18 2 32q0 124 -99 124q-44 0 -79 -26.5t-55.5 -69.5t-20.5 -94z" />
    <glyph glyph-name="h" unicode="h" horiz-adv-x="590" 
d="M18 0l153 720h132l-64 -300q31 47 74.5 73t93.5 26q62 0 100 -41.5t38 -112.5q0 -19 -2.5 -41t-9.5 -51l-58 -273h-132l58 273q4 21 6.5 39t2.5 28q0 32 -16.5 50.5t-47.5 18.5q-55 0 -93.5 -54.5t-61.5 -160.5l-41 -194h-132z" />
    <glyph glyph-name="i" unicode="i" horiz-adv-x="262" 
d="M139 656q0 38 27 64t67 26q32 0 51 -18.5t19 -48.5q0 -37 -27 -63.5t-67 -26.5q-31 0 -50.5 19t-19.5 48zM14 0l107 503h132l-107 -503h-132z" />
    <glyph glyph-name="j" unicode="j" horiz-adv-x="262" 
d="M140 656q0 38 27 64t67 26q32 0 51 -18.5t19 -48.5q0 -37 -27 -63.5t-67 -26.5q-31 0 -50.5 19t-19.5 48zM-106 -194l23 108h33q27 0 39.5 13t19.5 43l113 533h132l-118 -555q-16 -74 -55.5 -108t-108.5 -34h-78z" />
    <glyph glyph-name="k" unicode="k" horiz-adv-x="572" 
d="M18 0l153 720h132l-92 -434l232 217h157l-267 -244l186 -259h-159l-161 231l-49 -231h-132z" />
    <glyph glyph-name="l" unicode="l" horiz-adv-x="308" 
d="M54 168l117 552h132l-117 -549q-4 -19 -4 -32q0 -30 33 -30h48l-23 -109h-73q-64 0 -93 25t-29 80q0 23 9 63z" />
    <glyph glyph-name="m" unicode="m" horiz-adv-x="873" 
d="M18 0l106 503h131l-16 -74q30 44 71.5 67t84.5 23q53 0 83.5 -31t34.5 -90q32 58 80 89.5t103 31.5q62 0 97 -39.5t35 -111.5q0 -33 -9 -75l-62 -293h-132l63 297q3 14 4 26t1 20q0 31 -14 48.5t-40 17.5q-49 0 -84.5 -49.5t-55.5 -144.5l-46 -215h-132l63 297q6 27 6 46
q0 31 -14.5 48.5t-40.5 17.5q-49 0 -84 -49.5t-55 -144.5l-46 -215h-132z" />
    <glyph glyph-name="n" unicode="n" horiz-adv-x="590" 
d="M18 0l106 503h131l-18 -86q31 49 75.5 75.5t94.5 26.5q62 0 100 -41.5t38 -112.5q0 -19 -3 -41t-9 -51l-58 -273h-132l57 273q5 21 7.5 39t2.5 28q0 32 -17 50.5t-47 18.5q-55 0 -93.5 -54.5t-61.5 -160.5l-41 -194h-132z" />
    <glyph glyph-name="o" unicode="o" horiz-adv-x="601" 
d="M38 212q0 63 22.5 119t62 98t91.5 66t111 24q111 0 174.5 -61t63.5 -167q0 -63 -22.5 -119t-62 -98t-91 -66t-110.5 -24q-111 0 -175 61t-64 167zM277 94q41 0 75 26.5t54 71.5t20 99t-27 86t-74 32q-41 0 -75 -26.5t-54.5 -71t-20.5 -99.5q0 -54 27.5 -86t74.5 -32z" />
    <glyph glyph-name="p" unicode="p" horiz-adv-x="634" 
d="M-23 -194l148 697h131l-18 -86q32 50 77 76t97 26q58 0 99 -27.5t63 -76t22 -111.5q0 -67 -21 -125t-58.5 -102t-86.5 -68.5t-105 -24.5q-54 0 -95.5 22.5t-64.5 62.5l-56 -263h-132zM191 191l-4 -18q13 -34 45.5 -56.5t71.5 -22.5q43 0 78 25.5t56 69.5t21 99
q0 56 -26 89t-77 33q-56 0 -99 -54.5t-66 -164.5z" />
    <glyph glyph-name="q" unicode="q" horiz-adv-x="632" 
d="M338 -194l57 273q-31 -46 -74 -70.5t-97 -24.5q-85 0 -135.5 58t-50.5 159q0 65 21.5 122.5t60 101.5t89.5 69t110 25q56 0 94 -25t55 -70l16 79h131l-148 -697h-129zM175 214q0 -55 26.5 -87.5t74.5 -32.5q46 0 85.5 37t63.5 101q5 33 5 54q0 59 -26 91.5t-73 32.5
q-44 0 -79.5 -27t-56 -71.5t-20.5 -97.5z" />
    <glyph glyph-name="r" unicode="r" horiz-adv-x="399" 
d="M18 0l106 503h131l-20 -95q64 104 167 104h21l-26 -121h-26q-67 0 -111.5 -42.5t-64.5 -134.5l-45 -214h-132z" />
    <glyph glyph-name="s" unicode="s" horiz-adv-x="497" 
d="M-9 84l80 74q21 -32 63 -53.5t95 -21.5q22 0 43 6.5t35 19.5t14 34q0 23 -21 36t-71 24q-85 20 -125.5 57t-40.5 92q0 49 28 86.5t77.5 59t112.5 21.5q67 0 122.5 -25.5t88.5 -70.5l-82 -72q-20 32 -55 51t-79 19q-40 0 -63.5 -15t-23.5 -41q0 -18 19 -30.5t69 -24.5
q89 -21 130.5 -57t41.5 -94q0 -55 -31.5 -94.5t-83 -60t-112.5 -20.5q-44 0 -88.5 11t-81.5 33t-61 56z" />
    <glyph glyph-name="t" unicode="t" horiz-adv-x="383" 
d="M88 174l48 223h-78l22 106h79l28 133h132l-28 -133h106l-23 -106h-106l-47 -219q-4 -20 -4 -34q0 -19 10 -27t35 -8h60l-23 -109h-78q-73 0 -107 26.5t-34 83.5q0 13 2 29t6 35z" />
    <glyph glyph-name="u" unicode="u" horiz-adv-x="584" 
d="M461 0h-131l18 85q-32 -49 -75 -75t-89 -26q-65 0 -102 40t-37 104q0 44 12 102l58 273h132l-58 -273q-9 -45 -9 -68q0 -31 15.5 -49.5t43.5 -18.5q110 0 155 215l41 194h132z" />
    <glyph glyph-name="v" unicode="v" horiz-adv-x="556" 
d="M154 0l-91 503h134l51 -370l204 370h135l-301 -503h-132z" />
    <glyph glyph-name="w" unicode="w" horiz-adv-x="774" 
d="M105 0l-34 503h128l11 -355l174 355h106l26 -357l160 357h129l-249 -503h-130l-29 322l-162 -322h-130z" />
    <glyph glyph-name="x" unicode="x" horiz-adv-x="526" 
d="M-49 0l237 264l-123 239h144l69 -157l129 157h154l-226 -252l131 -251h-143l-78 171l-140 -171h-154z" />
    <glyph glyph-name="y" unicode="y" horiz-adv-x="558" 
d="M-25 -194l23 108h62q29 0 47.5 13.5t33.5 45.5l13 27l-91 503h134l52 -371l204 371h135l-339 -566q-31 -51 -59 -79.5t-63 -40t-87 -11.5h-65z" />
    <glyph glyph-name="z" unicode="z" horiz-adv-x="493" 
d="M-3 0l23 108l297 289h-238l22 106h399l-23 -106l-298 -291h248l-22 -106h-408z" />
    <glyph glyph-name="braceleft" unicode="{" horiz-adv-x="392" 
d="M70 12l38 183q4 16 4 23q0 33 -42 33h-26l22 103h27q27 0 41 13t20 43l38 180q30 141 166 141h93l-23 -103h-48q-28 0 -41.5 -13t-20.5 -43l-31 -141q-22 -99 -91 -128q43 -21 43 -80q0 -20 -6 -52l-30 -139q-3 -16 -3 -25q0 -33 41 -33h49l-22 -103h-93q-111 0 -111 94
q0 22 6 47z" />
    <glyph glyph-name="bar" unicode="|" horiz-adv-x="270" 
d="M-8 -129l182 865h126l-183 -865h-125z" />
    <glyph glyph-name="braceright" unicode="}" horiz-adv-x="392" 
d="M-37 -129l23 103h48q28 0 42 13t20 43l31 145q21 99 91 128q-43 21 -43 80q0 10 1.5 23t5.5 29l29 135q3 17 3 25q0 33 -41 33h-49l22 103h93q111 0 111 -94q0 -21 -6 -47l-38 -180q-2 -9 -2.5 -14t-0.5 -9q0 -33 41 -33h26l-22 -103h-26q-28 0 -42 -12.5t-20 -42.5
l-38 -184q-30 -141 -166 -141h-93z" />
    <glyph glyph-name="asciitilde" unicode="~" horiz-adv-x="626" 
d="M234 465q35 0 58.5 -14t49.5 -40q20 -19 34 -30t30 -11q44 0 88 85l83 -61q-41 -77 -84.5 -112t-97.5 -35q-34 0 -58 14t-50 39q-19 19 -33 30.5t-31 11.5q-45 0 -88 -85l-83 61q41 77 84.5 112t97.5 35z" />
    <glyph glyph-name="uni00A0" unicode="&#xa0;" horiz-adv-x="225" 
 />
    <glyph glyph-name="exclamdown" unicode="&#xa1;" horiz-adv-x="262" 
d="M89 407q0 43 27.5 69.5t70.5 26.5q30 0 50.5 -19.5t20.5 -48.5q0 -42 -27.5 -70t-71.5 -28q-29 0 -49.5 20t-20.5 50zM107 265h70q-1 -13 -5 -49t-10 -83.5t-12 -97t-11 -92t-8 -67.5q-4 -39 -10.5 -59.5t-19.5 -34.5q-24 -22 -61 -22q-31 0 -48.5 16t-17.5 45
q0 14 7.5 38t14.5 48q15 46 32 101t33 107.5t28.5 92.5t17.5 57z" />
    <glyph glyph-name="cent" unicode="&#xa2;" horiz-adv-x="625" 
d="M232 -116l22 104q-81 16 -130 75t-49 144q0 65 22.5 120.5t62 98t93 67t115.5 26.5l21 100h66l-23 -106q50 -10 90 -37.5t64 -69.5l-96 -71q-28 57 -81 69l-66 -310q69 7 116 71l64 -90q-86 -88 -204 -92l-21 -99h-66zM212 217q0 -42 17.5 -72t49.5 -43l64 303
q-57 -13 -94 -64.5t-37 -123.5z" />
    <glyph glyph-name="sterling" unicode="&#xa3;" horiz-adv-x="630" 
d="M7 0l23 110h80l40 191h-71l22 103h71l17 81q25 115 95.5 180.5t181.5 65.5q68 0 119.5 -31t75.5 -90l-100 -74q-18 43 -44.5 62t-64.5 19q-54 0 -85 -33t-45 -97l-18 -83h198l-22 -103h-198l-40 -191h308l-23 -110h-520z" />
    <glyph glyph-name="currency" unicode="&#xa4;" horiz-adv-x="586" 
d="M76 114l-52 66l89 73q-17 35 -17 77q0 46 19.5 91t55.5 83l-58 72l67 55l60 -75q29 17 61.5 26t63.5 9q62 0 106 -30l92 75l53 -65l-90 -74q17 -35 17 -76q0 -46 -19.5 -91t-55.5 -83l58 -72l-67 -55l-60 74q-59 -34 -125 -34q-30 0 -57.5 7.5t-48.5 22.5zM294 255
q37 0 69 21t52 55.5t20 73.5q0 41 -24.5 66t-65.5 25q-37 0 -69 -21t-52 -55t-20 -74q0 -41 25 -66t65 -25z" />
    <glyph glyph-name="yen" unicode="&#xa5;" horiz-adv-x="632" 
d="M64 128l20 92h159l13 63h-159l19 92h122l-118 340h145l88 -290l208 290h147l-261 -340h121l-20 -92h-159l-13 -63h159l-20 -92h-159l-27 -128h-133l27 128h-159z" />
    <glyph glyph-name="brokenbar" unicode="&#xa6;" horiz-adv-x="270" 
d="M101 389l73 347h126l-73 -347h-126zM-8 -129l73 346h125l-73 -346h-125z" />
    <glyph glyph-name="section" unicode="&#xa7;" horiz-adv-x="520" 
d="M-16 -33l76 69q23 -32 60 -50.5t83 -18.5q50 0 80.5 22.5t30.5 60.5q0 27 -20.5 43.5t-69.5 27.5q-91 20 -133.5 56.5t-42.5 92.5q0 49 31 88t92 72q-43 37 -43 104q0 56 30.5 100.5t83 70.5t118.5 26q132 0 190 -94l-77 -69q-49 69 -128 69q-43 0 -72 -22t-29 -57
q0 -28 20.5 -45.5t68.5 -28.5q174 -40 174 -145q0 -49 -32 -92.5t-91 -72.5q45 -39 45 -105q0 -57 -31 -101.5t-84.5 -70t-122.5 -25.5q-68 0 -123 25.5t-84 69.5zM271 222l27 -8q41 13 65.5 38.5t24.5 53.5q0 26 -24 44t-82 33l-25 7q-41 -12 -66 -38.5t-25 -54.5
q0 -26 23 -43t82 -32z" />
    <glyph glyph-name="dieresis" unicode="&#xa8;" horiz-adv-x="590" 
d="M260 592q-28 0 -45.5 17t-17.5 43q0 38 26.5 64.5t67.5 26.5q28 0 45 -16.5t17 -42.5q0 -39 -26 -65.5t-67 -26.5zM476 592q-28 0 -45 17t-17 43q0 38 26.5 64.5t67.5 26.5q28 0 44.5 -16.5t16.5 -42.5q0 -39 -26 -65.5t-67 -26.5z" />
    <glyph glyph-name="copyright" unicode="&#xa9;" horiz-adv-x="832" 
d="M436 -26q-78 0 -145.5 29.5t-119 82t-80 122.5t-28.5 150t28.5 150t80 122.5t119 82t145.5 29.5t145.5 -29.5t119 -82t80 -122.5t28.5 -150t-28.5 -150t-80 -122.5t-119 -82t-145.5 -29.5zM436 56q60 0 113 23t92.5 64.5t62 96.5t22.5 118t-22.5 118t-62 96.5t-92.5 64.5
t-113 23t-113 -23t-92.5 -64.5t-62 -96.5t-22.5 -118t22.5 -118t62 -96.5t92.5 -64.5t113 -23zM537 286l63 -65q-25 -34 -66.5 -55t-94.5 -21q-59 0 -105 27.5t-72 76t-26 110.5t26.5 110t73 75.5t105.5 27.5q53 0 93.5 -21t65.5 -55l-63 -64q-16 25 -39.5 39.5t-51.5 14.5
q-46 0 -74.5 -35.5t-28.5 -91.5t28.5 -92t74.5 -36q28 0 51.5 15t39.5 40z" />
    <glyph glyph-name="ordfeminine" unicode="&#xaa;" horiz-adv-x="434" 
d="M305 307l12 58q-49 -71 -125 -71q-55 0 -92 32.5t-37 87.5q0 65 54.5 102.5t153.5 37.5h79q5 33 -10.5 54.5t-56.5 21.5q-31 0 -61.5 -13.5t-52.5 -36.5l-52 69q30 30 78.5 48t102.5 18q78 0 120.5 -36.5t42.5 -104.5q0 -24 -6 -53l-46 -214h-104zM232 378q57 0 96 66
l8 39h-64q-41 0 -64.5 -16.5t-23.5 -44.5q0 -19 12.5 -31.5t35.5 -12.5z" />
    <glyph glyph-name="guillemotleft" unicode="&#xab;" horiz-adv-x="566" 
d="M116 33l-93 219l186 218h147l-190 -218l97 -219h-147zM344 33l-93 219l186 218h147l-190 -218l97 -219h-147z" />
    <glyph glyph-name="logicalnot" unicode="&#xac;" horiz-adv-x="632" 
d="M118 305l23 106h418l-55 -257h-106l33 151h-313z" />
    <glyph glyph-name="uni00AD" unicode="&#xad;" horiz-adv-x="322" 
d="M23 221l24 113h264l-24 -113h-264z" />
    <glyph glyph-name="registered" unicode="&#xae;" horiz-adv-x="515" 
d="M304 251q-63 0 -114.5 32t-82 86t-30.5 119q0 66 30.5 119.5t82 85.5t114.5 32t114.5 -32t82.5 -85.5t31 -119.5q0 -65 -31 -119t-82.5 -86t-114.5 -32zM304 318q46 0 81.5 21.5t56.5 60t21 88.5q0 51 -21 89t-56.5 59.5t-81.5 21.5q-45 0 -80.5 -21.5t-56.5 -59.5
t-21 -89q0 -50 21 -88.5t56.5 -60t80.5 -21.5zM220 384v220h91q37 0 59.5 -20.5t22.5 -53.5q0 -25 -13.5 -43t-36.5 -26l66 -77h-62l-58 72h-18v-72h-51zM311 559h-40v-58h40q13 0 21.5 8t8.5 21t-8.5 21t-21.5 8z" />
    <glyph glyph-name="macron" unicode="&#xaf;" horiz-adv-x="590" 
d="M224 603l20 92h292l-19 -92h-293z" />
    <glyph glyph-name="degree" unicode="&#xb0;" horiz-adv-x="468" 
d="M272 370q-45 0 -81 20.5t-56.5 56.5t-20.5 81q0 57 28 103t75.5 73t106.5 27q46 0 81.5 -20.5t56 -56t20.5 -81.5q0 -57 -28 -103t-75.5 -73t-106.5 -27zM283 462q41 0 69 29.5t28 72.5q0 33 -18.5 54.5t-49.5 21.5q-40 0 -68 -30t-28 -73q0 -33 18.5 -54t48.5 -21z" />
    <glyph glyph-name="plusminus" unicode="&#xb1;" horiz-adv-x="632" 
d="M245 171l33 158h-152l22 107h153l32 158h106l-33 -158h152l-22 -107h-153l-32 -158h-106zM54 0l23 107h418l-24 -107h-417z" />
    <glyph glyph-name="uni00B2" unicode="&#xb2;" horiz-adv-x="366" 
d="M65 404l15 71l175 136q26 20 43 41t17 46q0 19 -12.5 31t-35.5 12q-49 0 -96 -57l-47 66q74 71 164 71q53 0 90 -30.5t37 -80.5q0 -53 -37 -96.5t-97 -84.5l-64 -49h156l-17 -76h-291z" />
    <glyph glyph-name="uni00B3" unicode="&#xb3;" horiz-adv-x="370" 
d="M66 478l63 53q29 -57 89 -57q32 0 54 16t22 44q0 19 -14.5 31t-43.5 12h-40l16 76h41q26 0 46.5 13t20.5 37q0 19 -15.5 29t-41.5 10q-23 0 -45.5 -10.5t-44.5 -33.5l-41 63q30 29 70.5 44.5t81.5 15.5q34 0 64 -11.5t49 -34.5t19 -56q0 -38 -22.5 -64t-58.5 -38
q58 -24 58 -83q0 -40 -23.5 -71.5t-62.5 -49.5t-87 -18q-45 0 -86.5 20t-67.5 63z" />
    <glyph glyph-name="acute" unicode="&#xb4;" horiz-adv-x="590" 
d="M225 587l143 174h150l-181 -174h-112z" />
    <glyph glyph-name="micro" unicode="&#xb5;" horiz-adv-x="632" 
d="M-6 -194l148 697h132l-58 -273q-9 -45 -9 -68q0 -31 15.5 -49.5t43.5 -18.5q110 0 155 215l41 194h132l-106 -503h-131l17 79q-30 -46 -69 -70.5t-79 -24.5q-36 0 -59 15l-41 -193h-132z" />
    <glyph glyph-name="paragraph" unicode="&#xb6;" horiz-adv-x="602" 
d="M129 -130l83 395q-68 11 -107 56.5t-39 112.5q0 58 22.5 108.5t62.5 89.5t94.5 61t118.5 22h277l-179 -845h-122l154 732h-88l-155 -732h-122z" />
    <glyph glyph-name="periodcentered" unicode="&#xb7;" horiz-adv-x="252" 
d="M50 279q0 40 27.5 67.5t67.5 27.5q32 0 53 -20.5t21 -53.5q0 -40 -27 -66.5t-67 -26.5q-33 0 -54 20t-21 52z" />
    <glyph glyph-name="cedilla" unicode="&#xb8;" horiz-adv-x="590" 
d="M64 -222l51 62q29 -25 66 -25q24 0 39 12t15 31q0 33 -49 33q-13 0 -24.5 -1t-21.5 -4l61 124h71l-28 -56q39 -7 60 -29.5t21 -53.5q0 -57 -42 -94.5t-115 -37.5q-34 0 -59 9t-45 30z" />
    <glyph glyph-name="uni00B9" unicode="&#xb9;" horiz-adv-x="352" 
d="M194 404l66 310l-111 -67l20 94l133 74h81l-87 -411h-102z" />
    <glyph glyph-name="ordmasculine" unicode="&#xba;" horiz-adv-x="473" 
d="M264 294q-51 0 -92.5 20t-66 59.5t-24.5 97.5q0 64 30 119.5t83 90t122 34.5q51 0 92.5 -20t66 -59t24.5 -97q0 -64 -30 -120t-83 -90.5t-122 -34.5zM270 390q34 0 57.5 22t36 55t12.5 65q0 31 -15 59t-51 28q-33 0 -57 -22t-36.5 -54.5t-12.5 -65.5q0 -31 15 -59t51 -28
z" />
    <glyph glyph-name="guillemotright" unicode="&#xbb;" horiz-adv-x="566" 
d="M-19 33l191 219l-98 218h147l94 -218l-187 -219h-147zM209 33l191 219l-98 218h147l94 -218l-187 -219h-147z" />
    <glyph glyph-name="onequarter" unicode="&#xbc;" horiz-adv-x="927" 
d="M128 0l601 715h134l-600 -715h-135zM695 0l17 78h-195l16 76l249 254h97l-54 -254h51l-16 -76h-51l-17 -78h-97zM624 154h104l31 146zM173 304l66 310l-111 -67l20 94l133 74h81l-87 -411h-102z" />
    <glyph glyph-name="onehalf" unicode="&#xbd;" horiz-adv-x="949" 
d="M108 0l601 715h134l-600 -715h-135zM564 0l15 71l175 136q26 20 43 41t17 46q0 19 -12.5 31t-35.5 12q-49 0 -96 -57l-47 66q74 71 164 71q53 0 90 -30.5t37 -80.5q0 -53 -37 -96.5t-97 -84.5l-64 -49h156l-17 -76h-291zM173 304l66 310l-111 -67l20 94l133 74h81
l-87 -411h-102z" />
    <glyph glyph-name="threequarters" unicode="&#xbe;" horiz-adv-x="959" 
d="M155 0l601 715h134l-600 -715h-135zM727 0l17 78h-195l16 76l249 254h97l-54 -254h51l-16 -76h-51l-17 -78h-97zM656 154h104l31 146zM45 378l63 53q29 -57 89 -57q32 0 54 16t22 44q0 19 -14.5 31t-43.5 12h-40l16 76h41q26 0 46.5 13t20.5 37q0 19 -15.5 29t-41.5 10
q-23 0 -45.5 -10.5t-44.5 -33.5l-41 63q30 29 70.5 44.5t81.5 15.5q34 0 64 -11.5t49 -34.5t19 -56q0 -38 -22.5 -64t-58.5 -38q58 -24 58 -83q0 -40 -23.5 -71.5t-62.5 -49.5t-87 -18q-45 0 -86.5 20t-67.5 63z" />
    <glyph glyph-name="questiondown" unicode="&#xbf;" horiz-adv-x="579" 
d="M267 407q0 43 27.5 69.5t69.5 26.5q31 0 51.5 -19.5t20.5 -48.5q0 -43 -28 -70.5t-71 -27.5q-30 0 -50 20t-20 50zM404 -23l76 -87q-58 -67 -123.5 -98.5t-139.5 -31.5q-65 0 -111 24.5t-70 63.5t-24 82q0 69 40.5 120t124.5 95q50 27 71 52.5t29 68.5h96
q-5 -53 -19.5 -89t-43.5 -63t-80 -55q-38 -20 -61 -46.5t-23 -62.5q0 -30 21.5 -53.5t65.5 -23.5q41 0 85.5 25.5t85.5 78.5z" />
    <glyph glyph-name="Agrave" unicode="&#xc0;" horiz-adv-x="738" 
d="M-24 0l419 715h150l116 -715h-137l-23 157h-290l-89 -157h-146zM275 271h210l-42 296zM407 793l-131 144h158l98 -144h-125z" />
    <glyph glyph-name="Aacute" unicode="&#xc1;" horiz-adv-x="738" 
d="M-24 0l419 715h150l116 -715h-137l-23 157h-290l-89 -157h-146zM275 271h210l-42 296zM390 785l141 144h162l-175 -144h-128z" />
    <glyph glyph-name="Acircumflex" unicode="&#xc2;" horiz-adv-x="738" 
d="M-24 0l419 715h150l116 -715h-137l-23 157h-290l-89 -157h-146zM275 271h210l-42 296zM278 799l158 144h140l97 -144h-122l-59 73l-90 -73h-124z" />
    <glyph glyph-name="Atilde" unicode="&#xc3;" horiz-adv-x="738" 
d="M-24 0l419 715h150l116 -715h-137l-23 157h-290l-89 -157h-146zM275 271h210l-42 296zM410 931q26 0 49 -11t45 -31q11 -10 18.5 -16t17.5 -6q25 0 49 59l77 -38q-19 -53 -56.5 -81t-81.5 -28q-50 0 -95 43q-10 10 -17.5 15.5t-18.5 5.5q-25 0 -49 -59l-77 38
q20 53 57 81t82 28z" />
    <glyph glyph-name="Adieresis" unicode="&#xc4;" horiz-adv-x="738" 
d="M-24 0l419 715h150l116 -715h-137l-23 157h-290l-89 -157h-146zM275 271h210l-42 296zM365 790q-28 0 -45.5 17t-17.5 43q0 38 27 64.5t69 26.5q27 0 44 -16.5t17 -42.5q0 -39 -26.5 -65.5t-67.5 -26.5zM586 790q-28 0 -45.5 17t-17.5 43q0 38 27 64.5t68 26.5
q28 0 45 -16.5t17 -42.5q0 -39 -26.5 -65.5t-67.5 -26.5z" />
    <glyph glyph-name="Aring" unicode="&#xc5;" horiz-adv-x="738" 
d="M-24 0l419 715h150l116 -715h-137l-23 157h-290l-89 -157h-146zM275 271h210l-42 296zM520 989q43 0 70.5 -27t27.5 -70q0 -41 -20.5 -75.5t-54.5 -54.5t-76 -20q-43 0 -70.5 27t-27.5 70q0 42 20 76t54.5 54t76.5 20zM505 920q-28 0 -45 -19t-17 -48q0 -19 10.5 -30.5
t28.5 -11.5q26 0 44 19.5t18 47.5q0 19 -11 30.5t-28 11.5z" />
    <glyph glyph-name="AE" unicode="&#xc6;" horiz-adv-x="1023" 
d="M-27 0l572 715h531l-24 -114h-331l-38 -182h313l-24 -114h-314l-40 -191h346l-25 -114h-480l33 156h-243l-121 -156h-155zM338 271h178l67 315z" />
    <glyph glyph-name="Ccedilla" unicode="&#xc7;" horiz-adv-x="707" 
d="M591 214l76 -97q-55 -64 -127.5 -98.5t-152.5 -34.5q-97 0 -169 39t-111.5 110.5t-39.5 168.5q0 88 31.5 165.5t87 137t129 93t156.5 33.5q88 0 156.5 -34t111.5 -99l-100 -85q-31 51 -72 75t-99 24q-54 0 -101 -24t-82.5 -67t-55.5 -99t-20 -120q0 -63 24 -107.5t65 -68
t91 -23.5q56 0 108.5 28t93.5 83zM212 -222l53 63q25 -25 65 -25q26 0 42 11.5t16 30.5q0 31 -49 31q-16 0 -46 -5l58 126h72l-25 -55q39 -7 61 -30t22 -57q0 -37 -20.5 -66t-56.5 -46t-81 -17q-72 0 -111 39z" />
    <glyph glyph-name="Egrave" unicode="&#xc8;" horiz-adv-x="600" 
d="M35 0l151 715h467l-25 -114h-331l-38 -182h313l-24 -114h-314l-40 -191h346l-24 -114h-481zM370 793l-131 144h158l98 -144h-125z" />
    <glyph glyph-name="Eacute" unicode="&#xc9;" horiz-adv-x="600" 
d="M35 0l151 715h467l-25 -114h-331l-38 -182h313l-24 -114h-314l-40 -191h346l-24 -114h-481zM353 785l141 144h162l-175 -144h-128z" />
    <glyph glyph-name="Ecircumflex" unicode="&#xca;" horiz-adv-x="600" 
d="M35 0l151 715h467l-25 -114h-331l-38 -182h313l-24 -114h-314l-40 -191h346l-24 -114h-481zM241 799l158 144h140l97 -144h-122l-59 73l-90 -73h-124z" />
    <glyph glyph-name="Edieresis" unicode="&#xcb;" horiz-adv-x="600" 
d="M35 0l151 715h467l-25 -114h-331l-38 -182h313l-24 -114h-314l-40 -191h346l-24 -114h-481zM328 790q-28 0 -45.5 17t-17.5 43q0 38 27 64.5t69 26.5q27 0 44 -16.5t17 -42.5q0 -39 -26.5 -65.5t-67.5 -26.5zM549 790q-28 0 -45.5 17t-17.5 43q0 38 27 64.5t68 26.5
q28 0 45 -16.5t17 -42.5q0 -39 -26.5 -65.5t-67.5 -26.5z" />
    <glyph glyph-name="Igrave" unicode="&#xcc;" horiz-adv-x="311" 
d="M35 0l151 715h135l-151 -715h-135zM207 793l-131 144h158l98 -144h-125z" />
    <glyph glyph-name="Iacute" unicode="&#xcd;" horiz-adv-x="311" 
d="M35 0l151 715h135l-151 -715h-135zM190 785l141 144h162l-175 -144h-128z" />
    <glyph glyph-name="Icircumflex" unicode="&#xce;" horiz-adv-x="311" 
d="M35 0l151 715h135l-151 -715h-135zM78 799l158 144h140l97 -144h-122l-59 73l-90 -73h-124z" />
    <glyph glyph-name="Idieresis" unicode="&#xcf;" horiz-adv-x="311" 
d="M35 0l151 715h135l-151 -715h-135zM165 790q-28 0 -45.5 17t-17.5 43q0 38 27 64.5t69 26.5q27 0 44 -16.5t17 -42.5q0 -39 -26.5 -65.5t-67.5 -26.5zM386 790q-28 0 -45.5 17t-17.5 43q0 38 27 64.5t68 26.5q28 0 45 -16.5t17 -42.5q0 -39 -26.5 -65.5t-67.5 -26.5z" />
    <glyph glyph-name="Eth" unicode="&#xd0;" horiz-adv-x="747" 
d="M35 0l64 305h-54l24 114h54l63 296h234q92 0 160.5 -35t106 -100t37.5 -156q0 -96 -33 -174t-92.5 -134t-140 -86t-175.5 -30h-248zM194 115h103q83 0 147.5 38t101 105.5t36.5 154.5q0 83 -45.5 135t-134.5 52h-104l-39 -181h141l-25 -114h-140z" />
    <glyph glyph-name="Ntilde" unicode="&#xd1;" horiz-adv-x="756" 
d="M35 0l152 715h140l200 -510l107 510h132l-151 -715h-140l-200 509l-108 -509h-132zM414 931q26 0 49 -11t45 -31q11 -10 18.5 -16t17.5 -6q25 0 49 59l77 -38q-19 -53 -56.5 -81t-81.5 -28q-50 0 -95 43q-10 10 -17.5 15.5t-18.5 5.5q-25 0 -49 -59l-77 38q20 53 57 81
t82 28z" />
    <glyph glyph-name="Ograve" unicode="&#xd2;" horiz-adv-x="814" 
d="M478 731q96 0 165.5 -38.5t107.5 -107.5t38 -161q0 -84 -30 -162.5t-85 -141t-130 -99.5t-166 -37q-96 0 -165.5 38.5t-107.5 107.5t-38 161q0 84 30 162.5t85 141t130.5 99.5t165.5 37zM470 611q-58 0 -106 -26.5t-83 -70.5t-54.5 -99.5t-19.5 -114.5q0 -88 48.5 -142
t130.5 -54q58 0 106 26.5t83 70.5t54.5 100t19.5 114q0 89 -48.5 142.5t-130.5 53.5zM427 793l-131 144h158l98 -144h-125z" />
    <glyph glyph-name="Oacute" unicode="&#xd3;" horiz-adv-x="814" 
d="M478 731q96 0 165.5 -38.5t107.5 -107.5t38 -161q0 -84 -30 -162.5t-85 -141t-130 -99.5t-166 -37q-96 0 -165.5 38.5t-107.5 107.5t-38 161q0 84 30 162.5t85 141t130.5 99.5t165.5 37zM470 611q-58 0 -106 -26.5t-83 -70.5t-54.5 -99.5t-19.5 -114.5q0 -88 48.5 -142
t130.5 -54q58 0 106 26.5t83 70.5t54.5 100t19.5 114q0 89 -48.5 142.5t-130.5 53.5zM410 785l141 144h162l-175 -144h-128z" />
    <glyph glyph-name="Ocircumflex" unicode="&#xd4;" horiz-adv-x="814" 
d="M478 731q96 0 165.5 -38.5t107.5 -107.5t38 -161q0 -84 -30 -162.5t-85 -141t-130 -99.5t-166 -37q-96 0 -165.5 38.5t-107.5 107.5t-38 161q0 84 30 162.5t85 141t130.5 99.5t165.5 37zM470 611q-58 0 -106 -26.5t-83 -70.5t-54.5 -99.5t-19.5 -114.5q0 -88 48.5 -142
t130.5 -54q58 0 106 26.5t83 70.5t54.5 100t19.5 114q0 89 -48.5 142.5t-130.5 53.5zM298 799l158 144h140l97 -144h-122l-59 73l-90 -73h-124z" />
    <glyph glyph-name="Otilde" unicode="&#xd5;" horiz-adv-x="814" 
d="M478 731q96 0 165.5 -38.5t107.5 -107.5t38 -161q0 -84 -30 -162.5t-85 -141t-130 -99.5t-166 -37q-96 0 -165.5 38.5t-107.5 107.5t-38 161q0 84 30 162.5t85 141t130.5 99.5t165.5 37zM470 611q-58 0 -106 -26.5t-83 -70.5t-54.5 -99.5t-19.5 -114.5q0 -88 48.5 -142
t130.5 -54q58 0 106 26.5t83 70.5t54.5 100t19.5 114q0 89 -48.5 142.5t-130.5 53.5zM430 931q26 0 49 -11t45 -31q11 -10 18.5 -16t17.5 -6q25 0 49 59l77 -38q-19 -53 -56.5 -81t-81.5 -28q-50 0 -95 43q-10 10 -17.5 15.5t-18.5 5.5q-25 0 -49 -59l-77 38q20 53 57 81
t82 28z" />
    <glyph glyph-name="Odieresis" unicode="&#xd6;" horiz-adv-x="814" 
d="M478 731q96 0 165.5 -38.5t107.5 -107.5t38 -161q0 -84 -30 -162.5t-85 -141t-130 -99.5t-166 -37q-96 0 -165.5 38.5t-107.5 107.5t-38 161q0 84 30 162.5t85 141t130.5 99.5t165.5 37zM470 611q-58 0 -106 -26.5t-83 -70.5t-54.5 -99.5t-19.5 -114.5q0 -88 48.5 -142
t130.5 -54q58 0 106 26.5t83 70.5t54.5 100t19.5 114q0 89 -48.5 142.5t-130.5 53.5zM385 790q-28 0 -45.5 17t-17.5 43q0 38 27 64.5t69 26.5q27 0 44 -16.5t17 -42.5q0 -39 -26.5 -65.5t-67.5 -26.5zM606 790q-28 0 -45.5 17t-17.5 43q0 38 27 64.5t68 26.5q28 0 45 -16.5
t17 -42.5q0 -39 -26.5 -65.5t-67.5 -26.5z" />
    <glyph glyph-name="multiply" unicode="&#xd7;" horiz-adv-x="634" 
d="M185 152l-65 80l146 129l-91 125l89 73l89 -122l141 125l65 -80l-145 -128l91 -126l-89 -72l-89 122z" />
    <glyph glyph-name="Oslash" unicode="&#xd8;" horiz-adv-x="817" 
d="M62 -31l-66 83l107 92q-31 65 -31 147q0 83 30 161.5t84.5 141.5t129.5 100t165 37q67 0 121.5 -19t94.5 -54l103 89l66 -84l-104 -90q31 -65 31 -147q0 -84 -29.5 -163t-84 -142t-130 -100t-167.5 -37q-67 0 -121.5 19.5t-94.5 55.5zM212 300q0 -30 5 -57l378 327
q-46 41 -120 41q-58 0 -106 -26.5t-83 -70.5t-54.5 -99.5t-19.5 -114.5zM391 104q57 0 105 26t83 70.5t54.5 100t19.5 113.5q0 32 -6 60l-379 -327q46 -43 123 -43z" />
    <glyph glyph-name="Ugrave" unicode="&#xd9;" horiz-adv-x="723" 
d="M83 282l92 433h135l-92 -433q-3 -15 -5 -32t-2 -30q0 -55 31.5 -85.5t94.5 -30.5q73 0 118.5 47.5t63.5 130.5l91 433h134l-91 -432q-31 -145 -112 -222t-218 -77q-120 0 -184 56.5t-64 161.5q0 19 2 39t6 41zM412 793l-131 144h158l98 -144h-125z" />
    <glyph glyph-name="Uacute" unicode="&#xda;" horiz-adv-x="723" 
d="M83 282l92 433h135l-92 -433q-3 -15 -5 -32t-2 -30q0 -55 31.5 -85.5t94.5 -30.5q73 0 118.5 47.5t63.5 130.5l91 433h134l-91 -432q-31 -145 -112 -222t-218 -77q-120 0 -184 56.5t-64 161.5q0 19 2 39t6 41zM395 785l141 144h162l-175 -144h-128z" />
    <glyph glyph-name="Ucircumflex" unicode="&#xdb;" horiz-adv-x="723" 
d="M83 282l92 433h135l-92 -433q-3 -15 -5 -32t-2 -30q0 -55 31.5 -85.5t94.5 -30.5q73 0 118.5 47.5t63.5 130.5l91 433h134l-91 -432q-31 -145 -112 -222t-218 -77q-120 0 -184 56.5t-64 161.5q0 19 2 39t6 41zM283 799l158 144h140l97 -144h-122l-59 73l-90 -73h-124z
" />
    <glyph glyph-name="Udieresis" unicode="&#xdc;" horiz-adv-x="723" 
d="M83 282l92 433h135l-92 -433q-3 -15 -5 -32t-2 -30q0 -55 31.5 -85.5t94.5 -30.5q73 0 118.5 47.5t63.5 130.5l91 433h134l-91 -432q-31 -145 -112 -222t-218 -77q-120 0 -184 56.5t-64 161.5q0 19 2 39t6 41zM370 790q-28 0 -45.5 17t-17.5 43q0 38 27 64.5t69 26.5
q27 0 44 -16.5t17 -42.5q0 -39 -26.5 -65.5t-67.5 -26.5zM591 790q-28 0 -45.5 17t-17.5 43q0 38 27 64.5t68 26.5q28 0 45 -16.5t17 -42.5q0 -39 -26.5 -65.5t-67.5 -26.5z" />
    <glyph glyph-name="Yacute" unicode="&#xdd;" horiz-adv-x="703" 
d="M231 0l62 291l-163 424h145l108 -303l233 303h155l-344 -425l-61 -290h-135zM376 785l141 144h162l-175 -144h-128z" />
    <glyph glyph-name="Thorn" unicode="&#xde;" horiz-adv-x="644" 
d="M35 0l152 715h135l-30 -140h114q107 0 160.5 -53.5t53.5 -136.5q0 -71 -35.5 -127t-101.5 -88t-158 -32h-126l-29 -138h-135zM386 461h-118l-44 -209h119q69 0 105 35t36 90q0 38 -24.5 61t-73.5 23z" />
    <glyph glyph-name="germandbls" unicode="&#xdf;" horiz-adv-x="628" 
d="M14 0l99 467q26 124 101.5 194t188.5 70q90 0 143 -43t53 -117q0 -59 -32.5 -107.5t-86.5 -77.5q48 -22 74.5 -63t26.5 -95q0 -69 -31.5 -124.5t-86 -87.5t-123.5 -32q-87 0 -144 50l66 89q33 -33 77 -33q46 0 76.5 36.5t30.5 90.5q0 46 -29 73.5t-76 27.5h-42l23 108h21
q33 0 60 17t43.5 45t16.5 62q0 74 -76 74q-55 0 -89.5 -41t-52.5 -128l-97 -455h-134z" />
    <glyph glyph-name="agrave" unicode="&#xe0;" horiz-adv-x="555" 
d="M326 0l15 69q-64 -85 -164 -85q-46 0 -83.5 18.5t-59 53t-21.5 81.5q0 80 69.5 128t195.5 48h107q5 48 -16 76.5t-75 28.5q-38 0 -78 -16t-70 -49l-63 82q41 41 101.5 62.5t124.5 21.5q96 0 148 -46t52 -129q0 -31 -8 -65l-59 -279h-116zM221 81q41 0 77.5 28t61.5 80
l8 40h-94q-62 0 -96 -22t-34 -60q0 -29 20.5 -47.5t56.5 -18.5zM267 587l-106 174h143l72 -174h-109z" />
    <glyph glyph-name="aacute" unicode="&#xe1;" horiz-adv-x="555" 
d="M326 0l15 69q-64 -85 -164 -85q-46 0 -83.5 18.5t-59 53t-21.5 81.5q0 80 69.5 128t195.5 48h107q5 48 -16 76.5t-75 28.5q-38 0 -78 -16t-70 -49l-63 82q41 41 101.5 62.5t124.5 21.5q96 0 148 -46t52 -129q0 -31 -8 -65l-59 -279h-116zM221 81q41 0 77.5 28t61.5 80
l8 40h-94q-62 0 -96 -22t-34 -60q0 -29 20.5 -47.5t56.5 -18.5zM233 587l143 174h150l-181 -174h-112z" />
    <glyph glyph-name="acircumflex" unicode="&#xe2;" horiz-adv-x="555" 
d="M326 0l15 69q-64 -85 -164 -85q-46 0 -83.5 18.5t-59 53t-21.5 81.5q0 80 69.5 128t195.5 48h107q5 48 -16 76.5t-75 28.5q-38 0 -78 -16t-70 -49l-63 82q41 41 101.5 62.5t124.5 21.5q96 0 148 -46t52 -129q0 -31 -8 -65l-59 -279h-116zM221 81q41 0 77.5 28t61.5 80
l8 40h-94q-62 0 -96 -22t-34 -60q0 -29 20.5 -47.5t56.5 -18.5zM140 587l156 174h141l82 -174h-117l-53 94l-93 -94h-116z" />
    <glyph glyph-name="atilde" unicode="&#xe3;" horiz-adv-x="555" 
d="M326 0l15 69q-64 -85 -164 -85q-46 0 -83.5 18.5t-59 53t-21.5 81.5q0 80 69.5 128t195.5 48h107q5 48 -16 76.5t-75 28.5q-38 0 -78 -16t-70 -49l-63 82q41 41 101.5 62.5t124.5 21.5q96 0 148 -46t52 -129q0 -31 -8 -65l-59 -279h-116zM221 81q41 0 77.5 28t61.5 80
l8 40h-94q-62 0 -96 -22t-34 -60q0 -29 20.5 -47.5t56.5 -18.5zM276 737q25 0 46.5 -10t46.5 -32q16 -15 23.5 -19.5t14.5 -4.5q26 0 49 59l74 -40q-20 -52 -54 -80.5t-75 -28.5q-47 0 -92 42q-16 15 -23.5 19.5t-15.5 4.5q-27 0 -48 -59l-75 40q20 52 54.5 80.5t74.5 28.5z
" />
    <glyph glyph-name="adieresis" unicode="&#xe4;" horiz-adv-x="555" 
d="M326 0l15 69q-64 -85 -164 -85q-46 0 -83.5 18.5t-59 53t-21.5 81.5q0 80 69.5 128t195.5 48h107q5 48 -16 76.5t-75 28.5q-38 0 -78 -16t-70 -49l-63 82q41 41 101.5 62.5t124.5 21.5q96 0 148 -46t52 -129q0 -31 -8 -65l-59 -279h-116zM221 81q41 0 77.5 28t61.5 80
l8 40h-94q-62 0 -96 -22t-34 -60q0 -29 20.5 -47.5t56.5 -18.5zM221 592q-28 0 -45.5 17t-17.5 43q0 38 26.5 64.5t67.5 26.5q28 0 45 -16.5t17 -42.5q0 -39 -26 -65.5t-67 -26.5zM437 592q-28 0 -45 17t-17 43q0 38 26.5 64.5t67.5 26.5q28 0 44.5 -16.5t16.5 -42.5
q0 -39 -26 -65.5t-67 -26.5z" />
    <glyph glyph-name="aring" unicode="&#xe5;" horiz-adv-x="555" 
d="M326 0l15 69q-64 -85 -164 -85q-46 0 -83.5 18.5t-59 53t-21.5 81.5q0 80 69.5 128t195.5 48h107q5 48 -16 76.5t-75 28.5q-38 0 -78 -16t-70 -49l-63 82q41 41 101.5 62.5t124.5 21.5q96 0 148 -46t52 -129q0 -31 -8 -65l-59 -279h-116zM221 81q41 0 77.5 28t61.5 80
l8 40h-94q-62 0 -96 -22t-34 -60q0 -29 20.5 -47.5t56.5 -18.5zM370 801q41 0 69.5 -27.5t28.5 -67.5q0 -64 -41.5 -106t-106.5 -42q-40 0 -68.5 27.5t-28.5 67.5q0 65 41.5 106.5t105.5 41.5zM356 732q-25 0 -42.5 -17.5t-17.5 -45.5q0 -19 10.5 -30.5t28.5 -11.5
q26 0 42.5 17.5t16.5 45.5q0 19 -10.5 30.5t-27.5 11.5z" />
    <glyph glyph-name="ae" unicode="&#xe6;" horiz-adv-x="903" 
d="M146 353l-63 82q39 39 98 61.5t122 22.5q64 0 106.5 -24.5t61.5 -70.5q37 44 89.5 69.5t113.5 25.5q58 0 102 -20.5t69.5 -56t25.5 -82.5q0 -70 -54.5 -108t-152.5 -38h-155v-2q0 -58 32.5 -91t89.5 -33q80 0 139 71l63 -85q-87 -90 -209 -90q-78 0 -132.5 35t-78.5 98
q-36 -64 -95.5 -98.5t-135.5 -34.5q-75 0 -122 41.5t-47 108.5q0 79 70.5 124t194.5 45h105q17 115 -89 115q-42 0 -81 -17t-67 -48zM668 416q-51 0 -89.5 -32t-56.5 -85h130q43 0 66 15t23 43q0 26 -20.5 42.5t-52.5 16.5zM221 81q49 0 89 37t59 101h-95q-59 0 -93 -20.5
t-34 -55.5q0 -27 21 -44.5t53 -17.5z" />
    <glyph glyph-name="ccedilla" unicode="&#xe7;" horiz-adv-x="535" 
d="M411 165l65 -90q-43 -43 -94.5 -67t-116.5 -24t-116.5 28.5t-81 78.5t-29.5 116q0 63 22 119.5t62 99.5t94 68t118 25t118 -28.5t87 -84.5l-97 -71q-16 32 -42 53t-69 21q-44 0 -79.5 -26.5t-56 -70t-20.5 -95.5q0 -49 27.5 -86t81.5 -37q74 0 127 71zM109 -222l51 62
q29 -25 66 -25q24 0 39 12t15 31q0 33 -49 33q-13 0 -24.5 -1t-21.5 -4l61 124h71l-28 -56q39 -7 60 -29.5t21 -53.5q0 -57 -42 -94.5t-115 -37.5q-34 0 -59 9t-45 30z" />
    <glyph glyph-name="egrave" unicode="&#xe8;" horiz-adv-x="569" 
d="M499 74q-85 -90 -217 -90q-73 0 -128 28.5t-85.5 80t-30.5 119.5q0 65 22.5 121t63 97.5t94.5 65t116 23.5q60 0 105.5 -20t71.5 -56t26 -83q0 -70 -54.5 -109t-152.5 -39h-156q0 -58 32.5 -91t89.5 -33q81 0 140 71zM334 416q-53 0 -91.5 -32.5t-56.5 -87.5h131
q42 0 66 16.5t24 44.5q0 26 -20.5 42.5t-52.5 16.5zM299 587l-106 174h143l72 -174h-109z" />
    <glyph glyph-name="eacute" unicode="&#xe9;" horiz-adv-x="569" 
d="M499 74q-85 -90 -217 -90q-73 0 -128 28.5t-85.5 80t-30.5 119.5q0 65 22.5 121t63 97.5t94.5 65t116 23.5q60 0 105.5 -20t71.5 -56t26 -83q0 -70 -54.5 -109t-152.5 -39h-156q0 -58 32.5 -91t89.5 -33q81 0 140 71zM334 416q-53 0 -91.5 -32.5t-56.5 -87.5h131
q42 0 66 16.5t24 44.5q0 26 -20.5 42.5t-52.5 16.5zM265 587l143 174h150l-181 -174h-112z" />
    <glyph glyph-name="ecircumflex" unicode="&#xea;" horiz-adv-x="569" 
d="M499 74q-85 -90 -217 -90q-73 0 -128 28.5t-85.5 80t-30.5 119.5q0 65 22.5 121t63 97.5t94.5 65t116 23.5q60 0 105.5 -20t71.5 -56t26 -83q0 -70 -54.5 -109t-152.5 -39h-156q0 -58 32.5 -91t89.5 -33q81 0 140 71zM334 416q-53 0 -91.5 -32.5t-56.5 -87.5h131
q42 0 66 16.5t24 44.5q0 26 -20.5 42.5t-52.5 16.5zM172 587l156 174h141l82 -174h-117l-53 94l-93 -94h-116z" />
    <glyph glyph-name="edieresis" unicode="&#xeb;" horiz-adv-x="569" 
d="M499 74q-85 -90 -217 -90q-73 0 -128 28.5t-85.5 80t-30.5 119.5q0 65 22.5 121t63 97.5t94.5 65t116 23.5q60 0 105.5 -20t71.5 -56t26 -83q0 -70 -54.5 -109t-152.5 -39h-156q0 -58 32.5 -91t89.5 -33q81 0 140 71zM334 416q-53 0 -91.5 -32.5t-56.5 -87.5h131
q42 0 66 16.5t24 44.5q0 26 -20.5 42.5t-52.5 16.5zM253 592q-28 0 -45.5 17t-17.5 43q0 38 26.5 64.5t67.5 26.5q28 0 45 -16.5t17 -42.5q0 -39 -26 -65.5t-67 -26.5zM469 592q-28 0 -45 17t-17 43q0 38 26.5 64.5t67.5 26.5q28 0 44.5 -16.5t16.5 -42.5q0 -39 -26 -65.5
t-67 -26.5z" />
    <glyph glyph-name="igrave" unicode="&#xec;" horiz-adv-x="262" 
d="M14 0l107 503h132l-107 -503h-132zM150 587l-80 174h136l46 -174h-102z" />
    <glyph glyph-name="iacute" unicode="&#xed;" horiz-adv-x="262" 
d="M14 0l107 503h132l-107 -503h-132zM121 587l98 174h138l-132 -174h-104z" />
    <glyph glyph-name="icircumflex" unicode="&#xee;" horiz-adv-x="262" 
d="M14 0l107 503h132l-107 -503h-132zM37 587l156 174h99l82 -174h-106l-46 82l-80 -82h-105z" />
    <glyph glyph-name="idieresis" unicode="&#xef;" horiz-adv-x="262" 
d="M14 0l107 503h132l-107 -503h-132zM120 598q-26 0 -41.5 15.5t-15.5 39.5q0 33 23.5 58.5t63.5 25.5q26 0 41.5 -15.5t15.5 -38.5q0 -33 -23 -59t-64 -26zM288 598q-26 0 -42 15.5t-16 39.5q0 33 24 58.5t64 25.5q26 0 41.5 -15.5t15.5 -38.5q0 -33 -23.5 -59t-63.5 -26z
" />
    <glyph glyph-name="eth" unicode="&#xf0;" horiz-adv-x="614" 
d="M274 522l-34 84l109 43q-41 43 -99 82l116 43q58 -34 101 -79l113 45l31 -84l-88 -35q58 -99 58 -225q0 -90 -24.5 -165.5t-69.5 -131t-106 -85.5t-135 -30q-95 0 -152.5 56t-57.5 150q0 63 21 117t58.5 95t86.5 64t104 23q54 0 93 -22t57 -62q-7 94 -51 169zM270 94
q43 0 78 25t56.5 67t21.5 91q0 48 -27.5 76.5t-75.5 28.5q-42 0 -76.5 -23.5t-54.5 -64t-20 -92.5q0 -50 26 -79t72 -29z" />
    <glyph glyph-name="ntilde" unicode="&#xf1;" horiz-adv-x="590" 
d="M18 0l106 503h131l-18 -86q31 49 75.5 75.5t94.5 26.5q62 0 100 -41.5t38 -112.5q0 -19 -3 -41t-9 -51l-58 -273h-132l57 273q5 21 7.5 39t2.5 28q0 32 -17 50.5t-47 18.5q-55 0 -93.5 -54.5t-61.5 -160.5l-41 -194h-132zM328 737q25 0 46.5 -10t46.5 -32
q16 -15 23.5 -19.5t14.5 -4.5q26 0 49 59l74 -40q-20 -52 -54 -80.5t-75 -28.5q-47 0 -92 42q-16 15 -23.5 19.5t-15.5 4.5q-27 0 -48 -59l-75 40q20 52 54.5 80.5t74.5 28.5z" />
    <glyph glyph-name="ograve" unicode="&#xf2;" horiz-adv-x="601" 
d="M38 212q0 63 22.5 119t62 98t91.5 66t111 24q111 0 174.5 -61t63.5 -167q0 -63 -22.5 -119t-62 -98t-91 -66t-110.5 -24q-111 0 -175 61t-64 167zM277 94q41 0 75 26.5t54 71.5t20 99t-27 86t-74 32q-41 0 -75 -26.5t-54.5 -71t-20.5 -99.5q0 -54 27.5 -86t74.5 -32z
M296 587l-106 174h143l72 -174h-109z" />
    <glyph glyph-name="oacute" unicode="&#xf3;" horiz-adv-x="601" 
d="M38 212q0 63 22.5 119t62 98t91.5 66t111 24q111 0 174.5 -61t63.5 -167q0 -63 -22.5 -119t-62 -98t-91 -66t-110.5 -24q-111 0 -175 61t-64 167zM277 94q41 0 75 26.5t54 71.5t20 99t-27 86t-74 32q-41 0 -75 -26.5t-54.5 -71t-20.5 -99.5q0 -54 27.5 -86t74.5 -32z
M262 587l143 174h150l-181 -174h-112z" />
    <glyph glyph-name="ocircumflex" unicode="&#xf4;" horiz-adv-x="601" 
d="M38 212q0 63 22.5 119t62 98t91.5 66t111 24q111 0 174.5 -61t63.5 -167q0 -63 -22.5 -119t-62 -98t-91 -66t-110.5 -24q-111 0 -175 61t-64 167zM277 94q41 0 75 26.5t54 71.5t20 99t-27 86t-74 32q-41 0 -75 -26.5t-54.5 -71t-20.5 -99.5q0 -54 27.5 -86t74.5 -32z
M169 587l156 174h141l82 -174h-117l-53 94l-93 -94h-116z" />
    <glyph glyph-name="otilde" unicode="&#xf5;" horiz-adv-x="601" 
d="M38 212q0 63 22.5 119t62 98t91.5 66t111 24q111 0 174.5 -61t63.5 -167q0 -63 -22.5 -119t-62 -98t-91 -66t-110.5 -24q-111 0 -175 61t-64 167zM277 94q41 0 75 26.5t54 71.5t20 99t-27 86t-74 32q-41 0 -75 -26.5t-54.5 -71t-20.5 -99.5q0 -54 27.5 -86t74.5 -32z
M305 737q25 0 46.5 -10t46.5 -32q16 -15 23.5 -19.5t14.5 -4.5q26 0 49 59l74 -40q-20 -52 -54 -80.5t-75 -28.5q-47 0 -92 42q-16 15 -23.5 19.5t-15.5 4.5q-27 0 -48 -59l-75 40q20 52 54.5 80.5t74.5 28.5z" />
    <glyph glyph-name="odieresis" unicode="&#xf6;" horiz-adv-x="601" 
d="M38 212q0 63 22.5 119t62 98t91.5 66t111 24q111 0 174.5 -61t63.5 -167q0 -63 -22.5 -119t-62 -98t-91 -66t-110.5 -24q-111 0 -175 61t-64 167zM277 94q41 0 75 26.5t54 71.5t20 99t-27 86t-74 32q-41 0 -75 -26.5t-54.5 -71t-20.5 -99.5q0 -54 27.5 -86t74.5 -32z
M250 592q-28 0 -45.5 17t-17.5 43q0 38 26.5 64.5t67.5 26.5q28 0 45 -16.5t17 -42.5q0 -39 -26 -65.5t-67 -26.5zM466 592q-28 0 -45 17t-17 43q0 38 26.5 64.5t67.5 26.5q28 0 44.5 -16.5t16.5 -42.5q0 -39 -26 -65.5t-67 -26.5z" />
    <glyph glyph-name="divide" unicode="&#xf7;" horiz-adv-x="632" 
d="M299 526q0 23 13 43t34.5 33t47.5 13q28 0 45 -16.5t17 -44.5q0 -22 -12.5 -42.5t-34 -33.5t-47.5 -13q-28 0 -45.5 16.5t-17.5 44.5zM107 304l23 107h441l-23 -107h-441zM221 161q0 23 13 43t34.5 33t47.5 13q28 0 45 -16.5t17 -44.5q0 -34 -27.5 -61.5t-67.5 -27.5
q-27 0 -44.5 16.5t-17.5 44.5z" />
    <glyph glyph-name="oslash" unicode="&#xf8;" horiz-adv-x="608" 
d="M32 -32l-49 64l82 70q-23 48 -23 110q0 63 22.5 119t62 98t91.5 66t111 24q103 0 165 -53l81 68l50 -63l-81 -69q23 -48 23 -111t-22.5 -119t-62 -98t-91 -66t-110.5 -24q-104 0 -167 54zM177 212q0 -8 1 -15l221 187q-27 25 -70 25q-42 0 -76.5 -26.5t-55 -71
t-20.5 -99.5zM281 94q42 0 76.5 27t54.5 71.5t20 98.5q0 8 -1 16l-221 -188q27 -25 71 -25z" />
    <glyph glyph-name="ugrave" unicode="&#xf9;" horiz-adv-x="584" 
d="M461 0h-131l18 85q-32 -49 -75 -75t-89 -26q-65 0 -102 40t-37 104q0 44 12 102l58 273h132l-58 -273q-9 -45 -9 -68q0 -31 15.5 -49.5t43.5 -18.5q110 0 155 215l41 194h132zM298 587l-106 174h143l72 -174h-109z" />
    <glyph glyph-name="uacute" unicode="&#xfa;" horiz-adv-x="584" 
d="M461 0h-131l18 85q-32 -49 -75 -75t-89 -26q-65 0 -102 40t-37 104q0 44 12 102l58 273h132l-58 -273q-9 -45 -9 -68q0 -31 15.5 -49.5t43.5 -18.5q110 0 155 215l41 194h132zM264 587l143 174h150l-181 -174h-112z" />
    <glyph glyph-name="ucircumflex" unicode="&#xfb;" horiz-adv-x="584" 
d="M461 0h-131l18 85q-32 -49 -75 -75t-89 -26q-65 0 -102 40t-37 104q0 44 12 102l58 273h132l-58 -273q-9 -45 -9 -68q0 -31 15.5 -49.5t43.5 -18.5q110 0 155 215l41 194h132zM171 587l156 174h141l82 -174h-117l-53 94l-93 -94h-116z" />
    <glyph glyph-name="udieresis" unicode="&#xfc;" horiz-adv-x="584" 
d="M461 0h-131l18 85q-32 -49 -75 -75t-89 -26q-65 0 -102 40t-37 104q0 44 12 102l58 273h132l-58 -273q-9 -45 -9 -68q0 -31 15.5 -49.5t43.5 -18.5q110 0 155 215l41 194h132zM252 592q-28 0 -45.5 17t-17.5 43q0 38 26.5 64.5t67.5 26.5q28 0 45 -16.5t17 -42.5
q0 -39 -26 -65.5t-67 -26.5zM468 592q-28 0 -45 17t-17 43q0 38 26.5 64.5t67.5 26.5q28 0 44.5 -16.5t16.5 -42.5q0 -39 -26 -65.5t-67 -26.5z" />
    <glyph glyph-name="yacute" unicode="&#xfd;" horiz-adv-x="558" 
d="M-25 -194l23 108h62q29 0 47.5 13.5t33.5 45.5l13 27l-91 503h134l52 -371l204 371h135l-339 -566q-31 -51 -59 -79.5t-63 -40t-87 -11.5h-65zM242 587l143 174h150l-181 -174h-112z" />
    <glyph glyph-name="thorn" unicode="&#xfe;" horiz-adv-x="633" 
d="M-23 -194l193 914h132l-64 -303q32 50 77 76t97 26q58 0 99 -27.5t63 -76t22 -111.5q0 -67 -21 -125t-58.5 -102t-86.5 -68.5t-105 -24.5q-54 0 -95.5 22.5t-64.5 62.5l-56 -263h-132zM191 191l-4 -18q13 -34 45.5 -56.5t71.5 -22.5q43 0 78 25.5t56 69.5t21 99
q0 56 -26 89t-77 33q-56 0 -99 -54.5t-66 -164.5z" />
    <glyph glyph-name="ydieresis" unicode="&#xff;" horiz-adv-x="558" 
d="M-25 -194l23 108h62q29 0 47.5 13.5t33.5 45.5l13 27l-91 503h134l52 -371l204 371h135l-339 -566q-31 -51 -59 -79.5t-63 -40t-87 -11.5h-65zM230 592q-28 0 -45.5 17t-17.5 43q0 38 26.5 64.5t67.5 26.5q28 0 45 -16.5t17 -42.5q0 -39 -26 -65.5t-67 -26.5zM446 592
q-28 0 -45 17t-17 43q0 38 26.5 64.5t67.5 26.5q28 0 44.5 -16.5t16.5 -42.5q0 -39 -26 -65.5t-67 -26.5z" />
    <glyph glyph-name="Amacron" unicode="&#x100;" horiz-adv-x="738" 
d="M-24 0l419 715h150l116 -715h-137l-23 157h-290l-89 -157h-146zM275 271h210l-42 296zM310 807l20 95h314l-20 -95h-314z" />
    <glyph glyph-name="amacron" unicode="&#x101;" horiz-adv-x="555" 
d="M326 0l15 69q-64 -85 -164 -85q-46 0 -83.5 18.5t-59 53t-21.5 81.5q0 80 69.5 128t195.5 48h107q5 48 -16 76.5t-75 28.5q-38 0 -78 -16t-70 -49l-63 82q41 41 101.5 62.5t124.5 21.5q96 0 148 -46t52 -129q0 -31 -8 -65l-59 -279h-116zM221 81q41 0 77.5 28t61.5 80
l8 40h-94q-62 0 -96 -22t-34 -60q0 -29 20.5 -47.5t56.5 -18.5zM174 603l20 92h292l-19 -92h-293z" />
    <glyph glyph-name="Abreve" unicode="&#x102;" horiz-adv-x="738" 
d="M-24 0l419 715h150l116 -715h-137l-23 157h-290l-89 -157h-146zM275 271h210l-42 296zM346 947h104v-5q0 -28 16 -44.5t42 -16.5q32 0 54 17.5t32 48.5h103q-19 -70 -70.5 -111t-136.5 -41q-65 0 -105 35.5t-40 96.5v10t1 10z" />
    <glyph glyph-name="abreve" unicode="&#x103;" horiz-adv-x="555" 
d="M326 0l15 69q-64 -85 -164 -85q-46 0 -83.5 18.5t-59 53t-21.5 81.5q0 80 69.5 128t195.5 48h107q5 48 -16 76.5t-75 28.5q-38 0 -78 -16t-70 -49l-63 82q41 41 101.5 62.5t124.5 21.5q96 0 148 -46t52 -129q0 -31 -8 -65l-59 -279h-116zM221 81q41 0 77.5 28t61.5 80
l8 40h-94q-62 0 -96 -22t-34 -60q0 -29 20.5 -47.5t56.5 -18.5zM195 748h98v-12q0 -63 52 -63q57 0 82 75h99q-49 -163 -199 -163q-61 0 -97.5 37t-36.5 98q0 5 0.5 11.5t1.5 16.5z" />
    <glyph glyph-name="Aogonek" unicode="&#x104;" horiz-adv-x="738" 
d="M-24 0l419 715h150l116 -715h-137l-23 157h-290l-89 -157h-146zM275 271h210l-42 296zM610 -159l-19 -89q-12 -2 -23 -3t-22 -1q-55 0 -89.5 23.5t-34.5 69.5q0 41 20 74.5t52.5 60.5t67.5 46l81 -22q-22 -9 -48 -25.5t-44 -39.5t-18 -54q0 -21 13.5 -32t34.5 -11
q11 0 29 3z" />
    <glyph glyph-name="aogonek" unicode="&#x105;" horiz-adv-x="555" 
d="M326 0l15 69q-64 -85 -164 -85q-46 0 -83.5 18.5t-59 53t-21.5 81.5q0 80 69.5 128t195.5 48h107q5 48 -16 76.5t-75 28.5q-38 0 -78 -16t-70 -49l-63 82q41 41 101.5 62.5t124.5 21.5q96 0 148 -46t52 -129q0 -31 -8 -65l-59 -279h-116zM221 81q41 0 77.5 28t61.5 80
l8 40h-94q-62 0 -96 -22t-34 -60q0 -29 20.5 -47.5t56.5 -18.5zM408 -160l-19 -88q-20 -4 -45 -4q-57 0 -89.5 23.5t-32.5 65.5q0 56 39 100.5t111 84.5l70 -22q-47 -25 -79.5 -57t-32.5 -68q0 -38 49 -38q13 0 29 3z" />
    <glyph glyph-name="Cacute" unicode="&#x106;" horiz-adv-x="707" 
d="M591 214l76 -97q-55 -64 -127.5 -98.5t-152.5 -34.5q-97 0 -169 39t-111.5 110.5t-39.5 168.5q0 88 31.5 165.5t87 137t129 93t156.5 33.5q88 0 156.5 -34t111.5 -99l-100 -85q-31 51 -72 75t-99 24q-54 0 -101 -24t-82.5 -67t-55.5 -99t-20 -120q0 -63 24 -107.5t65 -68
t91 -23.5q56 0 108.5 28t93.5 83zM400 785l141 144h162l-175 -144h-128z" />
    <glyph glyph-name="cacute" unicode="&#x107;" horiz-adv-x="535" 
d="M411 165l65 -90q-43 -43 -94.5 -67t-116.5 -24t-116.5 28.5t-81 78.5t-29.5 116q0 63 22 119.5t62 99.5t94 68t118 25t118 -28.5t87 -84.5l-97 -71q-16 32 -42 53t-69 21q-44 0 -79.5 -26.5t-56 -70t-20.5 -95.5q0 -49 27.5 -86t81.5 -37q74 0 127 71zM261 587l143 174
h150l-181 -174h-112z" />
    <glyph glyph-name="Cdotaccent" unicode="&#x10a;" horiz-adv-x="707" 
d="M591 214l76 -97q-55 -64 -127.5 -98.5t-152.5 -34.5q-97 0 -169 39t-111.5 110.5t-39.5 168.5q0 88 31.5 165.5t87 137t129 93t156.5 33.5q88 0 156.5 -34t111.5 -99l-100 -85q-31 51 -72 75t-99 24q-54 0 -101 -24t-82.5 -67t-55.5 -99t-20 -120q0 -63 24 -107.5t65 -68
t91 -23.5q56 0 108.5 28t93.5 83zM482 789q-28 0 -45.5 16.5t-17.5 44.5q0 38 27 65t68 27q29 0 46 -16.5t17 -43.5q0 -38 -26.5 -65.5t-68.5 -27.5z" />
    <glyph glyph-name="cdotaccent" unicode="&#x10b;" horiz-adv-x="535" 
d="M411 165l65 -90q-43 -43 -94.5 -67t-116.5 -24t-116.5 28.5t-81 78.5t-29.5 116q0 63 22 119.5t62 99.5t94 68t118 25t118 -28.5t87 -84.5l-97 -71q-16 32 -42 53t-69 21q-44 0 -79.5 -26.5t-56 -70t-20.5 -95.5q0 -49 27.5 -86t81.5 -37q74 0 127 71zM357 592
q-28 0 -45.5 16.5t-17.5 43.5q0 38 27 64.5t67 26.5q28 0 45 -16.5t17 -42.5q0 -39 -26 -65.5t-67 -26.5z" />
    <glyph glyph-name="Ccaron" unicode="&#x10c;" horiz-adv-x="707" 
d="M591 214l76 -97q-55 -64 -127.5 -98.5t-152.5 -34.5q-97 0 -169 39t-111.5 110.5t-39.5 168.5q0 88 31.5 165.5t87 137t129 93t156.5 33.5q88 0 156.5 -34t111.5 -99l-100 -85q-31 51 -72 75t-99 24q-54 0 -101 -24t-82.5 -67t-55.5 -99t-20 -120q0 -63 24 -107.5t65 -68
t91 -23.5q56 0 108.5 28t93.5 83zM420 799l-97 144h122l61 -74l90 74h122l-158 -144h-140z" />
    <glyph glyph-name="ccaron" unicode="&#x10d;" horiz-adv-x="535" 
d="M411 165l65 -90q-43 -43 -94.5 -67t-116.5 -24t-116.5 28.5t-81 78.5t-29.5 116q0 63 22 119.5t62 99.5t94 68t118 25t118 -28.5t87 -84.5l-97 -71q-16 32 -42 53t-69 21q-44 0 -79.5 -26.5t-56 -70t-20.5 -95.5q0 -49 27.5 -86t81.5 -37q74 0 127 71zM278 587l-82 174
h117l53 -94l94 94h115l-156 -174h-141z" />
    <glyph glyph-name="Dcaron" unicode="&#x10e;" horiz-adv-x="747" 
d="M35 0l152 715h233q92 0 160.5 -35t106 -100t37.5 -156q0 -96 -33 -174t-92.5 -134t-140 -86t-175.5 -30h-248zM194 115h103q83 0 147.5 38t101.5 105.5t37 154.5q0 83 -46 135t-135 52h-105zM367 799l-97 144h122l61 -74l90 74h122l-158 -144h-140z" />
    <glyph glyph-name="dcaron" unicode="&#x10f;" horiz-adv-x="745" 
d="M380 0l16 80q-32 -47 -74.5 -71.5t-96.5 -24.5q-88 0 -137.5 58.5t-49.5 155.5q0 67 21.5 125t60 102t89 69t109.5 25q56 0 94.5 -24t55.5 -68l62 293h131l-153 -720h-128zM175 213q0 -57 27 -88t75 -31q46 0 85 37t63 101q5 31 5 54q0 59 -26 91t-71 32t-80.5 -27
t-56.5 -71.5t-21 -97.5zM725 491h-66q26 25 46.5 53.5t29.5 53.5q-17 5 -27 19t-10 33q0 34 24 57.5t57 23.5q27 0 41.5 -15.5t14.5 -42.5q0 -37 -30 -86.5t-80 -95.5z" />
    <glyph glyph-name="Dcroat" unicode="&#x110;" horiz-adv-x="747" 
d="M35 0l64 305h-54l24 114h54l63 296h234q92 0 160.5 -35t106 -100t37.5 -156q0 -96 -33 -174t-92.5 -134t-140 -86t-175.5 -30h-248zM194 115h103q83 0 147.5 38t101 105.5t36.5 154.5q0 83 -45.5 135t-134.5 52h-104l-39 -181h141l-25 -114h-140z" />
    <glyph glyph-name="dcroat" unicode="&#x111;" horiz-adv-x="641" 
d="M377 0l16 76q-65 -92 -174 -92q-83 0 -133 58t-50 156q0 63 21 117.5t58.5 96.5t87 65.5t105.5 23.5q58 0 98 -22.5t58 -62.5l29 136h-141l21 95h140l16 73h129l-15 -73h74l-20 -95h-74l-117 -552h-129zM173 202q0 -52 27.5 -82.5t73.5 -30.5q49 0 89.5 39t60.5 102
q4 24 4 48q0 56 -26.5 86.5t-74.5 30.5q-42 0 -77 -26t-56 -69.5t-21 -97.5z" />
    <glyph glyph-name="Emacron" unicode="&#x112;" horiz-adv-x="600" 
d="M35 0l151 715h467l-25 -114h-331l-38 -182h313l-24 -114h-314l-40 -191h346l-24 -114h-481zM273 807l20 95h314l-20 -95h-314z" />
    <glyph glyph-name="emacron" unicode="&#x113;" horiz-adv-x="569" 
d="M499 74q-85 -90 -217 -90q-73 0 -128 28.5t-85.5 80t-30.5 119.5q0 65 22.5 121t63 97.5t94.5 65t116 23.5q60 0 105.5 -20t71.5 -56t26 -83q0 -70 -54.5 -109t-152.5 -39h-156q0 -58 32.5 -91t89.5 -33q81 0 140 71zM334 416q-53 0 -91.5 -32.5t-56.5 -87.5h131
q42 0 66 16.5t24 44.5q0 26 -20.5 42.5t-52.5 16.5zM206 603l20 92h292l-19 -92h-293z" />
    <glyph glyph-name="Edotaccent" unicode="&#x116;" horiz-adv-x="600" 
d="M35 0l151 715h467l-25 -114h-331l-38 -182h313l-24 -114h-314l-40 -191h346l-24 -114h-481zM435 789q-28 0 -45.5 16.5t-17.5 44.5q0 38 27 65t68 27q29 0 46 -16.5t17 -43.5q0 -38 -26.5 -65.5t-68.5 -27.5z" />
    <glyph glyph-name="edotaccent" unicode="&#x117;" horiz-adv-x="569" 
d="M499 74q-85 -90 -217 -90q-73 0 -128 28.5t-85.5 80t-30.5 119.5q0 65 22.5 121t63 97.5t94.5 65t116 23.5q60 0 105.5 -20t71.5 -56t26 -83q0 -70 -54.5 -109t-152.5 -39h-156q0 -58 32.5 -91t89.5 -33q81 0 140 71zM334 416q-53 0 -91.5 -32.5t-56.5 -87.5h131
q42 0 66 16.5t24 44.5q0 26 -20.5 42.5t-52.5 16.5zM361 592q-28 0 -45.5 16.5t-17.5 43.5q0 38 27 64.5t67 26.5q28 0 45 -16.5t17 -42.5q0 -39 -26 -65.5t-67 -26.5z" />
    <glyph glyph-name="Eogonek" unicode="&#x118;" horiz-adv-x="600" 
d="M35 0l151 715h467l-25 -114h-331l-38 -182h313l-24 -114h-314l-40 -191h346l-24 -114h-481zM482 -159l-19 -89q-12 -2 -23 -3t-22 -1q-55 0 -89.5 23.5t-34.5 69.5q0 41 20 74.5t52.5 60.5t67.5 46l81 -22q-22 -9 -48 -25.5t-44 -39.5t-18 -54q0 -21 13.5 -32t34.5 -11
q11 0 29 3z" />
    <glyph glyph-name="eogonek" unicode="&#x119;" horiz-adv-x="569" 
d="M499 74q-85 -90 -217 -90q-73 0 -128 28.5t-85.5 80t-30.5 119.5q0 65 22.5 121t63 97.5t94.5 65t116 23.5q60 0 105.5 -20t71.5 -56t26 -83q0 -70 -54.5 -109t-152.5 -39h-156q0 -58 32.5 -91t89.5 -33q81 0 140 71zM334 416q-53 0 -91.5 -32.5t-56.5 -87.5h131
q42 0 66 16.5t24 44.5q0 26 -20.5 42.5t-52.5 16.5zM411 -160l-19 -88q-20 -4 -45 -4q-58 0 -90 25t-32 69q0 59 45.5 110t143.5 102l47 -13q-61 -41 -94.5 -83.5t-33.5 -78.5q0 -42 49 -42q14 0 29 3z" />
    <glyph glyph-name="Ecaron" unicode="&#x11a;" horiz-adv-x="600" 
d="M35 0l151 715h467l-25 -114h-331l-38 -182h313l-24 -114h-314l-40 -191h346l-24 -114h-481zM373 799l-97 144h122l61 -74l90 74h122l-158 -144h-140z" />
    <glyph glyph-name="ecaron" unicode="&#x11b;" horiz-adv-x="569" 
d="M499 74q-85 -90 -217 -90q-73 0 -128 28.5t-85.5 80t-30.5 119.5q0 65 22.5 121t63 97.5t94.5 65t116 23.5q60 0 105.5 -20t71.5 -56t26 -83q0 -70 -54.5 -109t-152.5 -39h-156q0 -58 32.5 -91t89.5 -33q81 0 140 71zM334 416q-53 0 -91.5 -32.5t-56.5 -87.5h131
q42 0 66 16.5t24 44.5q0 26 -20.5 42.5t-52.5 16.5zM282 587l-82 174h117l53 -94l94 94h115l-156 -174h-141z" />
    <glyph glyph-name="Gbreve" unicode="&#x11e;" horiz-adv-x="759" 
d="M535 0l13 63q-77 -79 -189 -79q-86 0 -152 40t-103 111.5t-37 166.5q0 88 31.5 165.5t88 137t131 93t159.5 33.5q86 0 155 -35t112 -102l-98 -81q-31 50 -73.5 74.5t-98.5 24.5q-57 0 -105 -24t-84 -67t-56 -99t-20 -120q0 -60 22.5 -104.5t63 -69.5t93.5 -25
q55 0 103.5 23.5t83.5 65.5l19 90h-187l23 109h313l-83 -391h-125zM363 947h104v-5q0 -28 16 -44.5t42 -16.5q32 0 54 17.5t32 48.5h103q-19 -70 -70.5 -111t-136.5 -41q-65 0 -105 35.5t-40 96.5v10t1 10z" />
    <glyph glyph-name="gbreve" unicode="&#x11f;" horiz-adv-x="621" 
d="M-9 -117l77 87q62 -71 149 -71q132 0 164 147l11 51q-68 -99 -173 -99q-84 0 -136 56t-52 151q0 66 21.5 123t60 100t89.5 67t110 24q57 0 95.5 -25t54.5 -71l17 80h130l-96 -459q-28 -127 -101 -190.5t-195 -63.5q-140 0 -226 93zM170 220q0 -54 26 -83.5t74 -29.5
t89 38t63 109q2 18 2 32q0 124 -99 124q-44 0 -79 -26.5t-55.5 -69.5t-20.5 -94zM220 748h98v-12q0 -63 52 -63q57 0 82 75h99q-49 -163 -199 -163q-61 0 -97.5 37t-36.5 98q0 5 0.5 11.5t1.5 16.5z" />
    <glyph glyph-name="Gdotaccent" unicode="&#x120;" horiz-adv-x="759" 
d="M535 0l13 63q-77 -79 -189 -79q-86 0 -152 40t-103 111.5t-37 166.5q0 88 31.5 165.5t88 137t131 93t159.5 33.5q86 0 155 -35t112 -102l-98 -81q-31 50 -73.5 74.5t-98.5 24.5q-57 0 -105 -24t-84 -67t-56 -99t-20 -120q0 -60 22.5 -104.5t63 -69.5t93.5 -25
q55 0 103.5 23.5t83.5 65.5l19 90h-187l23 109h313l-83 -391h-125zM489 789q-28 0 -45.5 16.5t-17.5 44.5q0 38 27 65t68 27q29 0 46 -16.5t17 -43.5q0 -38 -26.5 -65.5t-68.5 -27.5z" />
    <glyph glyph-name="gdotaccent" unicode="&#x121;" horiz-adv-x="621" 
d="M-9 -117l77 87q62 -71 149 -71q132 0 164 147l11 51q-68 -99 -173 -99q-84 0 -136 56t-52 151q0 66 21.5 123t60 100t89.5 67t110 24q57 0 95.5 -25t54.5 -71l17 80h130l-96 -459q-28 -127 -101 -190.5t-195 -63.5q-140 0 -226 93zM170 220q0 -54 26 -83.5t74 -29.5
t89 38t63 109q2 18 2 32q0 124 -99 124q-44 0 -79 -26.5t-55.5 -69.5t-20.5 -94zM354 592q-28 0 -45.5 16.5t-17.5 43.5q0 38 27 64.5t67 26.5q28 0 45 -16.5t17 -42.5q0 -39 -26 -65.5t-67 -26.5z" />
    <glyph glyph-name="uni0122" unicode="&#x122;" horiz-adv-x="759" 
d="M535 0l13 63q-77 -79 -189 -79q-86 0 -152 40t-103 111.5t-37 166.5q0 88 31.5 165.5t88 137t131 93t159.5 33.5q86 0 155 -35t112 -102l-98 -81q-31 50 -73.5 74.5t-98.5 24.5q-57 0 -105 -24t-84 -67t-56 -99t-20 -120q0 -60 22.5 -104.5t63 -69.5t93.5 -25
q55 0 103.5 23.5t83.5 65.5l19 90h-187l23 109h313l-83 -391h-125zM309 -292h-67q24 23 42.5 48.5t26.5 46.5q-33 11 -33 48q0 28 19 49.5t54 21.5q26 0 41.5 -15t15.5 -43q0 -37 -30.5 -78.5t-68.5 -77.5z" />
    <glyph glyph-name="uni0123" unicode="&#x123;" horiz-adv-x="621" 
d="M-9 -117l77 87q62 -71 149 -71q132 0 164 147l11 51q-68 -99 -173 -99q-84 0 -136 56t-52 151q0 66 21.5 123t60 100t89.5 67t110 24q57 0 95.5 -25t54.5 -71l17 80h130l-96 -459q-28 -127 -101 -190.5t-195 -63.5q-140 0 -226 93zM170 220q0 -54 26 -83.5t74 -29.5
t89 38t63 109q2 18 2 32q0 124 -99 124q-44 0 -79 -26.5t-55.5 -69.5t-20.5 -94zM409 641q0 -31 -20.5 -50.5t-51.5 -19.5q-23 0 -38.5 15.5t-15.5 38.5q0 34 23.5 72.5t75.5 87.5h64q-24 -23 -42.5 -48.5t-27.5 -46.5q33 -12 33 -49z" />
    <glyph glyph-name="Hbar" unicode="&#x126;" horiz-adv-x="742" 
d="M35 0l109 517h-57l23 109h57l19 89h135l-19 -89h298l19 89h135l-19 -89h55l-23 -109h-55l-109 -517h-135l65 310h-298l-65 -310h-135zM260 425h298l19 92h-298z" />
    <glyph glyph-name="hbar" unicode="&#x127;" horiz-adv-x="600" 
d="M32 0l117 552h-74l20 95h74l16 73h132l-16 -73h138l-20 -95h-138l-32 -150q31 47 74 73t90 26q63 0 102.5 -40.5t39.5 -111.5q0 -16 -1.5 -34t-6.5 -41l-58 -274h-132l56 268q3 16 5 29t2 23q0 34 -16.5 52.5t-47.5 18.5q-53 0 -92.5 -53t-60.5 -154l-39 -184h-132z" />
    <glyph glyph-name="Itilde" unicode="&#x128;" horiz-adv-x="311" 
d="M35 0l151 715h135l-151 -715h-135zM210 931q26 0 49 -11t45 -31q11 -10 18.5 -16t17.5 -6q25 0 49 59l77 -38q-19 -53 -56.5 -81t-81.5 -28q-50 0 -95 43q-10 10 -17.5 15.5t-18.5 5.5q-25 0 -49 -59l-77 38q20 53 57 81t82 28z" />
    <glyph glyph-name="itilde" unicode="&#x129;" horiz-adv-x="262" 
d="M14 0l107 503h132l-107 -503h-132zM227 698q14 -14 19 -17.5t11 -3.5q23 0 44 60l64 -40q-19 -52 -50.5 -81.5t-67.5 -29.5q-35 0 -74 39q-14 15 -19.5 18.5t-11.5 3.5q-22 0 -44 -60l-64 39q20 53 51 82t67 29q19 0 36 -8.5t39 -30.5z" />
    <glyph glyph-name="Imacron" unicode="&#x12a;" horiz-adv-x="311" 
d="M35 0l151 715h135l-151 -715h-135zM110 807l20 95h314l-20 -95h-314z" />
    <glyph glyph-name="imacron" unicode="&#x12b;" horiz-adv-x="262" 
d="M14 0l107 503h132l-107 -503h-132zM66 603l20 92h262l-19 -92h-263z" />
    <glyph glyph-name="Iogonek" unicode="&#x12e;" horiz-adv-x="311" 
d="M35 0l151 715h135l-151 -715h-135zM137 -159l-19 -89q-12 -2 -23 -3t-22 -1q-55 0 -89.5 23.5t-34.5 69.5q0 41 20 74.5t52.5 60.5t67.5 46l81 -22q-22 -9 -48 -25.5t-44 -39.5t-18 -54q0 -21 13.5 -32t34.5 -11q11 0 29 3z" />
    <glyph glyph-name="iogonek" unicode="&#x12f;" horiz-adv-x="262" 
d="M139 656q0 38 27 64t67 26q32 0 51 -18.5t19 -48.5q0 -37 -27 -63.5t-67 -26.5q-31 0 -50.5 19t-19.5 48zM14 0l107 503h132l-107 -503h-132zM111 -160l-19 -88q-20 -4 -45 -4q-57 0 -89.5 23.5t-32.5 65.5q0 56 39 100.5t111 84.5l70 -22q-47 -25 -79.5 -57t-32.5 -68
q0 -38 49 -38q13 0 29 3z" />
    <glyph glyph-name="Idotaccent" unicode="&#x130;" horiz-adv-x="311" 
d="M35 0l151 715h135l-151 -715h-135zM272 789q-28 0 -45.5 16.5t-17.5 44.5q0 38 27 65t68 27q29 0 46 -16.5t17 -43.5q0 -38 -26.5 -65.5t-68.5 -27.5z" />
    <glyph glyph-name="dotlessi" unicode="&#x131;" horiz-adv-x="262" 
d="M14 0l107 503h132l-107 -503h-132z" />
    <glyph glyph-name="IJ" unicode="&#x132;" horiz-adv-x="692" 
d="M97 350l76 365h135l-76 -365h-135zM78 246l132 15q-3 -18 -3 -37q0 -53 26.5 -86.5t86.5 -33.5q67 0 107.5 45t58.5 131l92 435h135l-94 -443q-31 -143 -106 -215.5t-214 -72.5q-60 0 -111.5 25t-82.5 72t-31 112q0 12 1 25.5t3 27.5z" />
    <glyph glyph-name="ij" unicode="&#x133;" horiz-adv-x="523" 
d="M139 656q0 38 27 64t67 26q32 0 51 -18.5t19 -48.5q0 -37 -27 -63.5t-67 -26.5q-31 0 -50.5 19t-19.5 48zM14 0l107 503h132l-107 -503h-132zM402 656q0 38 27 64t67 26q32 0 51 -18.5t19 -48.5q0 -37 -27 -63.5t-67 -26.5q-31 0 -50.5 19t-19.5 48zM156 -194l23 108h33
q27 0 39.5 13t19.5 43l113 533h132l-118 -555q-16 -74 -55.5 -108t-108.5 -34h-78z" />
    <glyph glyph-name="uni0136" unicode="&#x136;" horiz-adv-x="719" 
d="M35 0l151 715h135l-68 -322l344 322h162l-373 -345l256 -370h-159l-238 353l-75 -353h-135zM262 -292h-67q24 23 42.5 48.5t26.5 46.5q-33 11 -33 48q0 28 19 49.5t54 21.5q26 0 41.5 -15t15.5 -43q0 -37 -30.5 -78.5t-68.5 -77.5z" />
    <glyph glyph-name="uni0137" unicode="&#x137;" horiz-adv-x="572" 
d="M18 0l153 720h132l-92 -434l232 217h157l-267 -244l186 -259h-159l-161 231l-49 -231h-132zM190 -292h-64q24 23 42.5 48.5t26.5 46.5q-33 11 -33 48q0 32 20.5 51.5t51.5 19.5q23 0 38.5 -14.5t15.5 -40.5q0 -32 -24 -72t-74 -87z" />
    <glyph glyph-name="kgreenlandic" unicode="&#x138;" horiz-adv-x="583" 
d="M18 0l106 503h129l-47 -222l240 222h155l-269 -243l188 -260h-162l-162 231l-49 -231h-129z" />
    <glyph glyph-name="Lacute" unicode="&#x139;" horiz-adv-x="570" 
d="M35 0l151 715h135l-125 -598h314l-24 -117h-451zM190 785l141 144h162l-175 -144h-128z" />
    <glyph glyph-name="lacute" unicode="&#x13a;" horiz-adv-x="308" 
d="M54 168l117 552h132l-117 -549q-4 -19 -4 -32q0 -30 33 -30h48l-23 -109h-73q-64 0 -93 25t-29 80q0 23 9 63zM172 809l122 144h149l-155 -144h-116z" />
    <glyph glyph-name="uni013B" unicode="&#x13b;" horiz-adv-x="570" 
d="M35 0l151 715h135l-125 -598h314l-24 -117h-451zM212 -292h-67q24 23 42.5 48.5t26.5 46.5q-33 11 -33 48q0 28 19 49.5t54 21.5q26 0 41.5 -15t15.5 -43q0 -37 -30.5 -78.5t-68.5 -77.5z" />
    <glyph glyph-name="uni013C" unicode="&#x13c;" horiz-adv-x="308" 
d="M54 168l117 552h132l-117 -549q-4 -19 -4 -32q0 -30 33 -30h48l-23 -109h-73q-64 0 -93 25t-29 80q0 23 9 63zM79 -292h-64q24 23 42.5 48.5t26.5 46.5q-33 11 -33 48q0 32 20.5 51.5t51.5 19.5q23 0 38.5 -14.5t15.5 -40.5q0 -32 -24 -72t-74 -87z" />
    <glyph glyph-name="Lcaron" unicode="&#x13d;" horiz-adv-x="570" 
d="M35 0l151 715h135l-125 -598h314l-24 -117h-451zM419 491h-66q26 25 46.5 53.5t29.5 53.5q-17 5 -27 19t-10 33q0 34 24 57.5t57 23.5q27 0 41.5 -15.5t14.5 -42.5q0 -37 -30 -86.5t-80 -95.5z" />
    <glyph glyph-name="lcaron" unicode="&#x13e;" horiz-adv-x="399" 
d="M54 168l117 552h132l-117 -549q-4 -19 -4 -32q0 -30 33 -30h48l-23 -109h-73q-64 0 -93 25t-29 80q0 23 9 63zM369 491h-66q26 25 46.5 53.5t29.5 53.5q-17 5 -27 19t-10 33q0 34 24 57.5t57 23.5q27 0 41.5 -15.5t14.5 -42.5q0 -37 -30 -86.5t-80 -95.5z" />
    <glyph glyph-name="Lslash" unicode="&#x141;" horiz-adv-x="585" 
d="M50 0l47 220l-54 -31l-35 95l117 67l77 364h135l-58 -275l122 71l35 -96l-185 -107l-41 -191h314l-24 -117h-450z" />
    <glyph glyph-name="lslash" unicode="&#x142;" horiz-adv-x="346" 
d="M83 168l21 97l-61 -34l-28 89l114 64l71 336h132l-54 -251l75 42l29 -88l-129 -73l-38 -179q-4 -19 -4 -32q0 -30 33 -30h48l-23 -109h-73q-64 0 -93 25t-29 80q0 23 9 63z" />
    <glyph glyph-name="Nacute" unicode="&#x143;" horiz-adv-x="756" 
d="M35 0l152 715h140l200 -510l107 510h132l-151 -715h-140l-200 509l-108 -509h-132zM394 785l141 144h162l-175 -144h-128z" />
    <glyph glyph-name="nacute" unicode="&#x144;" horiz-adv-x="590" 
d="M18 0l106 503h131l-18 -86q31 49 75.5 75.5t94.5 26.5q62 0 100 -41.5t38 -112.5q0 -19 -3 -41t-9 -51l-58 -273h-132l57 273q5 21 7.5 39t2.5 28q0 32 -17 50.5t-47 18.5q-55 0 -93.5 -54.5t-61.5 -160.5l-41 -194h-132zM285 587l143 174h150l-181 -174h-112z" />
    <glyph glyph-name="uni0145" unicode="&#x145;" horiz-adv-x="756" 
d="M35 0l152 715h140l200 -510l107 510h132l-151 -715h-140l-200 509l-108 -509h-132zM262 -292h-67q24 23 42.5 48.5t26.5 46.5q-33 11 -33 48q0 28 19 49.5t54 21.5q26 0 41.5 -15t15.5 -43q0 -37 -30.5 -78.5t-68.5 -77.5z" />
    <glyph glyph-name="uni0146" unicode="&#x146;" horiz-adv-x="590" 
d="M18 0l106 503h131l-18 -86q31 49 75.5 75.5t94.5 26.5q62 0 100 -41.5t38 -112.5q0 -19 -3 -41t-9 -51l-58 -273h-132l57 273q5 21 7.5 39t2.5 28q0 32 -17 50.5t-47 18.5q-55 0 -93.5 -54.5t-61.5 -160.5l-41 -194h-132zM198 -292h-64q24 23 42.5 48.5t26.5 46.5
q-33 11 -33 48q0 32 20.5 51.5t51.5 19.5q23 0 38.5 -14.5t15.5 -40.5q0 -32 -24 -72t-74 -87z" />
    <glyph glyph-name="Ncaron" unicode="&#x147;" horiz-adv-x="756" 
d="M35 0l152 715h140l200 -510l107 510h132l-151 -715h-140l-200 509l-108 -509h-132zM414 799l-97 144h122l61 -74l90 74h122l-158 -144h-140z" />
    <glyph glyph-name="ncaron" unicode="&#x148;" horiz-adv-x="590" 
d="M18 0l106 503h131l-18 -86q31 49 75.5 75.5t94.5 26.5q62 0 100 -41.5t38 -112.5q0 -19 -3 -41t-9 -51l-58 -273h-132l57 273q5 21 7.5 39t2.5 28q0 32 -17 50.5t-47 18.5q-55 0 -93.5 -54.5t-61.5 -160.5l-41 -194h-132zM302 587l-82 174h117l53 -94l94 94h115
l-156 -174h-141z" />
    <glyph glyph-name="Eng" unicode="&#x14a;" horiz-adv-x="756" 
d="M35 0l151 715h141l200 -509l107 509h132l-133 -633q-31 -145 -105.5 -215.5t-202.5 -70.5q-52 0 -96.5 16t-68.5 44l84 98q17 -19 41 -28.5t58 -9.5q90 0 131 83l-199 511l-108 -510h-132z" />
    <glyph glyph-name="eng" unicode="&#x14b;" horiz-adv-x="590" 
d="M18 0l106 503h131l-18 -87q31 50 75 76.5t96 26.5q62 0 99.5 -42.5t37.5 -111.5q0 -19 -2.5 -40.5t-9.5 -51.5l-69 -327q-15 -72 -55 -106t-107 -34h-83l23 108h35q27 0 40.5 12t20.5 43l62 301q5 23 7.5 41t2.5 29q0 69 -64 69q-54 0 -93 -53t-60 -155l-44 -201h-131z
" />
    <glyph glyph-name="Ohungarumlaut" unicode="&#x150;" horiz-adv-x="814" 
d="M478 731q96 0 165.5 -38.5t107.5 -107.5t38 -161q0 -84 -30 -162.5t-85 -141t-130 -99.5t-166 -37q-96 0 -165.5 38.5t-107.5 107.5t-38 161q0 84 30 162.5t85 141t130.5 99.5t165.5 37zM470 611q-58 0 -106 -26.5t-83 -70.5t-54.5 -99.5t-19.5 -114.5q0 -88 48.5 -142
t130.5 -54q58 0 106 26.5t83 70.5t54.5 100t19.5 114q0 89 -48.5 142.5t-130.5 53.5zM309 789l156 164h154l-184 -164h-126zM497 789l177 164h153l-204 -164h-126z" />
    <glyph glyph-name="ohungarumlaut" unicode="&#x151;" horiz-adv-x="601" 
d="M38 212q0 63 22.5 119t62 98t91.5 66t111 24q111 0 174.5 -61t63.5 -167q0 -63 -22.5 -119t-62 -98t-91 -66t-110.5 -24q-111 0 -175 61t-64 167zM277 94q41 0 75 26.5t54 71.5t20 99t-27 86t-74 32q-41 0 -75 -26.5t-54.5 -71t-20.5 -99.5q0 -54 27.5 -86t74.5 -32z
M174 587l152 174h145l-179 -174h-118zM355 587l172 174h145l-198 -174h-119z" />
    <glyph glyph-name="OE" unicode="&#x152;" horiz-adv-x="1130" 
d="M351 -16q-85 0 -149 37t-99.5 103.5t-35.5 154.5q0 91 31.5 172.5t88 144.5t132 99t163.5 36q72 0 127 -24.5t90 -70.5l17 79h467l-25 -114h-331l-38 -182h313l-24 -114h-313l-40 -191h345l-24 -114h-481l15 72q-49 -41 -107 -64.5t-122 -23.5zM376 104q62 0 116 32.5
t93 90t54 131.5q5 20 6.5 36t1.5 33q0 84 -44.5 134t-125.5 50q-60 0 -109.5 -25.5t-85.5 -70t-55.5 -103t-19.5 -125.5q0 -53 21.5 -94.5t59.5 -65t88 -23.5z" />
    <glyph glyph-name="oe" unicode="&#x153;" horiz-adv-x="947" 
d="M256 -16q-65 0 -114.5 28.5t-76.5 80t-27 119.5q0 63 22.5 119t62 98t92 66t111.5 24q66 0 112.5 -28t70.5 -79q38 49 93 78t119 29q57 0 100.5 -20.5t68 -56t24.5 -82.5q0 -69 -54 -107.5t-152 -38.5h-155v-2q0 -58 32.5 -91t89.5 -33q81 0 140 71l63 -85
q-87 -90 -210 -90q-73 0 -124.5 28.5t-78.5 81.5q-37 -51 -91 -80.5t-118 -29.5zM713 416q-52 0 -90.5 -31.5t-56.5 -85.5h130q44 0 68 15t24 43q0 26 -21 42.5t-54 16.5zM277 94q41 0 75 27t54.5 71.5t20.5 98.5t-27.5 86t-74.5 32q-41 0 -75 -26.5t-54.5 -71.5t-20.5 -99
t27.5 -86t74.5 -32z" />
    <glyph glyph-name="Racute" unicode="&#x154;" horiz-adv-x="696" 
d="M35 0l152 715h246q104 0 160 -51t56 -141q0 -87 -53 -148.5t-141 -84.5l153 -290h-151l-139 278h-89l-59 -278h-135zM415 601h-117l-45 -209h119q65 0 102.5 34t37.5 89q0 40 -24.5 63t-72.5 23zM312 785l141 144h162l-175 -144h-128z" />
    <glyph glyph-name="racute" unicode="&#x155;" horiz-adv-x="399" 
d="M18 0l106 503h131l-20 -95q64 104 167 104h21l-26 -121h-26q-67 0 -111.5 -42.5t-64.5 -134.5l-45 -214h-132zM201 587l143 174h150l-181 -174h-112z" />
    <glyph glyph-name="Rcaron" unicode="&#x158;" horiz-adv-x="696" 
d="M35 0l152 715h246q104 0 160 -51t56 -141q0 -87 -53 -148.5t-141 -84.5l153 -290h-151l-139 278h-89l-59 -278h-135zM415 601h-117l-45 -209h119q65 0 102.5 34t37.5 89q0 40 -24.5 63t-72.5 23zM332 799l-97 144h122l61 -74l90 74h122l-158 -144h-140z" />
    <glyph glyph-name="rcaron" unicode="&#x159;" horiz-adv-x="399" 
d="M18 0l106 503h131l-20 -95q64 104 167 104h21l-26 -121h-26q-67 0 -111.5 -42.5t-64.5 -134.5l-45 -214h-132zM218 587l-82 174h117l53 -94l94 94h115l-156 -174h-141z" />
    <glyph glyph-name="Sacute" unicode="&#x15a;" horiz-adv-x="651" 
d="M10 122l95 82q37 -47 91.5 -75.5t121.5 -28.5q66 0 105 28.5t39 76.5q0 37 -29.5 59t-106.5 41q-112 28 -164.5 73t-52.5 120q0 68 37.5 120.5t101.5 82.5t142 30q97 0 171 -37.5t112 -98.5l-94 -81q-36 50 -84.5 75.5t-111.5 25.5q-58 0 -96 -27t-38 -68q0 -35 29 -55.5
t105 -39.5q114 -28 167 -76t53 -126q0 -72 -38.5 -125.5t-104.5 -83.5t-148 -30q-61 0 -120.5 17t-107 48t-74.5 73zM327 785l141 144h162l-175 -144h-128z" />
    <glyph glyph-name="sacute" unicode="&#x15b;" horiz-adv-x="497" 
d="M-9 84l80 74q21 -32 63 -53.5t95 -21.5q22 0 43 6.5t35 19.5t14 34q0 23 -21 36t-71 24q-85 20 -125.5 57t-40.5 92q0 49 28 86.5t77.5 59t112.5 21.5q67 0 122.5 -25.5t88.5 -70.5l-82 -72q-20 32 -55 51t-79 19q-40 0 -63.5 -15t-23.5 -41q0 -18 19 -30.5t69 -24.5
q89 -21 130.5 -57t41.5 -94q0 -55 -31.5 -94.5t-83 -60t-112.5 -20.5q-44 0 -88.5 11t-81.5 33t-61 56zM212 587l143 174h150l-181 -174h-112z" />
    <glyph glyph-name="Scedilla" unicode="&#x15e;" horiz-adv-x="651" 
d="M10 122l95 82q37 -47 91.5 -75.5t121.5 -28.5q66 0 105 28.5t39 76.5q0 37 -29.5 59t-106.5 41q-112 28 -164.5 73t-52.5 120q0 68 37.5 120.5t101.5 82.5t142 30q97 0 171 -37.5t112 -98.5l-94 -81q-36 50 -84.5 75.5t-111.5 25.5q-58 0 -96 -27t-38 -68q0 -35 29 -55.5
t105 -39.5q114 -28 167 -76t53 -126q0 -72 -38.5 -125.5t-104.5 -83.5t-148 -30q-61 0 -120.5 17t-107 48t-74.5 73zM145 -222l53 63q25 -25 65 -25q26 0 42 11.5t16 30.5q0 31 -49 31q-16 0 -46 -5l58 126h72l-25 -55q39 -7 61 -30t22 -57q0 -37 -20.5 -66t-56.5 -46
t-81 -17q-72 0 -111 39z" />
    <glyph glyph-name="scedilla" unicode="&#x15f;" horiz-adv-x="497" 
d="M-9 84l80 74q21 -32 63 -53.5t95 -21.5q22 0 43 6.5t35 19.5t14 34q0 23 -21 36t-71 24q-85 20 -125.5 57t-40.5 92q0 49 28 86.5t77.5 59t112.5 21.5q67 0 122.5 -25.5t88.5 -70.5l-82 -72q-20 32 -55 51t-79 19q-40 0 -63.5 -15t-23.5 -41q0 -18 19 -30.5t69 -24.5
q89 -21 130.5 -57t41.5 -94q0 -55 -31.5 -94.5t-83 -60t-112.5 -20.5q-44 0 -88.5 11t-81.5 33t-61 56zM42 -222l51 62q29 -25 66 -25q24 0 39 12t15 31q0 33 -49 33q-13 0 -24.5 -1t-21.5 -4l61 124h71l-28 -56q39 -7 60 -29.5t21 -53.5q0 -57 -42 -94.5t-115 -37.5
q-34 0 -59 9t-45 30z" />
    <glyph glyph-name="Scaron" unicode="&#x160;" horiz-adv-x="651" 
d="M10 122l95 82q37 -47 91.5 -75.5t121.5 -28.5q66 0 105 28.5t39 76.5q0 37 -29.5 59t-106.5 41q-112 28 -164.5 73t-52.5 120q0 68 37.5 120.5t101.5 82.5t142 30q97 0 171 -37.5t112 -98.5l-94 -81q-36 50 -84.5 75.5t-111.5 25.5q-58 0 -96 -27t-38 -68q0 -35 29 -55.5
t105 -39.5q114 -28 167 -76t53 -126q0 -72 -38.5 -125.5t-104.5 -83.5t-148 -30q-61 0 -120.5 17t-107 48t-74.5 73zM347 799l-97 144h122l61 -74l90 74h122l-158 -144h-140z" />
    <glyph glyph-name="scaron" unicode="&#x161;" horiz-adv-x="497" 
d="M-9 84l80 74q21 -32 63 -53.5t95 -21.5q22 0 43 6.5t35 19.5t14 34q0 23 -21 36t-71 24q-85 20 -125.5 57t-40.5 92q0 49 28 86.5t77.5 59t112.5 21.5q67 0 122.5 -25.5t88.5 -70.5l-82 -72q-20 32 -55 51t-79 19q-40 0 -63.5 -15t-23.5 -41q0 -18 19 -30.5t69 -24.5
q89 -21 130.5 -57t41.5 -94q0 -55 -31.5 -94.5t-83 -60t-112.5 -20.5q-44 0 -88.5 11t-81.5 33t-61 56zM229 587l-82 174h117l53 -94l94 94h115l-156 -174h-141z" />
    <glyph glyph-name="uni0162" unicode="&#x162;" horiz-adv-x="605" 
d="M183 0l126 599h-203l25 116h541l-25 -116h-203l-126 -599h-135zM81 -222l53 63q25 -25 65 -25q26 0 42 11.5t16 30.5q0 31 -49 31q-16 0 -46 -5l58 126h72l-25 -55q39 -7 61 -30t22 -57q0 -37 -20.5 -66t-56.5 -46t-81 -17q-72 0 -111 39z" />
    <glyph glyph-name="uni0163" unicode="&#x163;" horiz-adv-x="383" 
d="M88 174l48 223h-78l22 106h79l28 133h132l-28 -133h106l-23 -106h-106l-47 -219q-4 -20 -4 -34q0 -19 10 -27t35 -8h60l-23 -109h-78q-73 0 -107 26.5t-34 83.5q0 13 2 29t6 35zM43 -222l51 62q29 -25 66 -25q24 0 39 12t15 31q0 33 -49 33q-13 0 -24.5 -1t-21.5 -4
l61 124h71l-28 -56q39 -7 60 -29.5t21 -53.5q0 -57 -42 -94.5t-115 -37.5q-34 0 -59 9t-45 30z" />
    <glyph glyph-name="Tcaron" unicode="&#x164;" horiz-adv-x="605" 
d="M183 0l126 599h-203l25 116h541l-25 -116h-203l-126 -599h-135zM345 799l-97 144h122l61 -74l90 74h122l-158 -144h-140z" />
    <glyph glyph-name="tcaron" unicode="&#x165;" horiz-adv-x="404" 
d="M88 174l48 223h-78l22 106h79l28 133h132l-28 -133h106l-23 -106h-106l-47 -219q-4 -20 -4 -34q0 -19 10 -27t35 -8h60l-23 -109h-78q-73 0 -107 26.5t-34 83.5q0 13 2 29t6 35zM416 553h-65q42 40 63 81q-30 13 -30 47q0 30 21 51t51 21q56 0 56 -54q0 -34 -26.5 -72
t-69.5 -74z" />
    <glyph glyph-name="Tbar" unicode="&#x166;" horiz-adv-x="605" 
d="M182 0l65 305h-147l24 114h147l38 180h-203l24 116h541l-24 -116h-203l-38 -180h146l-24 -114h-146l-65 -305h-135z" />
    <glyph glyph-name="tbar" unicode="&#x167;" horiz-adv-x="393" 
d="M94 174l10 46h-79l20 96h79l18 81h-79l23 106h79l28 133h132l-28 -133h105l-22 -106h-106l-17 -81h106l-21 -96h-106l-9 -42q-4 -20 -4 -34q0 -19 10.5 -27t34.5 -8h60l-23 -109h-78q-73 0 -107 26.5t-34 83.5q0 7 2 26t6 38z" />
    <glyph glyph-name="Utilde" unicode="&#x168;" horiz-adv-x="723" 
d="M83 282l92 433h135l-92 -433q-3 -15 -5 -32t-2 -30q0 -55 31.5 -85.5t94.5 -30.5q73 0 118.5 47.5t63.5 130.5l91 433h134l-91 -432q-31 -145 -112 -222t-218 -77q-120 0 -184 56.5t-64 161.5q0 19 2 39t6 41zM415 931q26 0 49 -11t45 -31q11 -10 18.5 -16t17.5 -6
q25 0 49 59l77 -38q-19 -53 -56.5 -81t-81.5 -28q-50 0 -95 43q-10 10 -17.5 15.5t-18.5 5.5q-25 0 -49 -59l-77 38q20 53 57 81t82 28z" />
    <glyph glyph-name="utilde" unicode="&#x169;" horiz-adv-x="584" 
d="M461 0h-131l18 85q-32 -49 -75 -75t-89 -26q-65 0 -102 40t-37 104q0 44 12 102l58 273h132l-58 -273q-9 -45 -9 -68q0 -31 15.5 -49.5t43.5 -18.5q110 0 155 215l41 194h132zM307 737q25 0 46.5 -10t46.5 -32q16 -15 23.5 -19.5t14.5 -4.5q26 0 49 59l74 -40
q-20 -52 -54 -80.5t-75 -28.5q-47 0 -92 42q-16 15 -23.5 19.5t-15.5 4.5q-27 0 -48 -59l-75 40q20 52 54.5 80.5t74.5 28.5z" />
    <glyph glyph-name="Umacron" unicode="&#x16a;" horiz-adv-x="723" 
d="M83 282l92 433h135l-92 -433q-3 -15 -5 -32t-2 -30q0 -55 31.5 -85.5t94.5 -30.5q73 0 118.5 47.5t63.5 130.5l91 433h134l-91 -432q-31 -145 -112 -222t-218 -77q-120 0 -184 56.5t-64 161.5q0 19 2 39t6 41zM315 807l20 95h314l-20 -95h-314z" />
    <glyph glyph-name="umacron" unicode="&#x16b;" horiz-adv-x="584" 
d="M461 0h-131l18 85q-32 -49 -75 -75t-89 -26q-65 0 -102 40t-37 104q0 44 12 102l58 273h132l-58 -273q-9 -45 -9 -68q0 -31 15.5 -49.5t43.5 -18.5q110 0 155 215l41 194h132zM205 603l20 92h292l-19 -92h-293z" />
    <glyph glyph-name="Uring" unicode="&#x16e;" horiz-adv-x="723" 
d="M83 282l92 433h135l-92 -433q-3 -15 -5 -32t-2 -30q0 -55 31.5 -85.5t94.5 -30.5q73 0 118.5 47.5t63.5 130.5l91 433h134l-91 -432q-31 -145 -112 -222t-218 -77q-120 0 -184 56.5t-64 161.5q0 19 2 39t6 41zM525 989q43 0 70.5 -27t27.5 -70q0 -41 -20.5 -75.5
t-54.5 -54.5t-76 -20q-43 0 -70.5 27t-27.5 70q0 42 20 76t54.5 54t76.5 20zM510 920q-28 0 -45 -19t-17 -48q0 -19 10.5 -30.5t28.5 -11.5q26 0 44 19.5t18 47.5q0 19 -11 30.5t-28 11.5z" />
    <glyph glyph-name="uring" unicode="&#x16f;" horiz-adv-x="584" 
d="M461 0h-131l18 85q-32 -49 -75 -75t-89 -26q-65 0 -102 40t-37 104q0 44 12 102l58 273h132l-58 -273q-9 -45 -9 -68q0 -31 15.5 -49.5t43.5 -18.5q110 0 155 215l41 194h132zM401 801q41 0 69.5 -27.5t28.5 -67.5q0 -64 -41.5 -106t-106.5 -42q-40 0 -68.5 27.5
t-28.5 67.5q0 65 41.5 106.5t105.5 41.5zM387 732q-25 0 -42.5 -17.5t-17.5 -45.5q0 -19 10.5 -30.5t28.5 -11.5q26 0 42.5 17.5t16.5 45.5q0 19 -10.5 30.5t-27.5 11.5z" />
    <glyph glyph-name="Uhungarumlaut" unicode="&#x170;" horiz-adv-x="723" 
d="M83 282l92 433h135l-92 -433q-3 -15 -5 -32t-2 -30q0 -55 31.5 -85.5t94.5 -30.5q73 0 118.5 47.5t63.5 130.5l91 433h134l-91 -432q-31 -145 -112 -222t-218 -77q-120 0 -184 56.5t-64 161.5q0 19 2 39t6 41zM294 789l156 164h154l-184 -164h-126zM482 789l177 164h153
l-204 -164h-126z" />
    <glyph glyph-name="uhungarumlaut" unicode="&#x171;" horiz-adv-x="584" 
d="M461 0h-131l18 85q-32 -49 -75 -75t-89 -26q-65 0 -102 40t-37 104q0 44 12 102l58 273h132l-58 -273q-9 -45 -9 -68q0 -31 15.5 -49.5t43.5 -18.5q110 0 155 215l41 194h132zM176 587l152 174h145l-179 -174h-118zM357 587l172 174h145l-198 -174h-119z" />
    <glyph glyph-name="Uogonek" unicode="&#x172;" horiz-adv-x="723" 
d="M83 282l92 433h135l-92 -433q-3 -15 -5 -32t-2 -30q0 -55 31.5 -85.5t94.5 -30.5q73 0 118.5 47.5t63.5 130.5l91 433h134l-91 -432q-31 -145 -112 -222t-218 -77q-120 0 -184 56.5t-64 161.5q0 19 2 39t6 41zM440 -159l-19 -89q-10 -2 -21 -3t-23 -1q-58 0 -91 24.5
t-33 67.5q0 53 36.5 97.5t111.5 86.5h89q-61 -30 -93.5 -67t-32.5 -76q0 -20 12.5 -31.5t34.5 -11.5q16 0 29 3z" />
    <glyph glyph-name="uogonek" unicode="&#x173;" horiz-adv-x="584" 
d="M461 0h-131l18 85q-32 -49 -75 -75t-89 -26q-65 0 -102 40t-37 104q0 44 12 102l58 273h132l-58 -273q-9 -45 -9 -68q0 -31 15.5 -49.5t43.5 -18.5q110 0 155 215l41 194h132zM424 -160l-19 -88q-20 -4 -45 -4q-57 0 -89.5 23.5t-32.5 65.5q0 56 39 100.5t111 84.5
l70 -22q-47 -25 -79.5 -57t-32.5 -68q0 -38 49 -38q13 0 29 3z" />
    <glyph glyph-name="Wcircumflex" unicode="&#x174;" horiz-adv-x="999" 
d="M172 0l-36 715h139l11 -533l254 533h120l24 -528l229 528h147l-336 -715h-143l-22 511l-244 -511h-143zM419 799l158 144h140l97 -144h-122l-59 73l-90 -73h-124z" />
    <glyph glyph-name="wcircumflex" unicode="&#x175;" horiz-adv-x="774" 
d="M105 0l-34 503h128l11 -355l174 355h106l26 -357l160 357h129l-249 -503h-130l-29 322l-162 -322h-130zM265 587l156 174h141l82 -174h-117l-53 94l-93 -94h-116z" />
    <glyph glyph-name="Ycircumflex" unicode="&#x176;" horiz-adv-x="703" 
d="M231 0l62 291l-163 424h145l108 -303l233 303h155l-344 -425l-61 -290h-135zM264 799l158 144h140l97 -144h-122l-59 73l-90 -73h-124z" />
    <glyph glyph-name="ycircumflex" unicode="&#x177;" horiz-adv-x="558" 
d="M-25 -194l23 108h62q29 0 47.5 13.5t33.5 45.5l13 27l-91 503h134l52 -371l204 371h135l-339 -566q-31 -51 -59 -79.5t-63 -40t-87 -11.5h-65zM149 587l156 174h141l82 -174h-117l-53 94l-93 -94h-116z" />
    <glyph glyph-name="Ydieresis" unicode="&#x178;" horiz-adv-x="703" 
d="M231 0l62 291l-163 424h145l108 -303l233 303h155l-344 -425l-61 -290h-135zM351 790q-28 0 -45.5 17t-17.5 43q0 38 27 64.5t69 26.5q27 0 44 -16.5t17 -42.5q0 -39 -26.5 -65.5t-67.5 -26.5zM572 790q-28 0 -45.5 17t-17.5 43q0 38 27 64.5t68 26.5q28 0 45 -16.5
t17 -42.5q0 -39 -26.5 -65.5t-67.5 -26.5z" />
    <glyph glyph-name="Zacute" unicode="&#x179;" horiz-adv-x="598" 
d="M-13 0l25 115l438 485h-332l25 115h498l-25 -115l-438 -485h348l-25 -115h-514zM320 785l141 144h162l-175 -144h-128z" />
    <glyph glyph-name="zacute" unicode="&#x17a;" horiz-adv-x="493" 
d="M-3 0l23 108l297 289h-238l22 106h399l-23 -106l-298 -291h248l-22 -106h-408zM223 587l143 174h150l-181 -174h-112z" />
    <glyph glyph-name="Zdotaccent" unicode="&#x17b;" horiz-adv-x="598" 
d="M-13 0l25 115l438 485h-332l25 115h498l-25 -115l-438 -485h348l-25 -115h-514zM402 789q-28 0 -45.5 16.5t-17.5 44.5q0 38 27 65t68 27q29 0 46 -16.5t17 -43.5q0 -38 -26.5 -65.5t-68.5 -27.5z" />
    <glyph glyph-name="zdotaccent" unicode="&#x17c;" horiz-adv-x="493" 
d="M-3 0l23 108l297 289h-238l22 106h399l-23 -106l-298 -291h248l-22 -106h-408zM319 592q-28 0 -45.5 16.5t-17.5 43.5q0 38 27 64.5t67 26.5q28 0 45 -16.5t17 -42.5q0 -39 -26 -65.5t-67 -26.5z" />
    <glyph glyph-name="Zcaron" unicode="&#x17d;" horiz-adv-x="598" 
d="M-13 0l25 115l438 485h-332l25 115h498l-25 -115l-438 -485h348l-25 -115h-514zM340 799l-97 144h122l61 -74l90 74h122l-158 -144h-140z" />
    <glyph glyph-name="zcaron" unicode="&#x17e;" horiz-adv-x="493" 
d="M-3 0l23 108l297 289h-238l22 106h399l-23 -106l-298 -291h248l-22 -106h-408zM240 587l-82 174h117l53 -94l94 94h115l-156 -174h-141z" />
    <glyph glyph-name="uni0218" unicode="&#x218;" horiz-adv-x="651" 
d="M10 122l95 82q37 -47 91.5 -75.5t121.5 -28.5q66 0 105 28.5t39 76.5q0 37 -29.5 59t-106.5 41q-112 28 -164.5 73t-52.5 120q0 68 37.5 120.5t101.5 82.5t142 30q97 0 171 -37.5t112 -98.5l-94 -81q-36 50 -84.5 75.5t-111.5 25.5q-58 0 -96 -27t-38 -68q0 -35 29 -55.5
t105 -39.5q114 -28 167 -76t53 -126q0 -72 -38.5 -125.5t-104.5 -83.5t-148 -30q-61 0 -120.5 17t-107 48t-74.5 73zM246 -292h-67q24 23 42.5 48.5t26.5 46.5q-33 11 -33 48q0 28 19 49.5t54 21.5q26 0 41.5 -15t15.5 -43q0 -37 -30.5 -78.5t-68.5 -77.5z" />
    <glyph glyph-name="uni0219" unicode="&#x219;" horiz-adv-x="497" 
d="M-9 84l80 74q21 -32 63 -53.5t95 -21.5q22 0 43 6.5t35 19.5t14 34q0 23 -21 36t-71 24q-85 20 -125.5 57t-40.5 92q0 49 28 86.5t77.5 59t112.5 21.5q67 0 122.5 -25.5t88.5 -70.5l-82 -72q-20 32 -55 51t-79 19q-40 0 -63.5 -15t-23.5 -41q0 -18 19 -30.5t69 -24.5
q89 -21 130.5 -57t41.5 -94q0 -55 -31.5 -94.5t-83 -60t-112.5 -20.5q-44 0 -88.5 11t-81.5 33t-61 56zM141 -292h-64q24 23 42.5 48.5t26.5 46.5q-33 11 -33 48q0 32 20.5 51.5t51.5 19.5q23 0 38.5 -14.5t15.5 -40.5q0 -32 -24 -72t-74 -87z" />
    <glyph glyph-name="uni021A" unicode="&#x21a;" horiz-adv-x="605" 
d="M183 0l126 599h-203l25 116h541l-25 -116h-203l-126 -599h-135zM182 -292h-67q24 23 42.5 48.5t26.5 46.5q-33 11 -33 48q0 28 19 49.5t54 21.5q26 0 41.5 -15t15.5 -43q0 -37 -30.5 -78.5t-68.5 -77.5z" />
    <glyph glyph-name="uni021B" unicode="&#x21b;" horiz-adv-x="383" 
d="M88 174l48 223h-78l22 106h79l28 133h132l-28 -133h106l-23 -106h-106l-47 -219q-4 -20 -4 -34q0 -19 10 -27t35 -8h60l-23 -109h-78q-73 0 -107 26.5t-34 83.5q0 13 2 29t6 35zM142 -292h-64q24 23 42.5 48.5t26.5 46.5q-33 11 -33 48q0 32 20.5 51.5t51.5 19.5
q23 0 38.5 -14.5t15.5 -40.5q0 -32 -24 -72t-74 -87z" />
    <glyph glyph-name="uni0237" unicode="&#x237;" horiz-adv-x="262" 
d="M-106 -194l23 108h33q27 0 39.5 13t19.5 43l113 533h132l-118 -555q-16 -74 -55.5 -108t-108.5 -34h-78z" />
    <glyph glyph-name="circumflex" unicode="&#x2c6;" horiz-adv-x="590" 
d="M177 587l156 174h141l82 -174h-117l-53 94l-93 -94h-116z" />
    <glyph glyph-name="caron" unicode="&#x2c7;" horiz-adv-x="590" 
d="M296 587l-82 174h117l53 -94l94 94h115l-156 -174h-141z" />
    <glyph glyph-name="breve" unicode="&#x2d8;" horiz-adv-x="590" 
d="M235 748h98v-12q0 -63 52 -63q57 0 82 75h99q-49 -163 -199 -163q-61 0 -97.5 37t-36.5 98q0 5 0.5 11.5t1.5 16.5z" />
    <glyph glyph-name="dotaccent" unicode="&#x2d9;" horiz-adv-x="590" 
d="M370 592q-28 0 -45.5 16.5t-17.5 43.5q0 38 27 64.5t67 26.5q28 0 45 -16.5t17 -42.5q0 -39 -26 -65.5t-67 -26.5z" />
    <glyph glyph-name="ring" unicode="&#x2da;" horiz-adv-x="590" 
d="M408 801q41 0 69.5 -27.5t28.5 -67.5q0 -64 -41.5 -106t-106.5 -42q-40 0 -68.5 27.5t-28.5 67.5q0 65 41.5 106.5t105.5 41.5zM394 732q-25 0 -42.5 -17.5t-17.5 -45.5q0 -19 10.5 -30.5t28.5 -11.5q26 0 42.5 17.5t16.5 45.5q0 19 -10.5 30.5t-27.5 11.5z" />
    <glyph glyph-name="ogonek" unicode="&#x2db;" horiz-adv-x="590" 
d="M338 -160l-19 -88q-20 -4 -45 -4q-57 0 -89.5 23.5t-32.5 65.5q0 56 39 100.5t111 84.5l70 -22q-47 -25 -79.5 -57t-32.5 -68q0 -38 49 -38q13 0 29 3z" />
    <glyph glyph-name="tilde" unicode="&#x2dc;" horiz-adv-x="590" 
d="M319 737q25 0 46.5 -10t46.5 -32q16 -15 23.5 -19.5t14.5 -4.5q26 0 49 59l74 -40q-20 -52 -54 -80.5t-75 -28.5q-47 0 -92 42q-16 15 -23.5 19.5t-15.5 4.5q-27 0 -48 -59l-75 40q20 52 54.5 80.5t74.5 28.5z" />
    <glyph glyph-name="hungarumlaut" unicode="&#x2dd;" horiz-adv-x="590" 
d="M115 587l152 174h145l-179 -174h-118zM296 587l172 174h145l-198 -174h-119z" />
    <glyph glyph-name="gravecomb" unicode="&#x300;" 
d="M-50 587l-106 174h143l72 -174h-109z" />
    <glyph glyph-name="acutecomb" unicode="&#x301;" 
d="M-84 587l143 174h150l-181 -174h-112z" />
    <glyph glyph-name="uni0302" unicode="&#x302;" 
d="M-177 587l156 174h141l82 -174h-117l-53 94l-93 -94h-116z" />
    <glyph glyph-name="tildecomb" unicode="&#x303;" 
d="M-41 737q25 0 46.5 -10t46.5 -32q16 -15 23.5 -19.5t14.5 -4.5q26 0 49 59l74 -40q-20 -52 -54 -80.5t-75 -28.5q-47 0 -92 42q-16 15 -23.5 19.5t-15.5 4.5q-27 0 -48 -59l-75 40q20 52 54.5 80.5t74.5 28.5z" />
    <glyph glyph-name="uni0304" unicode="&#x304;" 
d="M-143 603l20 92h292l-19 -92h-293z" />
    <glyph glyph-name="uni0306" unicode="&#x306;" 
d="M-122 748h98v-12q0 -63 52 -63q57 0 82 75h99q-49 -163 -199 -163q-61 0 -97.5 37t-36.5 98q0 5 0.5 11.5t1.5 16.5z" />
    <glyph glyph-name="uni0307" unicode="&#x307;" 
d="M12 592q-28 0 -45.5 16.5t-17.5 43.5q0 38 27 64.5t67 26.5q28 0 45 -16.5t17 -42.5q0 -39 -26 -65.5t-67 -26.5z" />
    <glyph glyph-name="uni0308" unicode="&#x308;" 
d="M-96 592q-28 0 -45.5 17t-17.5 43q0 38 26.5 64.5t67.5 26.5q28 0 45 -16.5t17 -42.5q0 -39 -26 -65.5t-67 -26.5zM120 592q-28 0 -45 17t-17 43q0 38 26.5 64.5t67.5 26.5q28 0 44.5 -16.5t16.5 -42.5q0 -39 -26 -65.5t-67 -26.5z" />
    <glyph glyph-name="uni030A" unicode="&#x30a;" 
d="M53 801q41 0 69.5 -27.5t28.5 -67.5q0 -64 -41.5 -106t-106.5 -42q-40 0 -68.5 27.5t-28.5 67.5q0 65 41.5 106.5t105.5 41.5zM39 732q-25 0 -42.5 -17.5t-17.5 -45.5q0 -19 10.5 -30.5t28.5 -11.5q26 0 42.5 17.5t16.5 45.5q0 19 -10.5 30.5t-27.5 11.5z" />
    <glyph glyph-name="uni030B" unicode="&#x30b;" 
d="M-172 587l152 174h145l-179 -174h-118zM9 587l172 174h145l-198 -174h-119z" />
    <glyph glyph-name="uni030C" unicode="&#x30c;" 
d="M-67 587l-82 174h117l53 -94l94 94h115l-156 -174h-141z" />
    <glyph glyph-name="uni0312" unicode="&#x312;" 
d="M67 641q0 -31 -20.5 -50.5t-51.5 -19.5q-23 0 -38.5 15.5t-15.5 38.5q0 34 23.5 72.5t75.5 87.5h64q-24 -23 -42.5 -48.5t-27.5 -46.5q33 -12 33 -49z" />
    <glyph glyph-name="uni0315" unicode="&#x315;" 
d="M-19 491h-66q26 25 46.5 53.5t29.5 53.5q-17 5 -27 19t-10 33q0 34 24 57.5t57 23.5q27 0 41.5 -15.5t14.5 -42.5q0 -37 -30 -86.5t-80 -95.5z" />
    <glyph glyph-name="dotbelowcomb" unicode="&#x323;" 
d="M-42 -249q-28 0 -45 16.5t-17 43.5q0 38 27 64.5t67 26.5q28 0 45 -16.5t17 -42.5q0 -39 -26.5 -65.5t-67.5 -26.5z" />
    <glyph glyph-name="uni0326" unicode="&#x326;" 
d="M-49 -292h-64q24 23 42.5 48.5t26.5 46.5q-33 11 -33 48q0 32 20.5 51.5t51.5 19.5q23 0 38.5 -14.5t15.5 -40.5q0 -32 -24 -72t-74 -87z" />
    <glyph glyph-name="uni0327" unicode="&#x327;" 
d="M-148 -222l51 62q29 -25 66 -25q24 0 39 12t15 31q0 33 -49 33q-13 0 -24.5 -1t-21.5 -4l61 124h71l-28 -56q39 -7 60 -29.5t21 -53.5q0 -57 -42 -94.5t-115 -37.5q-34 0 -59 9t-45 30z" />
    <glyph glyph-name="uni0328" unicode="&#x328;" 
d="M72 -160l-19 -88q-20 -4 -45 -4q-57 0 -89.5 23.5t-32.5 65.5q0 56 39 100.5t111 84.5l70 -22q-47 -25 -79.5 -57t-32.5 -68q0 -38 49 -38q13 0 29 3z" />
    <glyph glyph-name="uni1E24" unicode="&#x1e24;" horiz-adv-x="744" 
d="M35 0l151 715h135l-61 -290h298l61 290h135l-151 -715h-135l65 310h-298l-65 -310h-135zM208 -182q0 39 27.5 66t68.5 27q29 0 46 -16.5t17 -43.5q0 -39 -27.5 -66t-68.5 -27q-28 0 -45.5 16.5t-17.5 43.5z" />
    <glyph glyph-name="uni1E25" unicode="&#x1e25;" horiz-adv-x="590" 
d="M18 0l153 720h132l-64 -300q31 47 74.5 73t93.5 26q62 0 100 -41.5t38 -112.5q0 -19 -2.5 -41t-9.5 -51l-58 -273h-132l58 273q4 21 6.5 39t2.5 28q0 32 -16.5 50.5t-47.5 18.5q-55 0 -93.5 -54.5t-61.5 -160.5l-41 -194h-132zM202 -249q-28 0 -45 16.5t-17 43.5
q0 38 27 64.5t67 26.5q28 0 45 -16.5t17 -42.5q0 -39 -26.5 -65.5t-67.5 -26.5z" />
    <glyph glyph-name="uni1E36" unicode="&#x1e36;" horiz-adv-x="570" 
d="M35 0l151 715h135l-125 -598h314l-24 -117h-451zM161 -182q0 39 27.5 66t68.5 27q29 0 46 -16.5t17 -43.5q0 -39 -27.5 -66t-68.5 -27q-28 0 -45.5 16.5t-17.5 43.5z" />
    <glyph glyph-name="uni1E37" unicode="&#x1e37;" horiz-adv-x="308" 
d="M54 168l117 552h132l-117 -549q-4 -19 -4 -32q0 -30 33 -30h48l-23 -109h-73q-64 0 -93 25t-29 80q0 23 9 63zM86 -249q-28 0 -45 16.5t-17 43.5q0 38 27 64.5t67 26.5q28 0 45 -16.5t17 -42.5q0 -39 -26.5 -65.5t-67.5 -26.5z" />
    <glyph glyph-name="Wgrave" unicode="&#x1e80;" horiz-adv-x="999" 
d="M172 0l-36 715h139l11 -533l254 533h120l24 -528l229 528h147l-336 -715h-143l-22 511l-244 -511h-143zM548 793l-131 144h158l98 -144h-125z" />
    <glyph glyph-name="wgrave" unicode="&#x1e81;" horiz-adv-x="774" 
d="M105 0l-34 503h128l11 -355l174 355h106l26 -357l160 357h129l-249 -503h-130l-29 322l-162 -322h-130zM392 587l-106 174h143l72 -174h-109z" />
    <glyph glyph-name="Wacute" unicode="&#x1e82;" horiz-adv-x="999" 
d="M172 0l-36 715h139l11 -533l254 533h120l24 -528l229 528h147l-336 -715h-143l-22 511l-244 -511h-143zM531 785l141 144h162l-175 -144h-128z" />
    <glyph glyph-name="wacute" unicode="&#x1e83;" horiz-adv-x="774" 
d="M105 0l-34 503h128l11 -355l174 355h106l26 -357l160 357h129l-249 -503h-130l-29 322l-162 -322h-130zM358 587l143 174h150l-181 -174h-112z" />
    <glyph glyph-name="Wdieresis" unicode="&#x1e84;" horiz-adv-x="999" 
d="M172 0l-36 715h139l11 -533l254 533h120l24 -528l229 528h147l-336 -715h-143l-22 511l-244 -511h-143zM506 790q-28 0 -45.5 17t-17.5 43q0 38 27 64.5t69 26.5q27 0 44 -16.5t17 -42.5q0 -39 -26.5 -65.5t-67.5 -26.5zM727 790q-28 0 -45.5 17t-17.5 43q0 38 27 64.5
t68 26.5q28 0 45 -16.5t17 -42.5q0 -39 -26.5 -65.5t-67.5 -26.5z" />
    <glyph glyph-name="wdieresis" unicode="&#x1e85;" horiz-adv-x="774" 
d="M105 0l-34 503h128l11 -355l174 355h106l26 -357l160 357h129l-249 -503h-130l-29 322l-162 -322h-130zM346 592q-28 0 -45.5 17t-17.5 43q0 38 26.5 64.5t67.5 26.5q28 0 45 -16.5t17 -42.5q0 -39 -26 -65.5t-67 -26.5zM562 592q-28 0 -45 17t-17 43q0 38 26.5 64.5
t67.5 26.5q28 0 44.5 -16.5t16.5 -42.5q0 -39 -26 -65.5t-67 -26.5z" />
    <glyph glyph-name="uni1E9E" unicode="&#x1e9e;" horiz-adv-x="745" 
d="M24 0l88 417q32 147 121 222.5t231 75.5h292l-22 -108l-187 -183q49 -1 87 -23.5t60 -61.5t22 -92q0 -74 -36 -134t-99.5 -94.5t-145.5 -34.5q-73 0 -128.5 23t-87.5 66l84 86q32 -37 61 -52.5t69 -15.5q67 0 107.5 41t40.5 108q0 43 -26 67t-71 24q-43 0 -78 -26l-60 68
l244 235h-141q-78 0 -130 -49.5t-72 -141.5l-87 -417h-136z" />
    <glyph glyph-name="Ygrave" unicode="&#x1ef2;" horiz-adv-x="703" 
d="M231 0l62 291l-163 424h145l108 -303l233 303h155l-344 -425l-61 -290h-135zM393 793l-131 144h158l98 -144h-125z" />
    <glyph glyph-name="ygrave" unicode="&#x1ef3;" horiz-adv-x="558" 
d="M-25 -194l23 108h62q29 0 47.5 13.5t33.5 45.5l13 27l-91 503h134l52 -371l204 371h135l-339 -566q-31 -51 -59 -79.5t-63 -40t-87 -11.5h-65zM276 587l-106 174h143l72 -174h-109z" />
    <glyph glyph-name="uni2000" unicode="&#x2000;" horiz-adv-x="500" 
 />
    <glyph glyph-name="uni2001" unicode="&#x2001;" horiz-adv-x="1000" 
 />
    <glyph glyph-name="uni2002" unicode="&#x2002;" horiz-adv-x="500" 
 />
    <glyph glyph-name="uni2003" unicode="&#x2003;" horiz-adv-x="1000" 
 />
    <glyph glyph-name="uni2004" unicode="&#x2004;" horiz-adv-x="333" 
 />
    <glyph glyph-name="uni2005" unicode="&#x2005;" horiz-adv-x="250" 
 />
    <glyph glyph-name="uni2006" unicode="&#x2006;" horiz-adv-x="167" 
 />
    <glyph glyph-name="uni2007" unicode="&#x2007;" horiz-adv-x="632" 
 />
    <glyph glyph-name="uni2008" unicode="&#x2008;" horiz-adv-x="264" 
 />
    <glyph glyph-name="uni2009" unicode="&#x2009;" horiz-adv-x="200" 
 />
    <glyph glyph-name="uni200A" unicode="&#x200a;" horiz-adv-x="125" 
 />
    <glyph glyph-name="uni200B" unicode="&#x200b;" 
 />
    <glyph glyph-name="uni2010" unicode="&#x2010;" horiz-adv-x="322" 
d="M23 221l24 113h264l-24 -113h-264z" />
    <glyph glyph-name="uni2011" unicode="&#x2011;" horiz-adv-x="322" 
d="M23 221l24 113h264l-24 -113h-264z" />
    <glyph glyph-name="figuredash" unicode="&#x2012;" horiz-adv-x="500" 
d="M5 300l22 113h500l-22 -113h-500z" />
    <glyph glyph-name="endash" unicode="&#x2013;" horiz-adv-x="500" 
d="M-11 221l22 113h500l-22 -113h-500z" />
    <glyph glyph-name="emdash" unicode="&#x2014;" horiz-adv-x="1000" 
d="M-11 221l22 113h1000l-22 -113h-1000z" />
    <glyph glyph-name="uni2015" unicode="&#x2015;" horiz-adv-x="1000" 
d="M-11 221l22 113h1000l-22 -113h-1000z" />
    <glyph glyph-name="quoteleft" unicode="&#x2018;" horiz-adv-x="257" 
d="M269 551q0 -39 -27.5 -68t-70.5 -29q-31 0 -48.5 18.5t-17.5 49.5t17.5 70t47.5 79t69 74h75q-71 -73 -97 -132q24 -4 38 -20.5t14 -41.5z" />
    <glyph glyph-name="quoteright" unicode="&#x2019;" horiz-adv-x="257" 
d="M168 458h-74q35 38 59.5 71t36.5 61q-23 5 -37.5 21.5t-14.5 40.5q0 40 27.5 68.5t68.5 28.5q31 0 49 -18.5t18 -50.5q0 -31 -18 -70t-48 -79t-67 -73z" />
    <glyph glyph-name="quotesinglbase" unicode="&#x201a;" horiz-adv-x="257" 
d="M41 -142h-74q35 38 59.5 71t36.5 61q-23 5 -37.5 21.5t-14.5 40.5q0 40 27.5 68.5t68.5 28.5q31 0 49 -18.5t18 -50.5q0 -31 -18 -70t-48 -79t-67 -73z" />
    <glyph glyph-name="quotedblleft" unicode="&#x201c;" horiz-adv-x="446" 
d="M269 551q0 -39 -27.5 -68t-70.5 -29q-31 0 -48.5 18.5t-17.5 49.5t17.5 70t47.5 79t69 74h75q-71 -73 -97 -132q24 -4 38 -20.5t14 -41.5zM458 551q0 -39 -27.5 -68t-70.5 -29q-31 0 -48.5 18.5t-17.5 49.5t17.5 70t47.5 79t69 74h75q-71 -73 -97 -132q24 -4 38 -20.5
t14 -41.5z" />
    <glyph glyph-name="quotedblright" unicode="&#x201d;" horiz-adv-x="446" 
d="M168 458h-74q35 38 59.5 71t36.5 61q-23 5 -37.5 21.5t-14.5 40.5q0 40 27.5 68.5t68.5 28.5q31 0 49 -18.5t18 -50.5q0 -31 -18 -70t-48 -79t-67 -73zM357 458h-74q35 38 59.5 71t36.5 61q-23 5 -37.5 21.5t-14.5 40.5q0 40 27.5 68.5t68.5 28.5q31 0 49 -18.5t18 -50.5
q0 -31 -18 -70t-48 -79t-67 -73z" />
    <glyph glyph-name="quotedblbase" unicode="&#x201e;" horiz-adv-x="445" 
d="M41 -142h-74q35 38 59.5 71t36.5 61q-23 5 -37.5 21.5t-14.5 40.5q0 40 27.5 68.5t68.5 28.5q31 0 49 -18.5t18 -50.5q0 -31 -18 -70t-48 -79t-67 -73zM229 -142h-74q35 38 59.5 71t36.5 61q-23 5 -37.5 21.5t-14.5 40.5q0 40 27.5 68.5t68.5 28.5q31 0 49 -18.5
t18 -50.5q0 -31 -18 -70t-48 -79t-67 -73z" />
    <glyph glyph-name="dagger" unicode="&#x2020;" horiz-adv-x="451" 
d="M81 -129l111 526h-130l22 106h131l49 233h130l-49 -233h129l-22 -106h-130l-111 -526h-130z" />
    <glyph glyph-name="daggerdbl" unicode="&#x2021;" horiz-adv-x="450" 
d="M-1 104l23 106h130l39 187h-130l23 106h130l49 233h130l-49 -233h130l-23 -106h-130l-39 -187h130l-23 -106h-130l-49 -233h-130l49 233h-130z" />
    <glyph glyph-name="bullet" unicode="&#x2022;" horiz-adv-x="350" 
d="M60 249q0 42 20 74t53.5 50.5t72.5 18.5q41 0 68 -26t27 -67q0 -42 -20.5 -74.5t-53.5 -50.5t-72 -18q-41 0 -68 26.5t-27 66.5z" />
    <glyph glyph-name="ellipsis" unicode="&#x2026;" horiz-adv-x="1000" 
d="M48 59q0 40 27.5 67.5t67.5 27.5q32 0 53 -20.5t21 -53.5q0 -40 -27 -66.5t-67 -26.5q-33 0 -54 20t-21 52zM381 59q0 40 27.5 67.5t67.5 27.5q32 0 53 -20.5t21 -53.5q0 -40 -27 -66.5t-67 -26.5q-33 0 -54 20t-21 52zM708 59q0 40 27.5 67.5t67.5 27.5q32 0 53 -20.5
t21 -53.5q0 -40 -27 -66.5t-67 -26.5q-33 0 -54 20t-21 52z" />
    <glyph glyph-name="perthousand" unicode="&#x2030;" horiz-adv-x="1180" 
d="M47 0l601 715h134l-600 -715h-135zM425 133q0 49 24 92.5t66 71.5t95 28q40 0 73 -18t53 -50.5t20 -76.5q0 -48 -24 -91.5t-66 -71.5t-95 -28q-39 0 -72.5 18t-53.5 50.5t-20 75.5zM524 146q0 -26 15 -44t42 -18q33 0 54.5 26t21.5 57q0 27 -15.5 45t-41.5 18
q-33 0 -54.5 -26t-21.5 -58zM812 133q0 49 24 92.5t66 71.5t95 28q40 0 73 -18t53 -50.5t20 -76.5q0 -48 -24 -91.5t-66 -71.5t-95 -28q-39 0 -72.5 18t-53.5 50.5t-20 75.5zM911 146q0 -26 15 -44t42 -18q33 0 54.5 26t21.5 57q0 27 -15.5 45t-41.5 18q-33 0 -54.5 -26
t-21.5 -58zM75 532q0 49 24 92.5t66 71.5t95 28q40 0 73 -18t53 -50.5t20 -76.5q0 -48 -24 -91.5t-66 -71.5t-95 -28q-39 0 -72.5 18t-53.5 50.5t-20 75.5zM174 545q0 -26 15 -44t42 -18q33 0 54.5 26t21.5 57q0 27 -15.5 45t-41.5 18q-33 0 -54.5 -26t-21.5 -58z" />
    <glyph glyph-name="guilsinglleft" unicode="&#x2039;" horiz-adv-x="337" 
d="M116 33l-93 219l186 218h147l-190 -218l97 -219h-147z" />
    <glyph glyph-name="guilsinglright" unicode="&#x203a;" horiz-adv-x="338" 
d="M-19 33l191 219l-98 218h147l94 -218l-187 -219h-147z" />
    <glyph glyph-name="fraction" unicode="&#x2044;" horiz-adv-x="182" 
d="M-254 0l601 715h134l-600 -715h-135z" />
    <glyph glyph-name="uni2070" unicode="&#x2070;" horiz-adv-x="394" 
d="M237 395q-66 0 -101.5 41.5t-35.5 113.5q0 41 11.5 87.5t36.5 88.5t63.5 68.5t92.5 26.5q66 0 102 -41.5t36 -113.5q0 -40 -12 -87t-36.5 -89t-63.5 -68.5t-93 -26.5zM246 474q26 0 44.5 22t29.5 55t16 66t5 54q0 14 -3 30.5t-12.5 28.5t-28.5 12q-27 0 -45.5 -22
t-30 -55t-16.5 -66t-5 -54q0 -14 3 -30.5t13 -28.5t30 -12z" />
    <glyph glyph-name="uni2074" unicode="&#x2074;" horiz-adv-x="403" 
d="M255 404l17 78h-195l16 76l249 254h97l-54 -254h51l-16 -76h-51l-17 -78h-97zM184 558h104l31 146z" />
    <glyph glyph-name="uni2075" unicode="&#x2075;" horiz-adv-x="367" 
d="M109 578l77 234h249l-17 -78h-173l-25 -76q33 23 72 23q51 0 81.5 -29t30.5 -78q0 -50 -24 -90.5t-66.5 -64.5t-96.5 -24q-101 0 -146 71l63 61q20 -28 40.5 -40.5t45.5 -12.5q38 0 61 23.5t23 56.5q0 23 -12.5 36.5t-34.5 13.5q-32 0 -63 -26h-85z" />
    <glyph glyph-name="uni2076" unicode="&#x2076;" horiz-adv-x="381" 
d="M310 812h125q-69 -48 -113 -84t-71 -67q25 16 54 16q51 0 81.5 -29t30.5 -76q0 -51 -24 -91t-67 -63t-102 -23q-60 0 -96 32.5t-36 88.5q0 47 21 91.5t69 94.5t128 110zM266 602q-31 0 -55 -23t-24 -55q0 -22 14.5 -36t38.5 -14q33 0 56 23t23 55q0 23 -14.5 36.5
t-38.5 13.5z" />
    <glyph glyph-name="uni2077" unicode="&#x2077;" horiz-adv-x="361" 
d="M135 733l17 79h293l-17 -79l-254 -329h-104l256 329h-191z" />
    <glyph glyph-name="uni2078" unicode="&#x2078;" horiz-adv-x="385" 
d="M86 493q0 43 29 77t76 52q-47 24 -47 70q0 35 23 64.5t61 47t83 17.5q57 0 91.5 -25t34.5 -66q0 -34 -23.5 -63t-61.5 -45q29 -12 45 -33.5t16 -49.5q0 -39 -25.5 -72t-68 -52.5t-94.5 -19.5q-63 0 -101 27t-38 71zM239 686q0 -17 10.5 -26.5t27.5 -9.5q23 0 41 17.5
t18 40.5q0 35 -39 35q-24 0 -41 -16.5t-17 -40.5zM189 515q0 -19 14 -30t37 -11q31 0 52.5 18.5t21.5 46.5q0 19 -14 30t-37 11q-31 0 -52.5 -19t-21.5 -46z" />
    <glyph glyph-name="uni2079" unicode="&#x2079;" horiz-adv-x="381" 
d="M223 404h-124q68 48 112.5 84t70.5 67q-24 -16 -54 -16q-50 0 -80.5 29t-30.5 76q0 51 24 91t67.5 63t102.5 23t95 -32t36 -88q0 -47 -21 -92t-69 -94.5t-129 -110.5zM214 663q0 -22 15 -35.5t39 -13.5q32 0 55.5 23.5t23.5 54.5q0 22 -14.5 36t-37.5 14
q-34 0 -57.5 -22.5t-23.5 -56.5z" />
    <glyph glyph-name="uni2080" unicode="&#x2080;" horiz-adv-x="394" 
d="M132 -109q-66 0 -101.5 41.5t-35.5 113.5q0 41 11.5 87.5t36.5 88.5t63.5 68.5t92.5 26.5q66 0 102 -41.5t36 -113.5q0 -40 -12 -87t-36.5 -89t-63.5 -68.5t-93 -26.5zM141 -30q26 0 44.5 22t29.5 55t16 66t5 54q0 14 -3 30.5t-12.5 28.5t-28.5 12q-27 0 -45.5 -22
t-30 -55t-16.5 -66t-5 -54q0 -14 3 -30.5t13 -28.5t30 -12z" />
    <glyph glyph-name="uni2081" unicode="&#x2081;" horiz-adv-x="352" 
d="M88 -100l66 310l-111 -67l20 94l133 74h81l-87 -411h-102z" />
    <glyph glyph-name="uni2082" unicode="&#x2082;" horiz-adv-x="366" 
d="M-40 -100l15 71l175 136q26 20 43 41t17 46q0 19 -12.5 31t-35.5 12q-49 0 -96 -57l-47 66q74 71 164 71q53 0 90 -30.5t37 -80.5q0 -53 -37 -96.5t-97 -84.5l-64 -49h156l-17 -76h-291z" />
    <glyph glyph-name="uni2083" unicode="&#x2083;" horiz-adv-x="370" 
d="M-39 -26l63 53q29 -57 89 -57q32 0 54 16t22 44q0 19 -14.5 31t-43.5 12h-40l16 76h41q26 0 46.5 13t20.5 37q0 19 -15.5 29t-41.5 10q-23 0 -45.5 -10.5t-44.5 -33.5l-41 63q30 29 70.5 44.5t81.5 15.5q34 0 64 -11.5t49 -34.5t19 -56q0 -38 -22.5 -64t-58.5 -38
q58 -24 58 -83q0 -40 -23.5 -71.5t-62.5 -49.5t-87 -18q-45 0 -86.5 20t-67.5 63z" />
    <glyph glyph-name="uni2084" unicode="&#x2084;" horiz-adv-x="403" 
d="M150 -100l17 78h-195l16 76l249 254h97l-54 -254h51l-16 -76h-51l-17 -78h-97zM79 54h104l31 146z" />
    <glyph glyph-name="uni2085" unicode="&#x2085;" horiz-adv-x="367" 
d="M2 74l77 234h249l-17 -78h-173l-25 -76q33 23 72 23q51 0 81.5 -29t30.5 -78q0 -50 -24 -90.5t-66.5 -64.5t-96.5 -24q-101 0 -146 71l63 61q20 -28 40.5 -40.5t45.5 -12.5q38 0 61 23.5t23 56.5q0 23 -12.5 36.5t-34.5 13.5q-32 0 -63 -26h-85z" />
    <glyph glyph-name="uni2086" unicode="&#x2086;" horiz-adv-x="381" 
d="M203 308h125q-69 -48 -113 -84t-71 -67q25 16 54 16q51 0 81.5 -29t30.5 -76q0 -51 -24 -91t-67 -63t-102 -23q-60 0 -96 32.5t-36 88.5q0 47 21 91.5t69 94.5t128 110zM159 98q-31 0 -55 -23t-24 -55q0 -22 14.5 -36t38.5 -14q33 0 56 23t23 55q0 23 -14.5 36.5
t-38.5 13.5z" />
    <glyph glyph-name="uni2087" unicode="&#x2087;" horiz-adv-x="361" 
d="M30 229l17 79h293l-17 -79l-254 -329h-104l256 329h-191z" />
    <glyph glyph-name="uni2088" unicode="&#x2088;" horiz-adv-x="385" 
d="M-21 -11q0 43 29 77t76 52q-47 24 -47 70q0 35 23 64.5t61 47t83 17.5q57 0 91.5 -25t34.5 -66q0 -34 -23.5 -63t-61.5 -45q29 -12 45 -33.5t16 -49.5q0 -39 -25.5 -72t-68 -52.5t-94.5 -19.5q-63 0 -101 27t-38 71zM132 182q0 -17 10.5 -26.5t27.5 -9.5q23 0 41 17.5
t18 40.5q0 35 -39 35q-24 0 -41 -16.5t-17 -40.5zM82 11q0 -19 14 -30t37 -11q31 0 52.5 18.5t21.5 46.5q0 19 -14 30t-37 11q-31 0 -52.5 -19t-21.5 -46z" />
    <glyph glyph-name="uni2089" unicode="&#x2089;" horiz-adv-x="381" 
d="M116 -100h-124q68 48 112.5 84t70.5 67q-24 -16 -54 -16q-50 0 -80.5 29t-30.5 76q0 51 24 91t67.5 63t102.5 23t95 -32t36 -88q0 -47 -21 -92t-69 -94.5t-129 -110.5zM107 159q0 -22 15 -35.5t39 -13.5q32 0 55.5 23.5t23.5 54.5q0 22 -14.5 36t-37.5 14
q-34 0 -57.5 -22.5t-23.5 -56.5z" />
    <glyph glyph-name="Euro" unicode="&#x20ac;" horiz-adv-x="629" 
d="M20 235l19 92h58q5 32 13 63h-58l20 92h70q34 74 86 130t117.5 87.5t138.5 31.5q67 0 119 -29.5t80 -84.5l-95 -80q-37 81 -125 81q-57 0 -105.5 -37t-81.5 -99h236l-37 -92h-234q-9 -31 -13 -63h225l-37 -92h-191q5 -66 37.5 -102t88.5 -36q83 0 158 84l69 -88
q-52 -52 -115.5 -80.5t-136.5 -28.5q-111 0 -173 67.5t-62 183.5h-71z" />
    <glyph glyph-name="uni20B9" unicode="&#x20b9;" horiz-adv-x="631" 
d="M98 455l20 93h326q-4 35 -32 54.5t-73 19.5h-205l19 93h542l-36 -93h-119q24 -31 24 -74h67l-37 -93h-49q-20 -49 -60.5 -86t-95 -58t-118.5 -21h-28l269 -290h-180l-268 290l20 93h200q46 0 82 19.5t57 52.5h-325z" />
    <glyph glyph-name="uni20BA" unicode="&#x20ba;" horiz-adv-x="628" 
d="M61 0l50 235l-89 -36l19 96l90 37l14 65l-90 -37l21 96l89 36l47 223h135l-34 -162l161 66l-21 -96l-161 -66l-13 -65l160 66l-20 -96l-161 -66l-39 -186h37q175 0 217 201l5 24l130 -6l-2 -10q-34 -164 -124 -241.5t-245 -77.5h-176z" />
    <glyph glyph-name="uni20BD" unicode="&#x20bd;" horiz-adv-x="633" 
d="M74 0l23 110h-88l21 103h89l16 77h-89l22 103h89l68 322h224q98 0 154 -45t56 -126q0 -76 -34.5 -133t-101 -89t-162.5 -32h-92l-17 -77h191l-22 -103h-191l-23 -110h-133zM432 612h-95l-47 -219h95q59 0 97.5 38t38.5 96q0 41 -23 63t-66 22z" />
    <glyph glyph-name="trademark" unicode="&#x2122;" horiz-adv-x="839" 
d="M165 307v323h-110v85h323v-85h-111v-323h-102zM417 307v408h118l106 -247l105 247h118v-408h-101v249l-87 -195h-73l-87 197v-251h-99z" />
    <glyph glyph-name="arrowleft" unicode="&#x2190;" horiz-adv-x="931" 
d="M95 246l256 246h104l-215 -210h586v-72h-586l215 -210h-104z" />
    <glyph glyph-name="arrowup" unicode="&#x2191;" horiz-adv-x="752" 
d="M374 0v597l-239 -223v101l276 256l276 -256v-101l-239 223v-597h-74z" />
    <glyph glyph-name="arrowright" unicode="&#x2192;" horiz-adv-x="931" 
d="M105 210v72h586l-215 210h104l256 -246l-256 -246h-104l215 210h-586z" />
    <glyph glyph-name="arrowdown" unicode="&#x2193;" horiz-adv-x="752" 
d="M112 240v101l239 -223v597h74v-597l239 223v-101l-276 -256z" />
    <glyph glyph-name="minus" unicode="&#x2212;" horiz-adv-x="632" 
d="M118 304l23 107h418l-24 -107h-417z" />
    <glyph glyph-name="triagup" unicode="&#x25b2;" horiz-adv-x="752" 
d="M83 66v102l276 256l276 -256v-102l-276 252z" />
    <glyph glyph-name="uni25B6" unicode="&#x25b6;" horiz-adv-x="562" 
d="M100 0l252 246l-252 246h106l256 -246l-256 -246h-106z" />
    <glyph glyph-name="triagdn" unicode="&#x25bc;" horiz-adv-x="752" 
d="M116 322v102l276 -252l276 252v-102l-276 -256z" />
    <glyph glyph-name="uni25C0" unicode="&#x25c0;" horiz-adv-x="562" 
d="M100 246l256 246h106l-252 -246l252 -246h-106z" />
    <glyph glyph-name="uniFEFF" unicode="&#xfeff;" 
 />
    <glyph glyph-name="zero.dnom" horiz-adv-x="394" 
d="M153 -9q-66 0 -101.5 41.5t-35.5 113.5q0 41 11.5 87.5t36.5 88.5t63.5 68.5t92.5 26.5q66 0 102 -41.5t36 -113.5q0 -40 -12 -87t-36.5 -89t-63.5 -68.5t-93 -26.5zM162 70q26 0 44.5 22t29.5 55t16 66t5 54q0 14 -3 30.5t-12.5 28.5t-28.5 12q-27 0 -45.5 -22t-30 -55
t-16.5 -66t-5 -54q0 -14 3 -30.5t13 -28.5t30 -12z" />
    <glyph glyph-name="one.dnom" horiz-adv-x="352" 
d="M108 0l66 310l-111 -67l20 94l133 74h81l-87 -411h-102z" />
    <glyph glyph-name="two.dnom" horiz-adv-x="366" 
d="M-19 0l15 71l175 136q26 20 43 41t17 46q0 19 -12.5 31t-35.5 12q-49 0 -96 -57l-47 66q74 71 164 71q53 0 90 -30.5t37 -80.5q0 -53 -37 -96.5t-97 -84.5l-64 -49h156l-17 -76h-291z" />
    <glyph glyph-name="three.dnom" horiz-adv-x="370" 
d="M-18 74l63 53q29 -57 89 -57q32 0 54 16t22 44q0 19 -14.5 31t-43.5 12h-40l16 76h41q26 0 46.5 13t20.5 37q0 19 -15.5 29t-41.5 10q-23 0 -45.5 -10.5t-44.5 -33.5l-41 63q30 29 70.5 44.5t81.5 15.5q34 0 64 -11.5t49 -34.5t19 -56q0 -38 -22.5 -64t-58.5 -38
q58 -24 58 -83q0 -40 -23.5 -71.5t-62.5 -49.5t-87 -18q-45 0 -86.5 20t-67.5 63z" />
    <glyph glyph-name="four.dnom" horiz-adv-x="403" 
d="M171 0l17 78h-195l16 76l249 254h97l-54 -254h51l-16 -76h-51l-17 -78h-97zM100 154h104l31 146z" />
    <glyph glyph-name="five.dnom" horiz-adv-x="367" 
d="M23 174l77 234h249l-17 -78h-173l-25 -76q33 23 72 23q51 0 81.5 -29t30.5 -78q0 -50 -24 -90.5t-66.5 -64.5t-96.5 -24q-101 0 -146 71l63 61q20 -28 40.5 -40.5t45.5 -12.5q38 0 61 23.5t23 56.5q0 23 -12.5 36.5t-34.5 13.5q-32 0 -63 -26h-85z" />
    <glyph glyph-name="six.dnom" horiz-adv-x="381" 
d="M224 408h125q-69 -48 -113 -84t-71 -67q25 16 54 16q51 0 81.5 -29t30.5 -76q0 -51 -24 -91t-67 -63t-102 -23q-60 0 -96 32.5t-36 88.5q0 47 21 91.5t69 94.5t128 110zM180 198q-31 0 -55 -23t-24 -55q0 -22 14.5 -36t38.5 -14q33 0 56 23t23 55q0 23 -14.5 36.5
t-38.5 13.5z" />
    <glyph glyph-name="seven.dnom" horiz-adv-x="361" 
d="M51 329l17 79h293l-17 -79l-254 -329h-104l256 329h-191z" />
    <glyph glyph-name="eight.dnom" horiz-adv-x="385" 
d="M0 89q0 43 29 77t76 52q-47 24 -47 70q0 35 23 64.5t61 47t83 17.5q57 0 91.5 -25t34.5 -66q0 -34 -23.5 -63t-61.5 -45q29 -12 45 -33.5t16 -49.5q0 -39 -25.5 -72t-68 -52.5t-94.5 -19.5q-63 0 -101 27t-38 71zM153 282q0 -17 10.5 -26.5t27.5 -9.5q23 0 41 17.5
t18 40.5q0 35 -39 35q-24 0 -41 -16.5t-17 -40.5zM103 111q0 -19 14 -30t37 -11q31 0 52.5 18.5t21.5 46.5q0 19 -14 30t-37 11q-31 0 -52.5 -19t-21.5 -46z" />
    <glyph glyph-name="nine.dnom" horiz-adv-x="381" 
d="M137 0h-124q68 48 112.5 84t70.5 67q-24 -16 -54 -16q-50 0 -80.5 29t-30.5 76q0 51 24 91t67.5 63t102.5 23t95 -32t36 -88q0 -47 -21 -92t-69 -94.5t-129 -110.5zM128 259q0 -22 15 -35.5t39 -13.5q32 0 55.5 23.5t23.5 54.5q0 22 -14.5 36t-37.5 14q-34 0 -57.5 -22.5
t-23.5 -56.5z" />
    <glyph glyph-name="zero.numr" horiz-adv-x="394" 
d="M216 295q-66 0 -101.5 41.5t-35.5 113.5q0 41 11.5 87.5t36.5 88.5t63.5 68.5t92.5 26.5q66 0 102 -41.5t36 -113.5q0 -40 -12 -87t-36.5 -89t-63.5 -68.5t-93 -26.5zM225 374q26 0 44.5 22t29.5 55t16 66t5 54q0 14 -3 30.5t-12.5 28.5t-28.5 12q-27 0 -45.5 -22
t-30 -55t-16.5 -66t-5 -54q0 -14 3 -30.5t13 -28.5t30 -12z" />
    <glyph glyph-name="one.numr" horiz-adv-x="352" 
d="M173 304l66 310l-111 -67l20 94l133 74h81l-87 -411h-102z" />
    <glyph glyph-name="two.numr" horiz-adv-x="366" 
d="M44 304l15 71l175 136q26 20 43 41t17 46q0 19 -12.5 31t-35.5 12q-49 0 -96 -57l-47 66q74 71 164 71q53 0 90 -30.5t37 -80.5q0 -53 -37 -96.5t-97 -84.5l-64 -49h156l-17 -76h-291z" />
    <glyph glyph-name="three.numr" horiz-adv-x="370" 
d="M45 378l63 53q29 -57 89 -57q32 0 54 16t22 44q0 19 -14.5 31t-43.5 12h-40l16 76h41q26 0 46.5 13t20.5 37q0 19 -15.5 29t-41.5 10q-23 0 -45.5 -10.5t-44.5 -33.5l-41 63q30 29 70.5 44.5t81.5 15.5q34 0 64 -11.5t49 -34.5t19 -56q0 -38 -22.5 -64t-58.5 -38
q58 -24 58 -83q0 -40 -23.5 -71.5t-62.5 -49.5t-87 -18q-45 0 -86.5 20t-67.5 63z" />
    <glyph glyph-name="four.numr" horiz-adv-x="403" 
d="M235 304l17 78h-195l16 76l249 254h97l-54 -254h51l-16 -76h-51l-17 -78h-97zM164 458h104l31 146z" />
    <glyph glyph-name="five.numr" horiz-adv-x="367" 
d="M86 478l77 234h249l-17 -78h-173l-25 -76q33 23 72 23q51 0 81.5 -29t30.5 -78q0 -50 -24 -90.5t-66.5 -64.5t-96.5 -24q-101 0 -146 71l63 61q20 -28 40.5 -40.5t45.5 -12.5q38 0 61 23.5t23 56.5q0 23 -12.5 36.5t-34.5 13.5q-32 0 -63 -26h-85z" />
    <glyph glyph-name="six.numr" horiz-adv-x="381" 
d="M287 712h125q-69 -48 -113 -84t-71 -67q25 16 54 16q51 0 81.5 -29t30.5 -76q0 -51 -24 -91t-67 -63t-102 -23q-60 0 -96 32.5t-36 88.5q0 47 21 91.5t69 94.5t128 110zM243 502q-31 0 -55 -23t-24 -55q0 -22 14.5 -36t38.5 -14q33 0 56 23t23 55q0 23 -14.5 36.5
t-38.5 13.5z" />
    <glyph glyph-name="seven.numr" horiz-adv-x="361" 
d="M114 633l17 79h293l-17 -79l-254 -329h-104l256 329h-191z" />
    <glyph glyph-name="eight.numr" horiz-adv-x="385" 
d="M65 393q0 43 29 77t76 52q-47 24 -47 70q0 35 23 64.5t61 47t83 17.5q57 0 91.5 -25t34.5 -66q0 -34 -23.5 -63t-61.5 -45q29 -12 45 -33.5t16 -49.5q0 -39 -25.5 -72t-68 -52.5t-94.5 -19.5q-63 0 -101 27t-38 71zM218 586q0 -17 10.5 -26.5t27.5 -9.5q23 0 41 17.5
t18 40.5q0 35 -39 35q-24 0 -41 -16.5t-17 -40.5zM168 415q0 -19 14 -30t37 -11q31 0 52.5 18.5t21.5 46.5q0 19 -14 30t-37 11q-31 0 -52.5 -19t-21.5 -46z" />
    <glyph glyph-name="nine.numr" horiz-adv-x="381" 
d="M200 304h-124q68 48 112.5 84t70.5 67q-24 -16 -54 -16q-50 0 -80.5 29t-30.5 76q0 51 24 91t67.5 63t102.5 23t95 -32t36 -88q0 -47 -21 -92t-69 -94.5t-129 -110.5zM191 563q0 -22 15 -35.5t39 -13.5q32 0 55.5 23.5t23.5 54.5q0 22 -14.5 36t-37.5 14
q-34 0 -57.5 -22.5t-23.5 -56.5z" />
    <glyph glyph-name="zero.percent" horiz-adv-x="365" 
d="M-3 133q0 49 24 92.5t66 71.5t95 28q40 0 73 -18t53 -50.5t20 -76.5q0 -48 -24 -91.5t-66 -71.5t-95 -28q-39 0 -72.5 18t-53.5 50.5t-20 75.5zM96 146q0 -26 15 -44t42 -18q33 0 54.5 26t21.5 57q0 27 -15.5 45t-41.5 18q-33 0 -54.5 -26t-21.5 -58z" />
    <glyph glyph-name="hyphen.case" horiz-adv-x="322" 
d="M40 300l24 113h264l-24 -113h-264z" />
    <glyph glyph-name="uni2010.case" horiz-adv-x="322" 
d="M40 300l24 113h264l-24 -113h-264z" />
    <glyph glyph-name="uni2011.case" horiz-adv-x="322" 
d="M40 300l24 113h264l-24 -113h-264z" />
    <glyph glyph-name="endash.case" horiz-adv-x="500" 
d="M5 300l22 113h500l-22 -113h-500z" />
    <glyph glyph-name="emdash.case" horiz-adv-x="1000" 
d="M5 300l22 113h1000l-22 -113h-1000z" />
    <glyph glyph-name="parenleft.case" horiz-adv-x="355" 
d="M253 -73h-132q-31 69 -45 140t-14 144q0 108 29 211t83 196t128 169h135q-74 -78 -128.5 -171.5t-84 -196.5t-29.5 -211q0 -144 58 -281z" />
    <glyph glyph-name="parenright.case" horiz-adv-x="354" 
d="M99 -73h-134q73 78 126.5 170.5t83.5 196t30 213.5q0 65 -14 139t-43 141h131q30 -64 44.5 -139.5t14.5 -140.5q0 -168 -64.5 -317.5t-174.5 -262.5z" />
    <glyph glyph-name="slash.case" horiz-adv-x="503" 
d="M-1 0l426 732h129l-426 -732h-129z" />
    <glyph glyph-name="backslash.case" horiz-adv-x="502" 
d="M398 0h-128l-117 732h128z" />
    <glyph glyph-name="bracketleft.case" horiz-adv-x="324" 
d="M3 -73l182 860h225l-23 -105h-96l-138 -650h97l-22 -105h-225z" />
    <glyph glyph-name="bracketright.case" horiz-adv-x="324" 
d="M-40 -73l22 105h96l138 650h-96l22 105h224l-182 -860h-224z" />
    <glyph glyph-name="braceleft.case" horiz-adv-x="392" 
d="M82 68l38 183q4 16 4 23q0 33 -42 33h-26l22 103h27q27 0 41 13t20 43l38 180q30 141 166 141h93l-23 -103h-48q-28 0 -41.5 -13t-20.5 -43l-31 -141q-22 -99 -91 -128q43 -21 43 -80q0 -20 -6 -52l-30 -139q-3 -16 -3 -25q0 -33 41 -33h49l-22 -103h-93q-111 0 -111 94
q0 22 6 47z" />
    <glyph glyph-name="braceright.case" horiz-adv-x="392" 
d="M-25 -73l23 103h48q28 0 42 13t20 43l31 145q21 99 91 128q-43 21 -43 80q0 10 1.5 23t5.5 29l29 135q3 17 3 25q0 33 -41 33h-49l22 103h93q111 0 111 -94q0 -21 -6 -47l-38 -180q-2 -9 -2.5 -14t-0.5 -9q0 -33 41 -33h26l-22 -103h-26q-28 0 -42 -12.5t-20 -42.5
l-38 -184q-30 -141 -166 -141h-93z" />
    <glyph glyph-name="bullet.case" horiz-adv-x="350" 
d="M77 332q0 42 20 74t53.5 50.5t72.5 18.5q41 0 68 -26t27 -67q0 -42 -20.5 -74.5t-53.5 -50.5t-72 -18q-41 0 -68 26.5t-27 66.5z" />
    <glyph glyph-name="guilsinglleft.case" horiz-adv-x="337" 
d="M138 138l-93 219l186 218h147l-190 -218l97 -219h-147z" />
    <glyph glyph-name="guilsinglright.case" horiz-adv-x="338" 
d="M3 138l191 219l-98 218h147l94 -218l-187 -219h-147z" />
    <glyph glyph-name="guillemotleft.case" horiz-adv-x="566" 
d="M138 138l-93 219l186 218h147l-190 -218l97 -219h-147zM367 138l-93 219l186 218h147l-190 -218l97 -219h-147z" />
    <glyph glyph-name="guillemotright.case" horiz-adv-x="566" 
d="M3 138l191 219l-98 218h147l94 -218l-187 -219h-147zM231 138l191 219l-98 218h147l94 -218l-187 -219h-147z" />
    <glyph glyph-name="at.case" horiz-adv-x="999" 
d="M658 74l55 -90q-52 -40 -126.5 -64.5t-160.5 -24.5q-100 0 -179 46.5t-124.5 130.5t-45.5 196q0 113 39 213t108.5 176t163.5 119.5t203 43.5q110 0 194 -45.5t131.5 -127.5t47.5 -192q0 -92 -30.5 -165t-83 -115t-119.5 -42q-53 0 -87 24t-45 64q-57 -88 -145 -88
q-73 0 -117 48t-44 130q0 70 30.5 128t81.5 93t111 35q44 0 75.5 -20t45.5 -55l13 62h101l-49 -231q-1 -8 -2.5 -18t-1.5 -21q0 -19 9.5 -34t34.5 -15q30 0 54 29.5t38 80t14 113.5q0 122 -69.5 189t-190.5 67q-84 0 -156.5 -34t-126.5 -94t-84 -138t-30 -166
q0 -86 31 -149.5t88 -98t134 -34.5q57 0 113 19t101 55zM404 319q0 -43 20.5 -68.5t58.5 -25.5q35 0 67.5 28.5t52.5 88.5q3 22 3 36q0 48 -21.5 73t-59.5 25q-33 0 -60.5 -20.5t-44 -55.5t-16.5 -81z" />
    <glyph glyph-name="periodcentered.case" horiz-adv-x="252" 
d="M65 345q0 40 27.5 67.5t67.5 27.5q32 0 53 -20.5t21 -53.5q0 -40 -27 -66.5t-67 -26.5q-33 0 -54 20t-21 52z" />
    <glyph glyph-name="periodcentered.loclCAT" horiz-adv-x="179" 
d="M14 353q0 40 27.5 67.5t67.5 27.5q32 0 53 -20.5t21 -53.5q0 -40 -27 -66.5t-67 -26.5q-33 0 -54 20t-21 52z" />
    <glyph glyph-name="periodcentered.loclCAT.cap" 
d="M-189 354q0 40 27.5 67.5t67.5 27.5q32 0 53 -20.5t21 -53.5q0 -40 -27 -66.5t-67 -26.5q-33 0 -54 20t-21 52z" />
    <glyph glyph-name="uni0327.cap" 
d="M-158 -222l53 63q25 -25 65 -25q26 0 42 11.5t16 30.5q0 31 -49 31q-16 0 -46 -5l58 126h72l-25 -55q39 -7 61 -30t22 -57q0 -37 -20.5 -66t-56.5 -46t-81 -17q-72 0 -111 39z" />
    <glyph glyph-name="uni0326.cap" 
d="M-57 -292h-67q24 23 42.5 48.5t26.5 46.5q-33 11 -33 48q0 28 19 49.5t54 21.5q26 0 41.5 -15t15.5 -43q0 -37 -30.5 -78.5t-68.5 -77.5z" />
    <glyph glyph-name="uni0328.cap" 
d="M86 -159l-19 -89q-12 -2 -23 -3t-22 -1q-55 0 -89.5 23.5t-34.5 69.5q0 41 20 74.5t52.5 60.5t67.5 46l81 -22q-22 -9 -48 -25.5t-44 -39.5t-18 -54q0 -21 13.5 -32t34.5 -11q11 0 29 3z" />
    <glyph glyph-name="uni0328.round" 
d="M86 -160l-19 -88q-20 -4 -45 -4q-58 0 -90 25t-32 69q0 59 45.5 110t143.5 102l47 -13q-61 -41 -94.5 -83.5t-33.5 -78.5q0 -42 49 -42q14 0 29 3z" />
    <glyph glyph-name="uni0328.round.cap" 
d="M86 -159l-19 -89q-10 -2 -21 -3t-23 -1q-58 0 -91 24.5t-33 67.5q0 53 36.5 97.5t111.5 86.5h89q-61 -30 -93.5 -67t-32.5 -76q0 -20 12.5 -31.5t34.5 -11.5q16 0 29 3z" />
    <glyph glyph-name="acutecomb.cap" 
d="M-74 785l141 144h162l-175 -144h-128z" />
    <glyph glyph-name="acutecomb.asc" 
d="M-72 587l122 144h149l-155 -144h-116z" />
    <glyph glyph-name="acutecomb.narrow" 
d="M-73 587l98 174h138l-132 -174h-104z" />
    <glyph glyph-name="uni030B.cap" 
d="M-175 789l156 164h154l-184 -164h-126zM13 789l177 164h153l-204 -164h-126z" />
    <glyph glyph-name="IJacute" horiz-adv-x="692" 
d="M97 350l76 365h135l-76 -365h-135zM78 246l132 15q-3 -18 -3 -37q0 -53 26.5 -86.5t86.5 -33.5q67 0 107.5 45t58.5 131l92 435h135l-94 -443q-31 -143 -106 -215.5t-214 -72.5q-60 0 -111.5 25t-82.5 72t-31 112q0 12 1 25.5t3 27.5zM166 785l141 144h162l-175 -144
h-128zM571 785l141 144h162l-175 -144h-128z" />
    <glyph glyph-name="ijacute" horiz-adv-x="523" 
d="M156 -194l23 108h33q27 0 39.5 13t19.5 43l113 533h132l-118 -555q-16 -74 -55.5 -108t-108.5 -34h-78zM14 0l107 503h132l-107 -503h-132zM110 587l143 174h150l-181 -174h-112zM372 587l143 174h150l-181 -174h-112z" />
    <glyph glyph-name="gravecomb.cap" 
d="M-57 793l-131 144h158l98 -144h-125z" />
    <glyph glyph-name="gravecomb.narrow" 
d="M-44 587l-80 174h136l46 -174h-102z" />
    <glyph glyph-name="uni0302.cap" 
d="M-186 799l158 144h140l97 -144h-122l-59 73l-90 -73h-124z" />
    <glyph glyph-name="uni0302.narrow" 
d="M-157 587l156 174h99l82 -174h-106l-46 82l-80 -82h-105z" />
    <glyph glyph-name="tildecomb.cap" 
d="M-54 931q26 0 49 -11t45 -31q11 -10 18.5 -16t17.5 -6q25 0 49 59l77 -38q-19 -53 -56.5 -81t-81.5 -28q-50 0 -95 43q-10 10 -17.5 15.5t-18.5 5.5q-25 0 -49 -59l-77 38q20 53 57 81t82 28z" />
    <glyph glyph-name="tildecomb.narrow" 
d="M33 698q14 -14 19 -17.5t11 -3.5q23 0 44 60l64 -40q-19 -52 -50.5 -81.5t-67.5 -29.5q-35 0 -74 39q-14 15 -19.5 18.5t-11.5 3.5q-22 0 -44 -60l-64 39q20 53 51 82t67 29q19 0 36 -8.5t39 -30.5z" />
    <glyph glyph-name="uni030C.cap" 
d="M-54 799l-97 144h122l61 -74l90 74h122l-158 -144h-140z" />
    <glyph glyph-name="uni0315.short" 
d="M22 553h-65q42 40 63 81q-30 13 -30 47q0 30 21 51t51 21q56 0 56 -54q0 -34 -26.5 -72t-69.5 -74z" />
    <glyph glyph-name="uni0304.cap" 
d="M-154 807l20 95h314l-20 -95h-314z" />
    <glyph glyph-name="uni0304.narrow" 
d="M-128 603l20 92h262l-19 -92h-263z" />
    <glyph glyph-name="uni0308.cap" 
d="M-99 790q-28 0 -45.5 17t-17.5 43q0 38 27 64.5t69 26.5q27 0 44 -16.5t17 -42.5q0 -39 -26.5 -65.5t-67.5 -26.5zM122 790q-28 0 -45.5 17t-17.5 43q0 38 27 64.5t68 26.5q28 0 45 -16.5t17 -42.5q0 -39 -26.5 -65.5t-67.5 -26.5z" />
    <glyph glyph-name="uni0308.narrow" 
d="M-74 598q-26 0 -41.5 15.5t-15.5 39.5q0 33 23.5 58.5t63.5 25.5q26 0 41.5 -15.5t15.5 -38.5q0 -33 -23 -59t-64 -26zM94 598q-26 0 -42 15.5t-16 39.5q0 33 24 58.5t64 25.5q26 0 41.5 -15.5t15.5 -38.5q0 -33 -23.5 -59t-63.5 -26z" />
    <glyph glyph-name="uni0306.cap" 
d="M-118 947h104v-5q0 -28 16 -44.5t42 -16.5q32 0 54 17.5t32 48.5h103q-19 -70 -70.5 -111t-136.5 -41q-65 0 -105 35.5t-40 96.5v10t1 10z" />
    <glyph glyph-name="uni0307.cap" 
d="M8 789q-28 0 -45.5 16.5t-17.5 44.5q0 38 27 65t68 27q29 0 46 -16.5t17 -43.5q0 -38 -26.5 -65.5t-68.5 -27.5z" />
    <glyph glyph-name="dotbelowcomb.cap" 
d="M-108 -182q0 39 27.5 66t68.5 27q29 0 46 -16.5t17 -43.5q0 -39 -27.5 -66t-68.5 -27q-28 0 -45.5 16.5t-17.5 43.5z" />
    <glyph glyph-name="uni030A.cap" 
d="M56 989q43 0 70.5 -27t27.5 -70q0 -41 -20.5 -75.5t-54.5 -54.5t-76 -20q-43 0 -70.5 27t-27.5 70q0 42 20 76t54.5 54t76.5 20zM41 920q-28 0 -45 -19t-17 -48q0 -19 10.5 -30.5t28.5 -11.5q26 0 44 19.5t18 47.5q0 19 -11 30.5t-28 11.5z" />
    </font>
</defs>
</svg>
